<svg version="1" xmlns="http://www.w3.org/2000/svg" width="341.333" height="341.333" viewBox="0 0 256.000000 256.000000"><path d="M29.9 2.3C22.5 7.2 23-2 23 128.3c0 126.8-.3 119.3 5.5 124.7l2.7 2.5 96.2.3 96.3.2 3.4-2.3c1.8-1.2 3.9-3.4 4.6-4.7 1-2 1.3-28.2 1.3-121 0-114.2-.1-118.6-1.9-121.6C227-.3 232.4 0 127.7 0H33.3l-3.4 2.3zm65 25.3c3 3.8 3 15 0 18.8C93 48.8 92.3 49 84.6 49c-11 0-12.1-1.1-12.1-12s1.1-12 12.1-12c7.7 0 8.4.2 10.3 2.6zM124 27c1.7 1.7 2 3.3 2 10 0 10.9-1.1 12-12.2 12S102 48.3 102 37.3c0-11.2 1-12.3 12-12.3 6.7 0 8.3.3 10 2zm28.8-.4c2 1.4 2.2 2.4 2.2 10.1 0 11.6-.6 12.3-11.7 12.3-11 0-12.3-1.1-12.3-11.1 0-6.8 1.1-10.6 3.4-12.1 2.2-1.5 16-.9 18.4.8zm29.2.4c1.7 1.7 2 3.3 2 10 0 10.9-1.1 12-12.2 12-11.2 0-11.8-.7-11.8-12.1 0-11.1.8-11.9 12.2-11.9 6.5 0 8.1.3 9.8 2zM94.1 55.9c2.2 1.7 2.4 2.7 2.4 10.4 0 11.4-.3 11.7-12 11.7s-12-.3-12-11.7c0-7.7.2-8.7 2.4-10.4 3.3-2.7 15.9-2.7 19.2 0zm28.2-.8c3.3 1.8 3.7 2.8 3.7 11.3 0 10.9-.7 11.6-11.8 11.6-11.5 0-12.2-.7-12.2-11.5 0-8.1.9-10.7 4-11.8 2.8-1 14.1-.7 16.3.4zm59.1 1c2.4 1.9 2.6 2.6 2.6 9.8 0 11.2-.8 12.1-11.7 12.1-11.6 0-12.3-.7-12.3-11.5 0-11.3.9-12.3 12.1-12.4 5.3-.1 7.2.3 9.3 2zm-28 .5c1.2 1.1 1.6 3.6 1.6 9.6 0 11.1-.7 11.8-12.1 11.8-10.9 0-11.9-.9-11.9-11.5s.9-11.5 12-11.5c6.7 0 9.2.4 10.4 1.6zm-2.7 27.5c3.9 1.5 4.3 2.4 4.3 11.5 0 11-.7 11.8-10.9 12.2-7.5.4-8.1.2-10.5-2.2-2.3-2.2-2.6-3.3-2.6-9.6 0-7.8 1-10.7 4.3-12 3.1-1.2 12-1.2 15.4.1zm-55.6 1.6c1 1.1 1.4 4.4 1.4 10 0 11-1.3 12.3-12 12.3-10.8 0-12-1.3-12-12.5 0-11 .5-11.5 12.6-11.5 6.8 0 8.9.3 10 1.7zm29.1 0c1.5 1.3 1.8 3.1 1.8 9.9 0 7.7-.2 8.4-2.6 10.3-4.5 3.5-18 2.7-20.6-1.3-.4-.6-.8-4.7-.8-9 0-10.9.7-11.6 11.8-11.6 6.5 0 9 .4 10.4 1.7zm58.2.5c1.1 1.5 1.6 4.6 1.6 9.6 0 6.5-.3 7.6-2.6 9.8-2.4 2.4-3 2.6-10.5 2.2-10.3-.4-10.9-1.2-10.9-12.4 0-10.9.5-11.4 12-11.4 8 0 9 .2 10.4 2.2zm-88.8 27.6c2.3 1.5 3.4 5.3 3.4 11.5 0 5-.5 7-2.1 9.1-1.9 2.4-2.6 2.6-10.3 2.6-11 0-12.1-1.1-12.1-12s1.1-12 11.9-12c4.5 0 8.6.4 9.2.8zM124 115c1.7 1.7 2 3.3 2 10s-.3 8.3-2 10c-1.7 1.7-3.3 2-10 2-10.9 0-12-1.1-12-12.2s.7-11.8 11.7-11.8c7 0 8.6.3 10.3 2zm29.2-.3c1.5 1.3 1.8 3.2 1.8 10.4 0 11.1-.8 11.9-12.2 11.9-10.7 0-11.8-1.1-11.8-12s1.1-12 12.2-12c6.2 0 8.6.4 10 1.7zm28.8.3c1.7 1.7 2 3.3 2 10 0 10.9-1.1 12-11.8 12-11.3 0-12.2-.8-12.2-11.7 0-11.6.6-12.3 11.7-12.3 7 0 8.6.3 10.3 2zm-70.9 36.9c1.6 1.9 1.9 4 1.9 12.2v9.9h-9v-18.1l-11.2.3-11.3.3-.3 8.1-.3 8.2 14.6 13.8c8 7.7 15.3 15.1 16.1 16.6.9 1.9 1.4 6 1.4 13.1 0 15.6.5 15.2-20.5 15.2-21.1 0-20.5.4-20.5-15.6V205h9v20h23v-18.6L89.4 192c-8-8-15.2-15.4-16-16.5-1.7-2.4-2-19.6-.3-22.6 1.7-3.3 4.7-3.9 20.7-3.6 14.8.2 15.5.3 17.3 2.6zm50.7.8l.3 3.3H138v31h22v7h-22v38h-9v-83l16.3.2 16.2.3.3 3.2zm22 38l.2 41.3h-9v-83.1l4.3.3 4.2.3.3 41.2z"/></svg>