<?xml version="1.0" encoding="utf-8"?>
<!DOCTYPE svg PUBLIC "-//W3C//DTD SVG 1.1//EN" "http://www.w3.org/Graphics/SVG/1.1/DTD/svg11.dtd">
<svg version="1.1" id="Warstwa_1" xmlns="http://www.w3.org/2000/svg" xmlns:xlink="http://www.w3.org/1999/xlink" x="0px" y="0px"
	 viewBox="0 0 2500 1260" enable-background="new 0 0 2500 1260" xml:space="preserve">
<path fill="#656769" d="M88.6,368.2c178.2,0,356.5,0.1,534.7-0.3c11.9,0,14.8,2.7,14.7,14.7c-0.4,172.5-0.4,345,0,517.4
	c0,11.9-2.6,14.8-14.7,14.8c-108.8-0.5-217.5-0.5-326.3,0c-10.7,0-13.6-2.4-13.3-13.2c0.8-31.6,0.2-63.2,0.4-94.9
	c0.1-7.4-1.8-10.7-9.8-14c-14.4-6-28-14.9-39.1-26.4c-5-5.1-10-7.3-17.4-7.2c-43.1,0.4-86.2,0.2-129.4,0.2c0-17.3,0-34.5,0-51.8
	c34,0,68-0.5,102,0.3c10,0.2,11.1-4,10.1-11.7c-0.8-6-3.9-11.5-3-18c5.1-34.2,17.4-64.3,46.9-85.1c38.8-27.4,95.4-33.7,137.7-6.2
	c28.2,18.4,40,50.4,31.5,79.1c-14.1,47.7-70.4,60.6-110.4,41.3c-9.3-4.5-15.4-20.6-12.1-28.7c5.9-14.4,18-20.4,31.8-17.7
	c7.7,1.5,15.2,4.8,23.5,3.7c7.6-1,14.6-3.9,17-10.6c2.6-7,1.7-14.4-5.4-20.4c-20.6-17.3-42.9-14-66.2-7.6
	c-27.2,7.5-39.2,27.9-41.8,52.9c-2,19.8,6.5,39.5,21.9,52.1c34.5,28.2,74.8,32.2,115.7,17.5c63.5-22.9,88.5-92.7,58.2-153.8
	c-21.4-43-58.5-61-103.2-62c-84.7-1.8-169.5-0.5-254.3-0.5C88.6,477.4,88.6,422.8,88.6,368.2z M361.3,417.1
	c-71.4,0-142.8,0.2-214.2-0.2c-10-0.1-13.5,2.4-12.7,12.7c0.9,12.9,1,25.9,0,38.8c-0.9,11.6,2.1,15.5,14.6,15.3
	c47.9-0.8,95.8-0.7,143.7-0.2c25.7,0.3,51.4-2.5,77,2.6c30.4,6.1,58.5,16.6,82.4,37.2c49.1,42.2,72.5,124,40.7,190.7
	c-30.3,63.6-92.5,91.9-151.6,89.2c-7-0.3-8.3,0.9-8.2,6.9c0.2,15.3,0.7,30.7-0.2,46c-0.6,10.2,2.7,12.7,12.7,12.7
	c76.7-0.4,153.3-0.4,230,0c10.4,0.1,13.7-2.1,13.7-13.2c-0.4-141.8-0.4-283.6,0-425.4c0-11.2-3.3-13.3-13.7-13.2
	C504,417.3,432.7,417.1,361.3,417.1z"/>
<path fill="#656769" d="M2388.6,914.4c-11,0-22.1-0.9-33,0.2c-11.3,1.2-16.8-3.6-18.5-13.8c-2-11.9-2.4-27.6-10.7-33.4
	c-8.1-5.7-23-1.8-35-1.9c-23.3-0.1-23.3,0-29.4,23.5c-6.6,25.4-6.6,25.4-33.7,25.4c-6.7,0-13.3,0-21.9,0
	c20.2-61.1,39.8-121,59.8-180.8c9.8-29.2,10-28.3,40.8-29.5c13.5-0.5,18.5,3.6,22.5,16.6c17.8,58.6,37.2,116.8,56,175.1
	c1.1,3.3-2.3,7.9,3,9.8C2388.6,908.7,2388.6,911.6,2388.6,914.4z M2279.7,827.9c12.5,0,23.9,0,36.1,0c-5.7-22.8-11.4-45.4-17.3-68.9
	C2292.1,782.4,2286,804.5,2279.7,827.9z"/>
<path fill="#656769" d="M994.2,917.3c-23.8-8.6-44.6-20.7-57.3-44.2c-13.4-24.9-16.8-51.2-13.5-78.6c2-16,6.6-31.3,13.9-46.1
	c21.5-43.4,80-63.2,124.4-38.7c8.8,4.9,13.1,8.6,4.5,17.1c-0.9,0.9-1,2.5-1.8,3.7c-6.4,10.6-10.5,16.6-27.2,9.7
	c-32.9-13.7-57.4,1.3-62.4,41.3c-2.7,21.2-2.9,43.3,1.8,65.1c7.6,35,41.8,45.6,71,29.1c8.3-4.7,10.9-4.7,16,2.8
	c14.7,21.7,14.8,21.2-9.9,33.6c-3.4,1.7-9.1-0.4-10.6,5.2C1026.8,917.3,1010.5,917.3,994.2,917.3z"/>
<path fill="#656769" d="M2112.6,917.3c-31.9-11.3-55.4-31.7-63.7-65.3c-11.7-47.2-9.2-92,28.8-128.5c29-27.9,72.7-31.5,107.2-13.3
	c7.2,3.8,9.1,8.4,3.3,14.9c-1.3,1.4-2.9,2.7-3.6,4.4c-5.6,12.1-9.9,17.5-26.6,10.5c-27.8-11.7-54.1-4.5-62.3,35.9
	c-4.7,23.5-4.8,47.2,2.1,70.9c9.8,33.7,42,48,71.2,28.8c8.7-5.7,11.4-2.5,15.3,3.1c15.4,21.8,15.3,21.6-10.6,34
	c-3,1.5-8.2-0.9-9.4,4.4C2147.1,917.3,2129.8,917.3,2112.6,917.3z"/>
<path fill="#656769" d="M88.6,819.6c6.7-9.7,14.8-16,27.7-14.5c12.2,1.4,20.9,9.5,21.1,21.9c0.3,26.3-0.1,52.6,0.3,78.9
	c0.1,7-2.1,9-8.9,8.7c-13.4-0.5-26.8-0.1-40.2-0.1C88.6,882.8,88.6,851.2,88.6,819.6z"/>
<path fill="#656769" d="M1701.5,365.3c0,3.8,0.4,7.7-0.1,11.4c-0.8,6.7,1.5,8.8,8.5,8.9c13.1,0.3,18.7,9,17.4,24.7
	c-1,12.8-11.7,24.7-21.9,22.7c-3.6-0.7-6.4,0.9-8.5,0.5c-4.6-0.9-11.8,0.7-10.3-10.1c2.1-15,1.1-30.5,0.3-45.7
	c-0.3-6,2.3-9.2,6-12.5C1695.7,365.3,1698.6,365.3,1701.5,365.3z M1701.4,407.9c0.6,5.2-2,13.1,4.1,13.5c5.5,0.3,8.1-6.5,7.6-13.1
	c-0.4-5.4,0-11.5-7.4-11.1C1697.4,397.5,1703.3,404.6,1701.4,407.9z"/>
<path fill="#656769" d="M1287.5,365.3c1.5,19.2-3.1,38.7,2.7,57.8c0.7,2.3,0,4.7-2.2,6.3c-7.7,5.7-17.1,3.6-25.3,3.6
	c-7.5,0-11.8-7.7-12.6-16c-2-20.4,0.6-25.2,19.5-31.4c5.1-1.7,3.9-5.2,3.4-7.8c-1.2-6,2.1-9.2,5.9-12.5
	C1281.7,365.3,1284.6,365.3,1287.5,365.3z M1273.1,407.9c-1.7-3.3,3.6-10.7-4.1-10.6c-8.7,0-3.8,7.8-4.3,11.9
	c-0.6,4.6-1.9,12.6,4.4,12.3C1274.9,421.2,1272.7,413.2,1273.1,407.9z"/>
<path fill="#656769" d="M919.5,365.3c0,19.1-0.3,38.2,0.1,57.2c0.2,9.6-4.1,10.9-11.7,8.3c-1-0.3-1.2-1.8-2.9-0.7
	c-11,6.9-18.2,1.7-23.1-8.2c-5.7-11.5-5.3-27.4,4.2-31.6c13-5.7,19.5-13.8,24.7-25.1C913.7,365.3,916.6,365.3,919.5,365.3z
	 M905.2,408.4c-1.9-3.4,3.8-10.6-3.9-11.2c-8.5-0.7-7.7,6.5-7.6,12.3c0.1,5-1.5,12.6,5.4,12.7C907.2,422.2,904.5,414,905.2,408.4z"
	/>
<path fill="#656769" d="M1839.5,365.3c0,14.8-0.2,29.6,0.1,44.3c0.1,3.3-2.3,7.7,2.3,10.1c5.1,2.6,9.8,6.3,3.8,11.4
	c-6,5-13,4.5-17.7-2.8c-1.7-2.6-3.1-5.5-3-9.1c0.3-14.8,0.7-29.6-0.2-44.3c-0.4-5.8,4.6-6.1,6.1-9.6
	C1833.7,365.3,1836.6,365.3,1839.5,365.3z"/>
<path fill="#656769" d="M1462.8,365.3c-1.6,3.5,5,7.9-0.7,10.6c-5.6,2.7-11.7,4.3-17.6,6.4c-0.1-2.9-7-5-0.6-8.7
	c3.8-2.2,6.9-5.5,10.3-8.3C1457.1,365.3,1460,365.3,1462.8,365.3z"/>
<path fill="#656769" d="M2078.1,365.3c2.2,3.7,5.1,7.6-0.6,10.6c-5.1,2.7-10.6,5.9-16.4,4.9c-3.5-0.6-4.3-4.6-0.8-7.8
	c3-2.7,8.4-2.5,9.2-7.7C2072.3,365.3,2075.2,365.3,2078.1,365.3z"/>
<path fill="#656769" d="M1586.5,365.3c1,4.5,10.4,7.5,2.2,13.8c-3.2,2.5-6.2,5.2-10,2.5c-6.7-4.8-3.8-10.7-0.8-16.3
	C1580.7,365.3,1583.6,365.3,1586.5,365.3z"/>
<path fill="#656769" d="M1031.6,365.3c3,5.6,5.9,11.5-0.9,16.3c-4.6,3.3-7.7-0.6-10.9-3.5c-7-6.4,3.1-8.3,3.2-12.8
	C1025.8,365.3,1028.7,365.3,1031.6,365.3z"/>
<path fill="#656769" d="M1840.8,783.4c-11.2,39.4-22.4,78.7-33.5,118.1c-2.5,9-6.6,15.1-17.6,13.1c-5.6-1-11.6-0.8-17.2,0
	c-6.3,0.9-8.9-3-10.1-7.4c-11.4-41.8-22.6-83.8-33.8-125.9c-2.5,1.3-1.2,4.2-1.2,6.3c1,39.9-6.5,79.4-5.7,119.3c0.1,7-3,7.7-8.6,7.5
	c-8.6-0.3-17.4-1.1-25.8,0.1c-13.1,1.9-14.1-6.5-11.3-14.2c4.9-13.8,2.6-28,4.6-41.9c5-35.4,5.2-71.5,10-106.9
	c1.8-13.4-0.3-27.2,4.5-40.5c1.9-5.2,3.2-7.1,8.2-6.5c0.5,0.1,1,0,1.4,0c16.1,1,37.2-6.9,46.8,3.1c8.9,9.2,9,29.2,13.1,44.4
	c6.3,23.7,11.8,47.6,17.8,71.3c0.4,1.6,2.3,2.8,4.1,4.9c10.2-39.2,20-77.5,30.3-115.7c1.2-4.6,3.8-8.8,10.9-8.3
	c13.4,0.9,26.8,0.8,40.2,0c8.4-0.5,8.7,3.4,9.1,10c2.9,46.1,8.9,91.9,11.8,138c1.1,17.7,3.3,35.5,5.3,53.2c0.7,6.7-1.4,9.9-8.5,8.9
	c-3.3-0.4-6.7-0.1-10.1-0.1c-27,0-27.9,0-27.1-27.8c0.5-17.7-4.1-34.9-3.3-52.5C1845.8,817.2,1839.7,800.6,1840.8,783.4z"/>
<path fill="#656769" d="M1345.5,914.4c-11.5,0-23-0.5-34.5,0.2c-8,0.5-9.3-2.6-9.3-9.8c0.2-63.7,0.1-127.4,0.1-191
	c0-4.6-1.4-9.8,6.6-9.3c27.9,1.8,55.9-2.2,84,2.6c27.5,4.8,45.4,22.1,54.8,45.2c14.5,35.4,16,72.4,1.6,109.4
	c-12.4,31.9-39.8,52.6-73.2,52.7C1365.6,914.4,1355.5,914.4,1345.5,914.4z M1347.8,808.1c0,20-0.1,40.1,0.1,60.1
	c0,3-1.6,6.6,2.7,8.6c14.4,7,42.1-2.2,48.9-17c11.9-25.7,10.1-52.5,6-79.6c-4.4-29.1-17.6-41.7-48-41.5c-8.6,0.1-10,3.1-9.9,10.6
	C1348.2,769,1347.8,788.6,1347.8,808.1z"/>
<path fill="#656769" d="M720.2,914.4c22.6-68,44.9-133.9,66.2-200.1c2.7-8.4,6.3-10.5,13.8-9.8c0.5,0,1,0,1.4,0
	c11.9,0.2,27-3.9,34.9,1.8c7.9,5.7,8.8,21.2,12.4,32.5c16.9,54.1,33.2,108.4,51,162.2c3.9,11.9,1.9,13.5-9.4,13.5
	c-37.5-0.1-38,0.3-45.5-36.8c-2.1-10.3-6.3-12.9-15.8-12.4c-13.4,0.6-26.8,0.7-40.2-0.1c-6.4-0.4-9.2,3.3-9.9,7.6
	c-1.6,10.2-7.4,19.4-8.4,29.2c-1.1,11.6-6.4,12.9-15.7,12.5C744.2,914,733.2,914.4,720.2,914.4z M830,827.7
	c-6.1-23-11.9-45.1-18.3-69.4c-5.9,24.8-10.9,47.1-19,69.4C805.4,827.7,817.1,827.7,830,827.7z"/>
<path fill="#656769" d="M1086,914.4c20.9-62.9,41.5-125,62.2-187.1c7.6-22.9,7.8-22.8,32.3-22.8c22.9,0,23,0,29.9,21.9
	c19.8,62.4,39.5,124.9,59.4,188c-13.8,0-26.7-0.6-39.6,0.2c-7.6,0.5-10.8-3.3-11.5-9c-1.2-9.4-6.7-17.6-7.6-26.5
	c-1.2-12.1-7-14.6-17.7-13.7c-11.4,0.9-23.1,1.2-34.4-0.1c-9.9-1.1-12.8,4.1-15.1,11.4c-2.9,9.2-5,18.7-7.9,28
	c-2.3,7.4-5,10.1-12.5,9.8C1111.6,914.1,1099.6,914.4,1086,914.4z M1195.6,827.8c-5.9-22.7-11.4-44.1-17.7-68.7
	c-6.8,25.5-12.5,47.1-18.2,68.7C1171.4,827.8,1182.8,827.8,1195.6,827.8z"/>
<path fill="#656769" d="M1506,809.1c0-31.1,0.3-62.3-0.2-93.4c-0.1-8.3,1.2-11.6,10.7-11.4c34.5,0.7,69,0.3,103.5,0.2
	c7.1,0,12.2-0.5,8,10c-3.4,8.3,1.6,21.8-6.1,26c-7.8,4.2-19.6,1.3-29.6,1.5c-6.2,0.1-12.5,0-18.7,0c-21.5,0-21.5,0-21.5,21.7
	c0,21.5,0,21.5,21.7,21.5c7.2,0,14.5,1,21.5-0.2c14.9-2.4,18.4,3.6,17.5,17.7c-1.3,19.8-0.3,19.8-20.7,19.9
	c-12.8,0.1-29.7-4.3-37.4,2.1c-8.1,6.7-1,24.3-2.8,36.9c-1.9,13.8,3.9,16.5,16.3,15.8c18.6-1,37.3-0.1,56-0.4
	c5.7-0.1,8.1,0.9,8.5,7.6c1.8,29.9,2.1,29.8-27.9,29.8c-28.3,0-56.5-0.4-84.8,0.2c-10.6,0.3-14.7-1.7-14.3-13.6
	C1506.6,870.4,1506,839.8,1506,809.1z"/>
<path fill="#656769" d="M1948.7,808c0-31.1,0.3-62.3-0.2-93.4c-0.1-8.1,2.1-10.8,10.3-10.3c12.3,0.8,28.5-4,36.1,2.1
	c8,6.4,2.5,23.2,2.6,35.5c0.3,53.6-0.1,107.3,0.3,160.9c0.1,9.4-2.3,12.5-11.8,11.7c-11.8-1-27.8,4-34.7-2c-8-7-2.4-23.3-2.6-35.6
	C1948.4,854,1948.7,831,1948.7,808z"/>
<path fill="#656769" d="M235.2,867.1c0,12.9-0.4,25.9,0.2,38.8c0.3,7.1-2.2,9-8.9,8.7c-13.8-0.7-31.4,4.4-40.3-2.3
	c-8.5-6.4-2.6-25-2.4-38.2c0.3-16.9-2.5-34,2.5-50.9c3.6-12.2,13.2-19,27.7-18c12.3,0.9,20.9,9.3,21.2,21.7
	C235.5,840.3,235.2,853.7,235.2,867.1z"/>
<path fill="#656769" d="M982.5,536.5c0-4.8,0.8-9.8-0.2-14.3c-2.1-9.8,6.3-7.2,10.4-9.7c2,7.7,7.2,1.9,10.6,2.1
	c9.4,0.4,18.7,1.5,28.4-0.4c6.6-1.2,10.2,6.8,10.8,12.5c1.1,9.4,0.1,19.1,0.4,28.7c0.2,6.1-3.7,5.3-7.6,5.5
	c-4.5,0.2-7.2-0.7-6.9-6.1c0.3-7.2,0.2-14.4,0-21.5c-0.1-3.1,1.1-7.1-4.5-6.9c-5.5,0.3-3.9,4.4-4,7.3c-0.2,6.7-0.4,13.4,0,20.1
	c0.4,5.8-1.9,7.2-7.4,7.2c-5.8,0.1-7.4-2.1-7.2-7.5c0.4-7.2,0.1-14.4,0.1-21.5c0-2.9,0-5.7-4.3-5.7c-4.3,0-4.3,2.8-4.3,5.7
	c0,7.2-0.3,14.4,0.1,21.5c0.3,5.5-1.5,7.5-7.2,7.4c-5.6,0-7.7-1.6-7.3-7.3c0.4-5.7,0.1-11.5,0.1-17.2
	C982.7,536.5,982.6,536.5,982.5,536.5z"/>
<path fill="#656769" d="M1569.2,530.4c0,4.8,1.1,9.9-0.3,14.2c-1.7,5.5,6.8,15.6-6.5,16.1c-13.7,0.6-5.3-10.1-7.5-15.3
	c-1.5-3.4,3.1-9.4-3.8-10.4c-5.6-0.8-12-1.7-10.7,7.8c0.5,3.7-0.2,7.6,0.1,11.4c0.4,5-1.5,6.7-6.5,6.6c-4.6-0.2-8.2,0.1-8-6.5
	c0.4-16.7,0.4-33.4,0-50.1c-0.1-6.1,2.5-6.8,7.6-7c6-0.2,7.3,2.5,6.9,7.6c-0.3,4.3,0.2,8.6-0.1,12.9c-0.4,5.9,3.4,5.5,7.4,5.6
	c4.3,0.1,7.5-0.3,7.1-5.9c-0.3-4.7,0.2-9.6-0.1-14.3c-0.4-5.7,3.1-5.8,7.2-5.8c4.1,0,7.5-0.1,7.3,5.7
	C1569,512.3,1569.2,521.3,1569.2,530.4z"/>
<path fill="#656769" d="M2043.6,537.5c0,6.9-0.3,12,0.1,17c0.4,5.2-1.8,6.5-6.6,6.5c-4.8-0.1-8.1-0.2-7.9-6.6
	c0.4-16.7,0.4-33.5,0-50.2c-0.1-6.5,3.2-6.5,8-6.6c4.9-0.1,7,1.4,6.6,6.5c-0.4,5-0.1,10.1-0.1,17.5c6-8,10.4-14.2,15.2-20.2
	c3-3.8,6.7-5.4,11-1.9c4.6,3.7,1.1,6-1.1,9.3c-13.8,21-13.6,21.1,3.1,41.7c1.9,2.3,6.5,5.2,0.9,7.3c-3.5,1.3-6.6,10-12.1,1.7
	C2055.9,552.2,2050.1,545.7,2043.6,537.5z"/>
<path fill="#656769" d="M1186.8,543.5c0,12.9-6.1,19.7-18.1,20.2c-10.8,0.4-23.9-11-24.9-22.4c-0.6-7.1,0.1-14.3-0.2-21.5
	c-0.4-9.8,5.1-17.6,12.4-20.7c8.2-3.5,18.3-3.5,27.3,1.1c2.4,1.2,4.7,2.4,2.6,4.9c-2.5,2.9-4.6,8.9-9.7,6
	c-8.4-4.7-15.7-1.4-17.2,5.5c-2.2,10.2-3.9,21.8,2.9,31.5c1.9,2.7,6.8,2.4,9,0.3c2.8-2.7,2.6-9.3-0.4-9.7c-6.9-1-8.9-5.2-6.3-9.3
	c4.2-6.7,12-2.2,18.2-2.7c6.3-0.6,3.9,5.1,4.3,8.3C1187.1,537.7,1186.8,540.6,1186.8,543.5z"/>
<path fill="#656769" d="M1626.8,432.2c6.1-19.9,12.1-37.8,16.9-56.1c1.8-6.8,5.2-7.5,11-8.1c6.7-0.7,6.2,3.6,7.3,7.6
	c4.4,15,9.1,29.9,13.8,44.9c1.2,3.9,7.2,8.8-1.2,10.7c-5.8,1.3-13.4,1.7-13.2-7.9c0.1-5.3-2.1-6.4-6.8-6.3
	c-4.6,0.1-10.4,0.5-10.2,5.3C1645,436.7,1634.9,429.8,1626.8,432.2z"/>
<path fill="#656769" d="M1507.5,412.2c-7.4,6.6-1.6,19.4-13.4,19.1c-12.6-0.3-7-12.3-10.8-18.4c-3.3-5.3-4.6-12-5.7-18.3
	c-0.6-3.4-3-9.4,4.7-9.1c4.3,0.1,10.5-2,9.3,6.3c-0.8,5.2,1.9,8.9,4.5,13.1c3.6-6.5-2.5-18,9.5-19.2c13.3-1.4,6.6,11.8,10.7,17.8
	c6.9-3.2,3.3-9.7,6-14c2.9-4.6,5.9-4.1,9.2-3.7c5.2,0.6,3.6,5.4,2.9,7.9c-2.4,9.4-5.7,18.5-8.3,27.8c-1.8,6.2-3.5,11.2-11.9,10.2
	c-9.5-1.1-3.8-7.9-5.3-11.9C1508.3,418,1508.2,416.2,1507.5,412.2z"/>
<path fill="#656769" d="M2270.7,533c6-5.5-1.8-18.7,11.7-18.3c12.8,0.4,6.2,11.7,9.8,17.4c7.2-1.3,3.8-6.8,4.4-10.2
	c1-6.3,5-7.9,10.2-7c7.7,1.2,3.2,5.4,2.4,9.4c-2.1,10-5.8,19.5-8.7,29.2c-1.6,5.3-3,7.6-9,7.6c-6.8,0-6.7-3.7-6.3-8.2
	c0.5-4.6-2.2-7.7-4.6-11.1c-4.1,6.3,1.8,18.2-11.1,19c-3.9,0.3-6.8,0.4-7.6-5.4c-1.5-10-4.9-19.7-7.2-29.6c-1-4.1-4.6-9.7,3.4-10.8
	c6.3-0.9,10,1.9,9.9,8.8C2267.8,526.5,2267,529.5,2270.7,533z"/>
<path fill="#656769" d="M2134.5,407.8c2.9-10.7-1.4-26,17.9-21.7c-2.2,13.8-9.8,25.8-11.3,39.6c-0.5,4.3-4.2,5.5-8.5,5.8
	c-4.5,0.4-5-2.8-6.9-5.4c-3.1-4.3-0.2-9.5-2.6-14c-2.7,3.3-5.1,6.5-4.9,11c0.3,5.2-2.4,7.4-7.6,8.3c-6.9,1.1-8.7-4.6-9.2-8.2
	c-1.4-10.7-6.1-20.3-8.5-30.7c-0.7-3.2-2.1-7.4,3.3-7c3.5,0.3,9.9-3.5,10.2,3.5c0.2,6.3,5.7,11,3.7,17.8c5.1-7.2-1.7-21.8,12.6-21.2
	C2135.7,386.4,2129.2,400.4,2134.5,407.8z"/>
<path fill="#656769" d="M1868.2,403.5c5.7-5.7,0-18.1,12-18.1c12.7,0.1,5.2,12.1,9.8,17.2c7.5-1.3,2.8-7.9,5-11.6
	c2.5-4.3,4.9-6.4,9.7-5.6c6.3,1,4.2,6.5,3.3,9c-3.7,10-7.1,19.9-9.3,30.4c-1.1,5.1-4.7,6.9-10.3,6.8c-7.1-0.1-6.2-4.4-5.8-8.5
	c0.4-4.2-2.4-6.9-4-10.4c-0.6,0.5-1.5,0.8-1.6,1.3c-1.5,6.6,0.2,16.1-9.1,17.1c-11.1,1.1-8.6-10.1-11.1-16.3
	c-2.5-5.9-3.6-12.4-4.9-18.7c-0.8-3.7-4-8.9,2.3-10.4c5.5-1.3,10.5,0.1,11.1,7.4C1865.6,396.3,1864.1,399.8,1868.2,403.5z"/>
<path fill="#656769" d="M1949,536.3c6.3-6.6-0.6-21.1,12.9-21c14,0.1,7.2,14.3,11.1,21.5c5.8-7.3-1.8-26.2,18.9-21.1
	c-3.6,11.7-7.2,23-10.5,34.4c-1.6,5.4-1.9,11.2-10.2,10.9c-8.3-0.3-4.2-8.2-7.7-11.6c-1.7-1.6-0.3-6.3-0.3-13.6
	c-3.3,8.2-5.9,12.3-5.9,17.7c0,5.3-3.5,6.9-8.5,7.5c-5.6,0.7-6.6-3.6-7.5-6.6c-3.4-11.5-6-23.3-9.2-34.9c-0.9-3.2,0.2-5,2.9-4.5
	c3.6,0.7,9.1-3.6,10.7,3.3C1947.2,524.2,1950.7,529.6,1949,536.3z"/>
<path fill="#656769" d="M784.5,556.2c0.4,2.8-1.1,4.5-5.6,4.7c-5.2,0.2-8.6-0.8-10.9-6.2c-1.8-4.1,2.2-11.7-8.1-11.6
	c-10.1,0.1-8.7,8.1-9.6,12.4c-1.7,8.3-7.1,5.2-10.8,5c-7.4-0.4-4.2-6.5-3.3-9.7c4.2-15.1,8.9-30,13.8-44.9c1.5-4.6,3.5-8.8,10.5-8.7
	c6.8,0.1,7.9,4.9,9.1,8.7C774.9,522.1,779.4,538.5,784.5,556.2z"/>
<path fill="#656769" d="M925.2,527.1c0,7.1,0.1,14.3,0,21.4c-0.2,10.7-0.2,10.5-12.9,10.3c-4.5-0.1-7.1,5.1-13.5,3.5
	c-15.8-3.9-13.6-15.4-13.8-26.5c-0.2-11.7,4.4-20.9,16.8-21.6c7.3-0.4,10.1-1.6,9.1-9.1c-0.8-5.9,1-10.2,8.2-10.5
	c9.6-0.4,5.6,6.8,6,11C925.6,512.7,925.2,519.9,925.2,527.1z M899.3,537.7c0.5,5.3-1.8,13.2,4.6,13.4c8.2,0.3,7.5-7.9,6.9-13.9
	c-0.4-4.3,3.5-11.5-6.1-10.9C895,526.9,901.3,534.3,899.3,537.7z"/>
<path fill="#656769" d="M2175.8,529c6.9-7.7,11.1-12.4,15.3-17.1c17.4,14-5,16.3-5.8,25.1c3.7,6.6,18.6,12.5,10.8,21
	c-11.4,12.3-11.1-8.1-18.7-10.3c-3.4,1.4-1.6,4.8-1.4,6.9c0.6,6.9-3.7,6-8.1,6.3c-5.1,0.3-6.5-1.7-6.5-6.5c0.2-16.7,0.2-33.5,0-50.2
	c-0.1-6.6,2.6-9.6,9.3-9.5c7.6,0.1,4.8,5.7,5,9.2C2176.1,510.8,2175.8,517.8,2175.8,529z"/>
<path fill="#656769" d="M807.3,542.6c0,5.3-0.3,8.2,0.1,11c0.7,5.5-1.2,7.5-7,7.4c-5.3-0.1-7.7-1-7.5-7c0.4-16.2,0.6-32.4-0.1-48.6
	c-0.3-8,4.7-10,10.1-10.4c7.5-0.5,4,6,4.3,9.5c0.5,7.6,0.2,15.2,0.2,26c5.9-5.9,10.5-10.1,14.8-14.6c2.6-2.8,4.3-4,7.6-0.5
	c2.9,3.1,3.6,5.1-0.1,7.5c-14.5,9.3-9.2,18.5,0.3,27.3c4.4,4.1,4.1,7.3-0.7,10c-2.9,1.6-6.2,5.1-8.9-1.7
	C818.1,553.2,812.9,549.2,807.3,542.6z"/>
<path fill="#656769" d="M1138.9,368.2c2.4,0,4.4,0.2,6.2,0c6.1-0.9,12,3.1,11.5,7.3c-0.6,5.1-5.6,9-12.9,4.8c-2.6-1.5-9.2-3-11.1,2
	c-2.2,5.6,2.9,7.6,7.3,10c17.4,9.4,22.2,20.2,15,31.9c-6,9.8-26.6,13-34.7,5.5c-2.4-2.2-3.1-5.1-1.9-7.7c1.4-2.8,3.3-5.9,7.7-3.8
	c6,2.8,14.7,5.1,17-1.2c3-8.4-7.3-10.5-13-13.9c-15.2-9-17-23.4-4.2-32.6C1130.4,366.9,1135,369.1,1138.9,368.2z"/>
<path fill="#656769" d="M1841.8,547.1c5.4,3.8,11.4,3.4,15.5,1.6c5.3-2.3,4.8,1.6,6.6,3.5c2.8,3,1.1,5.7-1.4,7.1
	c-9.1,5.1-18.4,5.3-26.9-1c-8.1-6-10.2-22.8-5.1-33.6c4.6-9.7,11.5-12.3,22.2-10.3c14.1,2.6,14.4,14.6,14.7,23.4
	c0.4,9.3-10.1,4.8-16.1,6C1848.4,544.1,1844.7,542,1841.8,547.1z"/>
<path fill="#656769" d="M946.8,546.5c6.3,4.3,12.4,4,16.4,2.1c5.4-2.5,4.8,1.7,6.6,3.5c2.8,3,1,5.6-1.4,7
	c-9.1,5.2-18.4,5.3-26.9-1.1c-8.3-6.2-10.7-24.8-4.6-35c5.3-8.9,12.4-11.9,23.2-8.7c12.7,3.7,13,14.9,13.3,23.2
	c0.3,9.3-10.2,4.9-16.1,5.9C954.1,544,950.7,542.8,946.8,546.5z"/>
<path fill="#656769" d="M1927.5,417.2c5.5,4.5,10.9,2.9,15.6,2.4c3.2-0.3,6.1-2.5,7.9,1.8c1.5,3.5,0.7,7.2-2.5,8.7
	c-8.1,3.6-16.4,7-24.9,0.5c-11.2-8.5-11.1-20.6-8.5-32.2c2.6-11.5,11.8-13.6,23-13.2c14.9,0.5,13.9,13.2,15.6,21.1
	c2.2,10.3-8.1,7.2-14.1,8C1936,414.7,1932,412.8,1927.5,417.2z"/>
<path fill="#656769" d="M2360.4,543.5c3.9,9.1,12.1,7,16.4,5.2c8.1-3.4,5.2,3,7,5.5c3.5,5-1.1,5.8-3.8,6.4
	c-11.2,2.3-22.6,4-29.8-8.1c-7.6-12.6-5.4-24.2,4.5-34.1c7.2-7.2,15-7,22.2-2.2c8.2,5.4,9.9,14.4,8.8,23.9c-0.5,4.4-3.9,3.3-6.5,3.4
	C2373.1,543.6,2367,543.5,2360.4,543.5z"/>
<path fill="#656769" d="M861.9,529.2c-1.2-4.3-4.6-2.6-7.1-2.8c-5-0.4-12,1.5-12.5-5.7c-0.5-7.3,7.7-6,11.9-7.4
	c7.4-2.5,15.2,0.1,19,7.1c6.5,11.8,2,25.1,2.9,37.7c0.1,0.7-0.7,1.6-1.3,2.2c-3.5,3.2-29.1,0.6-32.6-3.3c-7.5-8.2-1.9-22.2,9.9-24.9
	C855.4,531.3,859.8,534.2,861.9,529.2z"/>
<path fill="#656769" d="M738.3,400.9c0-1.9,0-3.8,0-5.7c0.5-30.6-5.5-26.7,28.9-26.8c3.1,0,8.5-2.5,8.3,4.2
	c-0.1,5.3-3.5,6.9-8.5,7.4c-3.8,0.3-9.8-2.9-11,2.7c-1,4.3-4,12.4,6.4,11.6c3.7-0.3,7.5-0.8,7.6,5.3c0.1,5.4-2.2,6.6-6.8,6.2
	c-12.8-1.2-6.7,8.6-7.5,13.7c-0.9,6.2,1.9,12.9-9.5,12.6c-10.9-0.3-7.7-7-7.9-12.4C738.1,413.2,738.3,407,738.3,400.9z"/>
<path fill="#656769" d="M1620.5,513.7c2,13.9-1.6,27.7,1.8,41.3c0.3,1.1-0.2,3.3-0.9,3.6c-3.6,1.6-7.2,7-10.8,4
	c-8.2-6.9-29.7,9.9-27.2-15.5c0.7-7.6,0.7-15.4-0.1-22.9c-0.8-7.4,2.4-10.5,8.9-10.7c7.2-0.3,5.4,5.5,5.6,9.6
	c0.2,6.2-0.1,12.4,0.1,18.6c0.1,2.9-1.7,7.2,3.8,7.5c6.6,0.4,4.4-4.7,4.7-8c0.3-3.8,0.6-7.7,0-11.4
	C1604.6,518.9,1607.8,512.5,1620.5,513.7z"/>
<path fill="#656769" d="M1312,417c5.9,4.7,11.6,3.6,16.1,2.4c4.3-1.2,4.9,0.4,6.8,3c2.2,3.2,1.7,6.2-1.1,7.1c-6.7,2-12.9,7.9-21,2.9
	c-6.9-4.3-13.6-7.7-13.9-17.6c-0.7-22.6,6.1-31.7,23.3-29.4c10.9,1.4,19.3,17.4,14,26.5c-1.9,3.2-5,1.8-7.6,2.2
	C1323.6,414.9,1318.2,412.5,1312,417z"/>
<path fill="#656769" d="M1067,399.2c-1.6-1.1-2-1.4-2.4-1.6c-5.9-2.8-15.4,3.7-18.2-6.4c-0.8-3,2.9-6.3,6.6-5.6
	c8.8,1.6,20.4-5.9,25.8,8c4.3,11-1.3,22.6,3.3,33.5c0.3,0.7-1.2,2.4-2.1,3.3c-5.1,5.2-28.6,3.3-33.1-2.5c-7.5-9.7-2.8-22.4,9.3-25.1
	C1059.5,402,1063.6,404.1,1067,399.2z"/>
<path fill="#656769" d="M781.5,406.6c0-6,0.2-10.8-0.1-15.5c-0.4-5.9,3.3-5.6,7.4-5.7c4.3-0.1,7.4,0.3,7.1,5.9
	c-0.3,7.6-0.1,15.3-0.1,23c0,2.9,0,5.7,4.3,5.7c4.2,0,4.3-2.8,4.3-5.7c0-6.7,0.1-13.4,0-20.1c-0.1-6,2.8-8.4,8.7-8.8
	c7.5-0.5,5.3,4.8,5.7,8.6c0.9,10.7-2.1,21.7,2.7,32.2c1.3,2.9-0.5,6.1-4.4,5.1c-10-2.6-20.3,5.8-29.7-0.1
	C777.5,425,782.9,414.2,781.5,406.6z"/>
<path fill="#656769" d="M951.4,398.6c-4.2-2.8-8.9-1.1-13.2-1.7c-2.9-0.4-7.2,1.6-7.2-4c0-3.9,2.1-6.1,5.6-7.3
	c16.3-5.6,28.4,3,28.9,20.7c0,1,0,1.9,0,2.9c0.1,23.2-1.4,25.4-24,24.9c-7.2-0.2-12.5-6.1-13.3-14c-1-9.6,5.2-14.3,13.2-17.3
	C944.5,401.6,949,404.9,951.4,398.6z"/>
<path fill="#656769" d="M1201.2,406.9c0-5.5,0.3-9.8-0.1-14.1c-0.4-5.3,1.1-7.7,7-7.6c5.4,0.1,7.9,1.3,7.5,7.2
	c-0.4,5.7-0.5,11.5,0.1,17.2c0.4,3.5-3.3,9.7,3.8,10.1c7.4,0.4,4.2-6,4.5-9.5c0.5-5.7,0.1-11.5,0.2-17.2c0.2-6.4,4.3-7.7,9.7-7.6
	c6.6,0.1,4.1,5,4.5,8.2c1.4,11.2-2.6,22.7,2.4,33.7c1.4,3-1.1,4.6-3.7,4c-10-2.4-20.1,6.1-29.7,0
	C1197.5,425.1,1202.5,414.5,1201.2,406.9z"/>
<path fill="#656769" d="M1278.8,537.4c0-4.3,0.2-8.6,0-12.9c-0.6-10.5,3.1-13.8,12.6-7.7c3.4,2.2,5.2-1.2,7.4-2.2
	c8.5-4.1,13.9-1.1,17.7,6.7c5.6,11.7,1.9,24.2,2.3,36.3c0.2,4.8-5,2.7-7.9,3.1c-4,0.6-6.3-0.7-6.1-5.3c0.2-7.6,0-15.2,0.1-22.9
	c0-3.6-0.3-6.3-5.2-6.4c-5.1-0.1-6.6,1.8-6.4,6.6c0.3,6.7-0.3,13.4,0.2,20c0.4,6.1-1.3,8.3-7.8,8.2c-6.2-0.1-6.9-3-6.7-7.9
	C1279,547.9,1278.8,542.7,1278.8,537.4z"/>
<path fill="#656769" d="M1963.1,407.3c0-20.3,0-20.3,19.5-21.8c16.4-1.3,17.8,0,17.9,16.6c0,7.6-0.4,15.3,0.1,22.9
	c0.4,6.4-2.9,6.7-7.8,6.7c-4.7,0-7-1.2-6.7-6.3c0.3-7.1,0.1-14.3,0-21.4c0-3.1,1-7.1-4.5-6.8c-5.5,0.2-3.9,4.3-4,7.3
	c-0.2,6.7-0.4,13.4,0,20c0.3,5.5-1.5,7.4-7.2,7.4c-5.5,0-7.8-1.4-7.4-7.2C1963.4,418.7,1963.1,413,1963.1,407.3z"/>
<path fill="#656769" d="M2136.5,528.8c-5.7-4.2-11-2-16-2.4c-3.5-0.3-5.3-1.3-5-5c0.2-2.3-0.1-6.6,1.8-6.1
	c6.8,1.7,12.1-6.4,20.1-1.1c6.9,4.5,9.9,8.7,9.9,16.7c0,6.4-0.8,12.7,1.6,19.5c3.2,8.8-1.6,13.2-10.9,9c-2.6-1.2-3.3,0.8-4.6,1.5
	c-10.7,5.4-17.2-0.7-20.5-9.2c-4.1-10.3,1.8-17.7,13.6-19.5C2129.6,531.6,2133.1,533.1,2136.5,528.8z"/>
<path fill="#656769" d="M2247.7,538c-0.1,12.6-11.7,26.1-22.1,25.6c-9.5-0.5-21.3-15.3-20.9-26.3c0.4-11.7,12.5-25.7,21.8-25.4
	C2236.1,512.3,2247.8,526.6,2247.7,538z M2221.7,537.8c0.8,4.9-2.1,12.8,4.4,12.8c4.9,0,7.8-7.5,7-13.4c-0.6-4.6-0.7-11.5-7.7-10.6
	C2218.1,527.5,2223.5,534.3,2221.7,537.8z"/>
<path fill="#656769" d="M1385.2,412c0,4.3-0.4,8.6,0.1,12.9c0.7,6.4-2.9,6.7-7.8,6.7c-4.8,0-7-1.2-6.7-6.4
	c0.3-6.2,0.4-12.4-0.1-18.6c-0.3-3.5,2.9-9.8-4.5-9.4c-7.1,0.4-3.5,6.5-3.8,10.1c-0.6,5.7-0.5,11.5-0.1,17.2
	c0.4,5.7-1.9,7.2-7.4,7.2c-5.7,0-7-2-7.3-7.4c-0.6-10.7,2.4-21.6-2.1-32.2c-1.5-3.4,2.2-5.7,5.8-6.5
	C1377.2,379.6,1385.2,385.8,1385.2,412z"/>
<path fill="#656769" d="M1439.8,537.9c0-14.4,8.9-26.4,19.2-26c10.1,0.5,20.8,13.2,21,25.1c0.3,13.1-9.8,26-20.8,26.5
	C1448.8,564.1,1439.8,552.2,1439.8,537.9z M1465.6,537.7c0.5-5.8-0.1-11.9-7.3-11c-7.9,1-3.2,8.2-3.9,12.6
	c-0.6,4.3-1.7,11.7,3.9,11.5C1464.1,550.5,1466.9,544,1465.6,537.7z"/>
<path fill="#656769" d="M1235.7,537.9c0,14.7-8.2,25.3-19.8,25.7c-11.9,0.3-20.5-10.9-20.4-26.5c0.1-14.5,9.1-25.4,20.6-24.9
	C1227.7,512.5,1235.7,523.1,1235.7,537.9z M1209.2,538.4c3.3,2.8-3.8,10.5,5.9,10.9c9.5,0.4,6.3-6.7,5.9-10.7
	c-0.5-4.3,4.8-12.4-5.7-12.3C1205.8,526.4,1211.6,533.9,1209.2,538.4z"/>
<path fill="#656769" d="M1431.2,409.6c0-16.9,5.5-23.1,18.3-24.4c13.2-1.3,21.3,8.6,21.9,22.8c0.7,15.4-8,25.9-20.9,26.3
	C1440.3,434.6,1431.2,422.8,1431.2,409.6z M1457,408.6c0.3-6-0.1-12.2-7.4-11.3c-7.9,1-3.2,8.2-3.9,12.6c-0.6,4.3-1.7,11.7,3.9,11.5
	C1455.5,421.1,1458.3,414.7,1457,408.6z"/>
<path fill="#656769" d="M2067.1,385.4c13.9,0.1,19.6,6.7,19.6,22.9c0,14-8.2,25.6-18.4,26c-13.1,0.5-22-10.6-21.8-27
	C2046.7,391.6,2052.5,385.3,2067.1,385.4z M2072.4,407.9c-1.8-3.5,3.9-10.9-5.6-11c-10.6-0.1-5.1,8-5.7,12.3
	c-0.7,5.1-2.1,13.4,5.9,12.9C2074.5,421.7,2071.9,413.6,2072.4,407.9z"/>
<path fill="#656769" d="M1776.2,408.2c0-17.1,4.8-22.9,19.1-22.7c12.1,0.1,21,9.7,21.1,22.7c0.1,13.1-10.3,26-21.2,26.2
	C1784.9,434.4,1776.2,422.6,1776.2,408.2z M1790.4,408.1c0.8,5-2,13,4.3,13.3c5.4,0.3,8.1-6.6,7.5-13.1c-0.4-5.4,0-11.5-7.4-11.1
	C1786.6,397.6,1792.4,404.7,1790.4,408.1z"/>
<path fill="#656769" d="M1707.2,540.4c0,4.8-0.3,9.5,0.1,14.3c0.4,5.2-2.2,6.2-6.8,6.3c-5,0-8.2-0.5-7.8-6.8
	c0.5-7.1-0.1-14.3,0.2-21.4c0.2-4.9-1.5-6.7-6.5-6.5c-4.9,0.1-5.1,2.9-5.1,6.5c0.1,6.7,0,13.3,0,20c0,4.3,0.8,8.5-6.2,8.3
	c-6.1-0.2-5.1-3.9-5.4-7.7c-0.9-11.1,2.3-22.6-2.7-33.5c-1.4-3.1,1-5.8,4.6-4.9c9.7,2.4,19.7-5.2,29.1,0.9
	C1706.8,519.6,1707.2,522.1,1707.2,540.4z"/>
<path fill="#656769" d="M870.6,409.6c0,4,0.2,7.4,0,10.7c-0.3,5.1,2.6,11.6-7.5,11.3c-10.5-0.3-6.1-7.4-6.7-12.1
	c-0.6-4.7,0.2-9.6-0.2-14.3c-0.3-3.2,2.4-8.5-4.3-8.3c-5.4,0.2-7.2,3.7-7.1,8.7c0.1,6.2-0.1,12.4,0.1,18.6c0.1,4.2-0.1,7.2-5.8,7.2
	c-5.9,0-5.6-3.3-5.7-7.4c-0.3-10.8,1.5-21.7-2.7-32.2c-0.8-2.1-1.2-6.4,3.1-6.4c10-0.1,20.6-1.8,29.7,1
	C874.5,390.1,869.7,401.8,870.6,409.6z"/>
<path fill="#656769" d="M1425.9,391.1c-1.3,1.5-2.4,3.6-4.2,4.9c-11.6,8.6-11.1,16.5,1.1,24.2c5,3.2,4.1,7.7-0.2,11.2
	c-8.6,6.9-20.9,1.4-23-9.9c-1.7-9.3,5.9-21.6-8.4-27.1c-0.5-0.2-0.7-3.6-0.1-4c7.3-4.5,7.5-14.9,15.6-18.5c2.5-1.1,7-1.8,6.9,1.7
	c-0.2,8.2,1.4,13.6,11,13.1C1424.9,386.6,1425.3,389,1425.9,391.1z"/>
<path fill="#656769" d="M2040.9,388.9c-0.4,4.3,0.7,8.2-3.8,7.9c-12.3-0.8-6.9,8.4-7.8,13.7c-0.9,5.4-0.9,10.6,7.4,9.6
	c5.2-0.6,4.4,5.2,6.5,7.9c1.1,1.4-0.7,3.3-3,3.4c-5.7,0.3-11.1,6.2-17.2,1c-4.1-3.4-7.2-8-7.9-12.9c-1.2-9.2,0-18-5.1-27.3
	c-2.5-4.7,3.7-15,10.8-19.8c1.4-1,5.1-1.3,5.1-1.2C2028.5,379.5,2032.3,386.7,2040.9,388.9z"/>
<path fill="#656769" d="M1195.1,386.2c1.4,10.6-15.6,10.6-11.4,22.6c1.7,4.7-1.8,11.5,7.3,11.9c2.7,0.1,4.3,3.3,4.4,6.5
	c0.1,4.2-3,3.5-5.6,4.5c-13,4.8-19.2,0.6-20.6-12.6c-0.9-8.4,6.4-20.2-8.1-24.3c-0.4-0.1-0.8-3.1-0.1-4c4.5-6.1,8.9-12.3,14-17.8
	c4.1-4.4,8.4,0,8.2,3C1182.5,385.5,1188.7,386,1195.1,386.2z"/>
<path fill="#656769" d="M1644.8,500.5c1.9-0.1,4.6-0.2,4.5,2.1c-0.2,7.8,0.8,12.7,10.7,13.9c3.3,0.4,0.4,8.2-5.1,9.7
	c-11.2,3.2-3.6,11.9-4.9,17.8c-1.5,7.1,3.9,5.6,8.3,4.2c4.5-1.5,2.9,2.5,2.7,3.8c-0.5,3.1,2.3,6.9-3.6,9.1
	c-10.4,3.8-20.6-1.7-22.2-12.7c-1.2-8.1,4-17-5.1-24.6C1625.4,519.8,1638,500.6,1644.8,500.5z"/>
<path fill="#656769" d="M1005.6,450.1c1.2-3,1.9-6.3,3.6-8.9c2.4-3.7,10.6,2.7,10.8-5.6c0.2-11.9,0-23.8,0-35.8
	c0-0.4-0.3-1.2-0.5-1.2c-6.3-1.3-10.9-5.6-7.3-11.2c3.2-4.9,10.7-1.2,16.2-2c5.3-0.8,6.3,2.1,6.3,6.7c-0.2,13.8,1.1,27.8-0.4,41.5
	C1032.5,449.2,1025.4,455.3,1005.6,450.1z"/>
<path fill="#656769" d="M1803.2,549.3c3.9,0,7.6-0.3,11.3,0.1c2.9,0.3,7.3-2,7.6,3.6c0.3,4.5-2.1,7.1-6.5,7.8c-0.5,0.1-1,0.1-1.4,0
	c-9.6-1.1-22.8,4.7-28.1-2.8c-5.6-7.9,8.5-13.9,11.2-22.2c1.1-3.4,6.2-4.4,6.5-9.5c-3.4,0-6.7-0.1-9.9,0c-3.8,0.2-6.2-0.4-6.3-5.2
	c-0.1-5.2,1.9-6.9,6.7-6.3c9.2,1.2,21.9-4.6,26.8,2.7c5.5,8.2-8.4,14-11.2,22.3C1808.7,543.2,1803.7,544.2,1803.2,549.3z"/>
<path fill="#656769" d="M1894.1,544.1c0,7.7,0.5,15.4-0.1,23c-1,11.7-11.8,17.8-22.5,13.9c-3-1.1-3.2-2.9-3.2-5.3
	c0-2.8-0.4-6.5,3.8-6c8.2,1,7.9-4.1,7.7-9.7c-0.2-8.1,0-16.3-0.1-24.4c0-2.8,0.5-7.1-1-8.1c-3.6-2.6-10-3.6-5.7-9.6
	c4.3-6.1,11.6-3,17.4-2.6c6.7,0.4,3.2,6.7,3.5,10.3C1894.5,531.6,1894.1,537.9,1894.1,544.1z"/>
<path fill="#656769" d="M1747.8,397.3c3.5,7.5,11.5,5.1,15.6,10.5c4.4,5.8,5.9,11.5,3.1,16.9c-3,5.7-9.2,9.9-16.2,9.2
	c-4.8-0.5-9.3-3.8-14-5.3c-4.3-1.4-3.5-3.5-1.5-6.2c1.5-2,1.4-6.5,6.1-3c1.9,1.4,5.2,0.6,7.7,2.7c2.2,1.8,4.6-0.2,5.8-2.3
	c2-3.7-1.5-4.9-3.7-5.5c-6.3-1.6-13.5-2.1-14.6-10.3c-0.8-6-1.7-12.9,5.1-16.5c7.5-4.1,15.5-2.7,23.2-0.8c1.3,0.3,3.1,3.2,2.7,4.3
	c-0.6,2-2.4,4.7-4.1,5.1C1758.5,397.2,1753.7,397,1747.8,397.3z"/>
<path fill="#656769" d="M1414.1,548.9c7.3,0.3,13.4,0.6,20.1,0.9c-1.5,7.1-3.4,12-11.6,11.1c-5.7-0.6-11.5,0.1-17.2-0.2
	c-2.9-0.2-7.2,2.1-8.4-2.6c-0.9-3.7-0.5-7.1,2.6-10.4c5.3-5.8,9.8-12.2,14.5-18.2c-2.3-4.9-6.1-3-9-3c-4.6,0.1-5.5-1.9-5.6-6
	c-0.2-4.5,1.6-5.9,5.8-5.7c3.8,0.2,7.7-0.4,11.5,0.1c4.8,0.7,11.5-3,13.9,2.7c2.6,6-1.8,11.5-5.7,16.4
	C1421.4,538.6,1418,543.6,1414.1,548.9z"/>
<path fill="#656769" d="M1747.5,537.2c0.1-18.2,11.6-27.7,26.9-22.5c4.3,1.5,8.7,2,6.6,8c-1.4,4.2-3.5,6.3-8.7,3.9
	c-3.4-1.6-8.3-0.5-9.6,3.7c-1.9,5.9-2.3,12.6,0.3,18c1.3,2.6,7.1,4.2,10.9,0.9c3.9-3.3,4.4-0.3,6.3,2.4c3.5,4.9,0.4,7-2.9,8.8
	C1761.8,568.9,1747.3,557.5,1747.5,537.2z"/>
<path fill="#656769" d="M974.1,410c0-20,7.8-27.2,26.4-24.6c4.8,0.6,8.9,1.8,7.3,7.5c-0.9,3.2-2,6.4-8.2,4.6
	c-10.1-3-11.4,4.6-11.1,12.7c0.2,7.1,0.4,13.3,10.3,10.2c4.3-1.4,8.2,0.2,9.4,4.1c1.4,4.6-2.9,5.7-6.5,7.4
	C987.8,438.2,974.1,427.6,974.1,410z"/>
<path fill="#656769" d="M1373.9,537.7c-1.1,10.5,1.8,16.4,12.8,10.9c4.8-2.4,3.8,0.2,4.4,3c0.8,3.4,3.2,6.3-1.8,8.9
	c-13.8,7.1-28.3-1.4-30.5-18.5c-1.2-9.2,0.4-18.3,8.1-24.4c5.8-4.6,12.7-6.3,20.3-2.9c3.6,1.6,7.8,2.7,5.8,7.5
	c-1.2,3-2.2,6.9-8.6,4.5C1374.8,523.2,1372.1,529.4,1373.9,537.7z"/>
<path fill="#656769" d="M1254.6,513.4c3.8,10.4,7.3,0.9,11.4-1c3.6-1.6,5.5,2.8,8.6,3.2c-2.3,3.1,0.4,10.3-4.1,10.1
	c-13-0.5-7.5,8.7-9,14.4c-1.9,7.2,6,20.4-8.2,20c-12.6-0.4-3.9-12.5-5.9-19c-1.6-5.2,0.4-10.7-2.3-16.5
	C1241.7,517.8,1248.1,514.9,1254.6,513.4z"/>
<path fill="#656769" d="M2088,512.2c4.3,6.4,8.9,3.2,14.1,1.1c2-0.8,7.2,0.7,7.2,4.1c-0.1,3.1-1.8,8.8-5.3,8.5
	c-11.8-0.9-8.3,7.3-8.6,13.1c-0.3,4.8-0.3,9.6,0,14.3c0.3,5.2-0.9,7.8-6.9,7.6c-5.2-0.2-7.5-0.9-7.7-7c-0.3-11.3,1.7-22.6-1.3-33.8
	C2078,514.3,2085.6,515.7,2088,512.2z"/>
<path fill="#656769" d="M1589.3,409.7c0,4.7-0.2,9.5,0.1,14.2c0.3,5.1-0.8,7.6-6.8,7.7c-6.7,0.2-8.1-2.4-7.7-8.3
	c0.4-5.2,0.4-10.5,0-15.6c-0.4-4.3,3.2-10.9-6.1-11.2c-3.5-0.1-2.3-4.5-2.3-7.2c-0.1-4.3,3.2-3.6,5.9-4
	C1589.3,383.1,1589.3,383.1,1589.3,409.7z"/>
<path fill="#656769" d="M1071.8,538.7c0,5.2-0.4,10.5,0.1,15.7c0.6,6.5-3.2,6.5-7.9,6.6c-4.8,0.1-6.9-1.3-6.6-6.4
	c0.3-6.6,0.1-13.3,0-19.9c0-2.7,0.8-7.7-1.5-7.7c-8.4-0.2-9.2-6.8-6.3-10.2c4.1-4.7,11.6-1.7,17.6-1.8c7.4-0.1,4.1,6,4.5,9.5
	C1072.2,529.2,1071.8,534,1071.8,538.7z"/>
<path fill="#656769" d="M2336.8,539c0,5.2-0.3,10.5,0.1,15.7c0.3,5.2-2.1,6.3-6.8,6.2c-4.9,0-8.3-0.3-7.8-6.7
	c0.5-5.7,0.5-11.4,0-17.1c-0.4-4.3,3.3-11-6-11.2c-3.6-0.1-2.3-4.5-2.4-7.1c-0.2-4.3,3-3.7,5.8-4.1
	C2336.8,512.4,2336.8,512.3,2336.8,539z"/>
<path fill="#656769" d="M1347.8,538.4c0,5.2-0.4,10.5,0.1,15.7c0.5,6-2.4,6.8-7.5,7c-5.9,0.1-7.3-2.3-7-7.5c0.3-6.6,0.2-13.3,0-19.9
	c-0.1-2.5,1.3-6.8-2.6-6.9c-6.7-0.2-7.4-4.7-5.6-8.4c3.5-7.3,10.8-2.2,16.3-3.3c4.9-1,6.7,1.5,6.4,6.4
	C1347.6,526.9,1347.8,532.7,1347.8,538.4z"/>
<path fill="#656769" d="M1736,538.2c0,5.2-0.3,10.5,0.1,15.7c0.5,5.8-2,7-7.4,7.1c-5.7,0.1-6.7-2.1-7.3-7.3
	c-1.2-10.7,5.6-23.3-7.5-31.7c-2.9-1.8-1.6-6.4,4.1-7.3c15.3-2.3,17.9-0.4,17.9,15C1736,532.5,1736,535.4,1736,538.2z"/>
<path fill="#656769" d="M1100.6,538.4c0,4.7,0,9.5,0,14.2c0,4.2,0.9,8.5-6.1,8.3c-7.3-0.2-5.2-5.2-5.4-8.9
	c-0.2-6.2,0.1-12.3-0.1-18.5c-0.1-2.5,1.3-6.7-2.6-6.9c-6.7-0.2-7.2-4.6-5.6-8.5c2.5-6.4,8.9-2.4,13.5-3.3c5-1,6.6,1.6,6.4,6.4
	C1100.4,527,1100.6,532.7,1100.6,538.4z"/>
<path fill="#656769" d="M1499.3,544.4c-4.5-3.3-14.1,4.5-13.3-7.2c0.7-11.3,9.9-7.8,16.1-7.7c4.9,0.1,13-4.3,12.6,7.1
	C1514.2,550.2,1503.7,540,1499.3,544.4z"/>
<path fill="#656769" d="M1094.5,494.6c6.5,0,9,3,9,8.9c-0.1,6-3.1,8.5-8.9,8.4c-6-0.1-8.5-3-8.4-8.9
	C1086.2,497,1089.3,494.5,1094.5,494.6z"/>
<path fill="#656769" d="M2337,505c0.2,2.5-1.3,6.6-6.6,6.8c-5.9,0.2-10.1-3.9-10.1-9.2c0-2.5,1.2-8.4,7.5-8
	C2333.4,494.9,2336.7,496.8,2337,505z"/>
<path fill="#656769" d="M1212.3,510.6c-2.8,0.3-5.7-1.7-5-4.3c2.4-8.1,10.3-10.1,17-12.8c4.2-1.7,4.9,4.8,4.8,5.6
	C1228.4,509.2,1218.7,507.1,1212.3,510.6z"/>
<path fill="#656769" d="M1339.6,512c-4.1-1.6-9-4.5-8.4-9.2c0.5-4.1,4.5-8.5,10.1-8c5.3,0.5,6.7,4.2,6.5,9.1
	C1347.7,509,1345.4,511.7,1339.6,512z"/>
<path fill="#656769" d="M1065.4,512c-5.6-0.2-9.7-4.1-10.2-8.2c-0.5-4.6,3.9-8.5,9.1-9c5.3-0.5,7.4,2.9,7.6,7.9
	C1072.1,507.6,1070.4,510.9,1065.4,512z"/>
<path fill="#656769" d="M1727.6,494.5c6.1,0.5,10.4,4.2,10.6,8.5c0.3,4.5-4.1,8.4-9.3,8.8c-5.4,0.3-7.2-3.2-7.4-8.2
	C1721.3,498.5,1723.6,495.8,1727.6,494.5z"/>
<path fill="#656769" d="M1887.6,512c-5.8-0.4-7.9-3.4-8-8.4c-0.1-4.9,1.5-8.6,6.8-8.8c5.5-0.2,9.6,4,9.9,8.2
	C1896.7,507.6,1892,510.7,1887.6,512z"/>
</svg>
