<?xml version="1.0" encoding="utf-8"?>
<!DOCTYPE svg PUBLIC "-//W3C//DTD SVG 1.1//EN" "http://www.w3.org/Graphics/SVG/1.1/DTD/svg11.dtd">
<svg version="1.1" id="Warstwa_1" xmlns="http://www.w3.org/2000/svg" xmlns:xlink="http://www.w3.org/1999/xlink" x="0px" y="0px"
	 viewBox="0 0 2500 2500" enable-background="new 0 0 2500 2500" xml:space="preserve">
<path fill="#656669" d="M900,2272.9c-3.9,0-7.1-1.3-9.8-3.7c-1.2-1.1-2.3-2.3-3.5-3.5C751.3,2132.1,616,1998.4,480.5,1865
	c-8-7.9-10.1-15.2-7.2-26.2c42.9-162.7,85.3-325.5,128.1-488.3c2.2-8.4,0.1-14.2-5.8-20.1c-117-115.1-233.8-230.4-350.6-345.6
	c-2.7-2.6-5.3-5.4-8-7.9c-7-6.4-8.5-14.1-6.1-23.1c19.9-75.8,39.7-151.7,59.4-227.5c28.4-108.8,56.8-217.5,85-326.4
	c2.3-8.8,6.7-13.4,15.5-15.8c156.4-42.8,312.8-85.8,469.1-128.7c27.4-7.5,54.9-14.7,82.1-22.8c10.1-3,17.1-1,24.5,6.3
	c119.4,118.4,239,236.5,358.5,354.7c0.8,0.8,1.7,1.6,2.5,2.5c5.4,5.6,11.7,7.1,19.3,4.9c31.4-8.8,62.9-17.4,94.3-26.1
	c132.1-36.4,264.3-72.7,396.4-109.3c9-2.5,15.4-0.6,22.1,6c134.5,133.2,269.1,266.2,403.8,399.2c4.2,4.1,9.4,8,11.3,13.3
	c1.9,5.2-1.7,10.8-3.1,16.2c-35.4,136-70.9,272.1-106.4,408.1c-12,46.1-24.1,92.2-36.1,138.3c-0.4,1.4-0.8,2.7-1.1,4.1
	c-1.9,8.4-7.2,13.2-15.5,15.5c-44.2,12-88.3,24.2-132.4,36.3c-119.7,32.8-239.4,65.6-359.2,98.5c-1.4,0.4-2.7,0.8-4.1,1.2
	c-7,1.8-11.1,6.3-12.9,13.4c-4.9,19.3-10.1,38.6-15.1,57.9c-37.3,143.1-74.6,286.1-111.9,429.2c-0.3,1.1-0.8,2.2-1,3.4
	c-1.3,7-5.7,11-12.5,12.8c-15,4-29.9,8.1-44.8,12.2c-170.6,46.9-341.2,93.7-511.9,140.6C904.4,2272.3,902.2,2273.2,900,2272.9z
	 M2162,918.7c-0.1-3.7-0.9-6.4-2.9-8.5c-1.6-1.7-3.3-3.4-4.9-5c-108.5-107.2-217.1-214.5-325.6-321.7c-0.8-0.8-1.7-1.6-2.5-2.5
	c-3.8-4-8.4-4.9-13.6-3.4c-1.8,0.5-3.6,1-5.4,1.5c-124.4,34.2-248.9,68.4-373.3,102.6c-18.1,5-36.1,10.2-54.3,14.9
	c-7.2,1.9-11.5,5.9-12.8,13.2c-0.2,1.2-0.6,2.3-0.9,3.4c-33.1,126.4-66.2,252.9-99.3,379.3c-5.5,20.9-10.8,41.8-16.5,62.6
	c-1.7,6.4-0.3,11.5,4.5,15.9c1.2,1.1,2.3,2.3,3.5,3.5c108.3,106.8,216.5,213.7,324.8,320.5c2.3,2.3,4.9,4.4,7.3,6.7
	c1.7,1.5,3.4,2.3,5.7,1.3c1.7-0.7,3.6-0.9,5.4-1.4c143-39.2,286.1-78.4,429.1-117.4c7.9-2.2,12.2-6.3,14.3-14.4
	c38.6-148.3,77.4-296.5,116.1-444.8C2161.3,922.5,2161.6,920.2,2162,918.7z M583.9,1818.7c-0.5,5.7,3.1,9.1,6.7,12.6
	c108.4,107,216.9,214,325.3,321c9.4,9.3,9.5,9.2,22,5.8c147.1-40.3,294.2-80.7,441.3-120.9c8.3-2.3,12.5-6.8,14.6-15
	c37-142.1,74.2-284.3,111.5-426.3c2.4-9,0.7-15.5-6-22.1c-107.9-106.2-215.6-212.6-323.2-319.1c-5.8-5.8-11.8-7.3-19.7-5.1
	c-148.2,40.8-296.4,81.4-444.7,121.9c-9,2.5-13.8,7.6-16,16.5c-11,43-22.2,85.9-33.4,128.8c-25.7,98.3-51.4,196.6-77.2,294.9
	C584.5,1814.1,583.9,1816.3,583.9,1818.7z M673.4,1259.8c1.9-0.4,4.6-0.9,7.3-1.7c148.9-40.9,297.8-81.8,446.8-122.5
	c7.9-2.2,12-6.3,14.2-14.5c37.9-145.8,76-291.6,114.4-437.3c2.5-9.4,0.7-15.9-6.2-22.6c-68.3-67.1-136.3-134.3-204.4-201.6
	c-36.8-36.3-73.7-72.6-110.4-109.1c-6-5.9-11.3-8-20.3-5.4c-62.1,17.6-124.4,34.4-186.7,51.4c-84.7,23.2-169.3,46.5-254,69.5
	c-9,2.4-13.7,7-16.1,16.2c-28.3,109-56.9,218-85.4,327c-10.1,38.6-20.1,77.2-30.4,115.8c-2.2,8-0.8,14,5.5,19.5
	c6.4,5.5,12.3,11.7,18.3,17.6c97.7,96.5,195.4,193,293.1,289.4c1.8,1.8,3.7,3.6,5.7,5.3C667,1258.6,669.5,1259.8,673.4,1259.8z"/>
<path fill="#656669" d="M2032.6,2130.4c1.7-3.7,1.2-6.3,1.2-8.7c0-61.1,0-122.3,0-183.4c0-3.8,0.1-7.5,0.4-11.3
	c1.5-15.2,14.3-24.3,29.1-20.8c3.6,0.9,5.8,3,6.1,6.7c0.2,2.1,0.2,4.2,0.2,6.3c0,79.5,0,158.9,0,238.4c0,4.9-0.2,9.9-1.5,14.7
	c-2.7,9.9-8.7,16.3-18.8,19c-4.9,1.3-9.8,1.5-14.7,1.1c-6.3-0.6-10.9-4.1-13.8-9.7c-4.9-9.1-9.7-18.3-14.5-27.4
	c-31.1-58.2-62.1-116.4-93.2-174.6c-1.9-3.5-3.5-7.1-6.9-10c-2,2.6-1.1,5.2-1.1,7.5c-0.1,59.3,0,118.5-0.1,177.8
	c0,6.3,0.2,12.7-1.4,18.9c-3.1,12.3-13.3,19.4-25.7,17.8c-6.2-0.8-9.6-4.5-9.8-10.8c-0.1-3.1,0.1-6.1,0.1-9.2
	c0-73.4,0-146.7,0-220.1c0-7.1,0.4-14.1,1.3-21.1c2.6-20.4,19.3-30.8,39.1-24.5c2.9,0.9,5.1,2.4,6.6,4.9c1.7,2.8,3.4,5.6,5,8.5
	c35.6,66.5,71.1,132.9,106.7,199.4C2028.5,2122.9,2030.2,2126,2032.6,2130.4z"/>
<path fill="#656669" d="M1682.8,2032.6c3.9-1.8,5.1-4.1,6.7-6.1c29.4-35.8,58.8-71.5,88.2-107.4c6.8-8.3,15-13.4,25.9-13.7
	c5.5-0.2,10.8,0.7,15.6,3.4c4.5,2.6,5.2,5.4,2.3,9.9c-1.5,2.4-3.4,4.5-5.2,6.6c-26.4,31.3-52.7,62.5-79.1,93.8
	c-9.3,11-9.4,11.6-1.3,23.7c24.7,36.9,49.5,73.7,74.3,110.6c6.3,9.4,13.5,18,21,26.5c6.1,6.9,5.5,8.6-3.1,11.3
	c-16.6,5.2-34.2-0.3-44.7-14.1c-2-2.6-3.8-5.4-5.6-8.1c-21.8-32.7-43.5-65.3-65.2-98c-2.5-3.7-5-7.3-8.1-11.6
	c-7.2,8-13.9,15.7-19.9,24c-1.9,2.6-1.6,5.8-1.6,8.9c0,23.3,0,46.6,0,69.8c0,3.5-0.1,7-0.8,10.5c-2.9,14.3-16.2,22.5-30.3,18.7
	c-3.7-1-5.7-3-5.9-6.8c-0.1-2.1-0.3-4.2-0.3-6.3c0-78.1,0-156.1-0.1-234.2c0-5.9,0.2-11.8,1.1-17.6c2-12.6,11.7-21,23.8-20.5
	c8.1,0.3,11.6,3.6,12.2,11.5c0.1,1.9,0.1,3.8,0.1,5.6c0.1,33.6,0.1,67.2,0.2,100.9C1682.8,2026.5,1682.8,2029.1,1682.8,2032.6z"/>
<path fill="#656669" d="M2169.2,2042.1c0,40,0,79.9,0,119.9c0,4.9-0.2,9.8-1.8,14.6c-4.7,14.5-20.1,17.4-30.5,14.3
	c-2.8-0.8-4.3-2.9-4.7-5.6c-0.3-2.3-0.3-4.7-0.3-7c0-78.5,0-157.1,0-235.6c0-6.1,0.2-12.2,1.4-18.2c2.5-12.3,13.9-20.2,26.1-18.4
	c5.8,0.9,8.7,3.9,9.2,9.7c0.2,2.1,0.1,4.2,0.1,6.3c0,40,0,79.9,0,119.9C2168.9,2042.1,2169,2042.1,2169.2,2042.1z"/>
<path fill="#656669" d="M2233.1,2054.1c0-39.5,0-78.9,0-118.4c0-4.7-0.1-9.4,1.4-13.9c3.9-11.7,18-18.7,29.7-14.7
	c3.4,1.1,4.9,3.5,5.5,6.7c0.3,2.1,0.2,4.2,0.2,6.3c0,78.7,0,157.4,0,236.1c0,5.9-0.2,11.8-1.4,17.5c-2.5,12-14.4,20.3-26.2,18.4
	c-6.3-1-8.5-3.4-9-9.7c-0.1-1.9-0.1-3.8-0.1-5.6c0-40.9,0-81.8,0-122.6C2233.2,2054.1,2233.2,2054.1,2233.1,2054.1z"/>
<path fill="#656669" d="M1779.5,1247.6c1.6,3.3,2.5,6.6,2.5,10.2c0,8.7,0.1,17.4,0,26.1c-0.1,7.9-2.7,11.4-10.4,13.9
	c-8.5,2.7-17.3,4.4-26.2,5.6c-35.7,4.8-71.5,4.3-106.3-5.2c-92.6-25.2-156-83.3-190.5-172.7c-12.6-32.6-17.4-66.7-16.2-101.6
	c0.8-23.9,6-46.9,12.8-69.7c21.4-71.9,66.9-123.9,131.6-160c19-10.6,39.6-17,60.2-23.7c12.6-4.1,25.5-6,38.8-5.9
	c17.6,0.2,35.3,0.2,52.9-0.4c17.1-0.5,33.7,1.9,49.8,7.6c26.6,9.5,52.4,20.6,76.2,36.1c50.7,33.2,85.6,78.9,106.6,135.5
	c12.1,32.6,16.9,66.4,15.2,101.1c-1,20.5-5,40.5-8.7,60.6c-0.7,3.7-2.3,7.2-4.3,10.4c-2.5,3.9-4.1,4.2-8.2,2.1
	c-12-6.3-17.3-17.2-14.6-30.6c1.8-8.7,4.3-17.3,5.2-26.2c0.9-9-0.6-10.8-9.9-10.9c-14.6-0.1-29.2-0.2-43.7,0.1
	c-4.6,0.1-8.1-1.2-11.5-4.1c-8.4-7.2-17.1-14-25-21.8c-4.6-4.6-6.7-9.8-7.6-16.1c-4-26.7-7.9-53.4-13.9-79.8c-3-13.2-4.3-14-17.5-14
	c-28,0-56,0-83.9,0c-2.1,0-4.2-0.1-6.3,0.1c-4.3,0.4-5.7,1.9-6.3,6.2c-0.2,1.6-0.1,3.3-0.1,4.9c0,27,0,54.1,0,81.1
	c0,12.1,1.1,13.2,13.3,13.3c12.2,0,24.5-0.1,36.7,0c8.8,0.1,11.1,2.4,11.8,11.3c0.2,2.6,0.2,5.2,0,7.7c-0.7,7.5-3.8,10.5-11.3,10.7
	c-7,0.2-14.1,0.1-21.2,0.2c-6.6,0-13.2,0-19.7,0c-8.5,0.1-9.4,0.9-9.4,9.3c-0.1,25.4-0.1,50.8-0.1,76.2c0,3.1-0.1,6.1,0,9.2
	c0.4,6.6,2,8.4,8.6,8.5c11.3,0.2,22.6,0,33.8,0.2c3.3,0,6.6,0.3,9.8,0.8c5.8,0.9,8.2,3.3,9.2,9.1c0.7,3.7,0.7,7.5,0.1,11.2
	c-1,6.2-3.9,9-10.3,9.6c-8.9,0.7-17.8,0.7-26.8,0.5c-5.4-0.2-10.8-0.5-16.2-0.4c-6.2,0.1-7.9,1.9-8.3,7.9c-0.1,1.9-0.1,3.8-0.1,5.6
	c0,22.1,0,44.2,0,66.3c0,1.6-0.1,3.3,0,4.9c0.4,6.2,2.5,7.5,8.1,4.6c11.9-6.2,23.6-12.6,35.4-19c4.5-2.5,8.8-5.4,14-6.4
	C1778,1247.7,1778.7,1247.7,1779.5,1247.6z M1623.9,1019.9C1623.9,1019.9,1623.9,1019.9,1623.9,1019.9c16.9,0,33.8,0,50.8-0.1
	c2.3,0,4.7,0,7-0.2c5.5-0.6,6.8-2,7.5-7.4c0.2-2.1,0.4-4.2,0.4-6.3c-0.5-26.1-0.5-52.2,0-78.2c0-2.1-0.1-4.2-0.4-6.3
	c-0.7-5-2.2-6.5-7.1-7c-1.6-0.2-3.3-0.2-4.9-0.2c-29.4,0-58.7,0-88.1,0c-8.8,0-10.5,1.3-12.9,9.7c-5.4,18.7-9.9,37.7-12.5,57
	c-1.4,9.8-2.4,19.6-3.1,29.4c-0.6,7.7,1.3,9.4,9.2,9.7c1.6,0,3.3,0,4.9,0C1591,1019.9,1607.5,1019.9,1623.9,1019.9z M1624.7,1050.1
	c0-0.1,0-0.1,0-0.2c-17.2,0-34.3,0-51.5,0c-2.6,0-5.2,0.1-7.7,0.5c-3.5,0.5-5.4,2.6-5.3,6.3c0.1,1.6,0.1,3.3,0.3,4.9
	c3.1,27.3,7.6,54.4,15.7,80.7c3.1,10.2,4.1,11.2,14.6,11.2c28.4-0.1,56.9-0.2,85.3-0.3c12.1,0,13.6-1.3,13.4-13.3
	c-0.5-25.9-0.4-51.7-0.3-77.6c0.1-11.7-0.4-12.2-12.3-12.3C1659.5,1050,1642.1,1050.1,1624.7,1050.1z M1913,1019.5
	c0,0.1,0,0.2,0,0.3c3.8,0,7.5,0,11.3,0s7.5,0.1,11.3,0.1c9.3,0,11.6-2.8,10.1-12.1c-0.8-5.1-2.3-10.1-2.9-15.2
	c-3.1-24-11.1-46.4-21.6-68.1c-3.3-6.9-8.1-10.5-15.9-10.3c-8.2,0.2-16.4-0.1-24.7-0.1c-3.8,0-7.5-0.1-11.3,0.1
	c-6.2,0.3-7.6,2.1-6.2,7.9c0.4,1.6,0.9,3.2,1.4,4.7c2.3,7.6,4.2,15.4,5.2,23.3c2.6,19.1,5,38.2,7,57.3c1,9.3,3.7,11.8,13.1,12
	C1897.5,1019.6,1905.2,1019.5,1913,1019.5z M1495.8,1019.9C1495.8,1019.9,1495.8,1019.9,1495.8,1019.9c7.8,0,15.5,0,23.3,0
	c9.7,0,11.2-1.3,12.4-11.1c0.3-2.8,0.5-5.6,0.6-8.4c0.6-11.5,1.9-22.9,4-34.3c2.9-15.2,6-30.4,8.9-45.6c0.9-4.4,0.2-5.4-4-6
	c-1.2-0.2-2.3-0.1-3.5-0.1c-12,0-24,0.1-36-0.1c-5.6-0.1-9.3,2.2-11.9,7c-4,7.5-7.7,15.1-10.8,22.9c-8.5,21.3-13,43.6-16.8,66.1
	c-1.2,6.7,0.9,9.3,7.7,9.5C1478.4,1020,1487.1,1019.9,1495.8,1019.9z M1519,1153.2c0,0,0-0.1,0-0.1c2.6,0,5.2,0,7.7,0
	c2.8,0,5.6,0.1,8.5,0.1c10.2-0.1,11.4-1.7,9.1-11.8c-0.1-0.5-0.3-0.9-0.4-1.3c-4.4-18.2-8.8-36.5-11-55.2c-1-8.9-1.4-17.8-1.7-26.7
	c-0.2-6.2-1.9-7.8-8-8.2c-0.9-0.1-1.9,0-2.8,0c-16.2,0-32.4,0-48.6,0c-1.4,0-2.8-0.1-4.2,0.1c-4.2,0.6-5.7,2.4-5.5,6.6
	c0.1,2.1,0.7,4.2,1,6.3c4.1,28.5,12.7,55.7,25.2,81.7c2.9,6,7.3,8.8,13.9,8.6C1507.7,1153,1513.3,1153.2,1519,1153.2z
	 M1689.9,1230.8c0-12.2,0.2-24.4-0.1-36.7c-0.1-8.3-2.4-10.4-10.7-10.4c-10.1-0.1-20.2,0.1-30.3,0.1c-16,0-32-0.2-47.9-0.1
	c-8.1,0.1-9.2,2.2-5.2,9.4c0.2,0.4,0.5,0.8,0.8,1.2c6,9.3,11.8,18.6,18,27.8c14,21,32,37.4,55.6,47.2c3.7,1.5,7.4,2.9,11.2,4.1
	c6.3,1.9,8.3,0.5,8.6-5.9c0.1-1.6,0-3.3,0-4.9C1689.9,1252,1689.9,1241.4,1689.9,1230.8z M1768.5,884.4c13.4,0,26.8,0.1,40.2,0
	c7.7-0.1,8.8-2.2,5.2-9c-5.1-9.5-10.5-18.8-16.8-27.7c-16.1-22.7-36.2-40.5-62.1-51.3c-11-4.6-14.3-2.7-14.5,9.2
	c-0.4,23.2-0.3,46.5-0.1,69.8c0.1,7.5,2,9,9.4,9.1C1742.6,884.5,1755.6,884.4,1768.5,884.4z M1637.8,884.5c13.4,0,26.8,0,40.2,0
	c8.2,0,10.8-2.7,10.9-11c0.1-23.2,0.1-46.5,0.2-69.7c0-1.4,0.1-2.8-0.1-4.2c-0.6-4.5-2.4-5.9-6.7-4.4c-10.5,3.5-20.8,7.4-30.1,13.4
	c-27.2,17.4-45,42.7-58.8,71.3c-1.8,3.7-1,4.7,3.7,4.7C1610.6,884.5,1624.2,884.5,1637.8,884.5z M1895.2,884.7
	c-23.7-30.1-51.5-52.5-85.1-69c-0.5,4.3,2.1,6.3,3.9,8.6c12,14.9,21.9,31,29.8,48.4c1,2.1,1.9,4.3,3.2,6.3c2.2,3.6,5.3,5.7,9.8,5.6
	c8.7-0.1,17.4,0.1,26.1,0.1C1886.6,884.7,1890.2,884.7,1895.2,884.7z M1597.6,817.3c-2.1-1.2-3.6,0.6-5.1,1.3
	c-15,7.8-29.1,17.1-42.1,27.9c-11.8,9.7-22.6,20.4-32.4,32.2c-1,1.2-2.4,2.4-1.7,4.3c0.8,2.1,2.7,1.4,4.3,1.4
	c10.5,0,21.1-0.2,31.6-0.2c3.7,0,6.3-1.4,8.1-4.5c1.9-3.2,3.8-6.5,5.7-9.7c9.8-17,18.2-34.9,30.9-50.2
	C1597.4,819.1,1597.9,818.3,1597.6,817.3z M1518,1185.5c0,4.4,2.2,6.8,4.7,9c11.5,10.4,23.1,20.7,34.6,31.1
	c10.7,9.7,22.4,17.9,35.3,24.3c1.2,0.6,2.4,2.1,3.8,0.8c1.6-1.5,0.4-3-0.5-4.4c-0.6-1-1.4-1.9-2.1-2.8c-3.3-4.3-6.6-8.5-9.8-12.9
	c-8.5-11.9-15.5-24.7-21.2-38.1c-2-4.6-4.9-8.5-10.2-8.5C1541.2,1183.8,1529.7,1182.8,1518,1185.5z"/>
<path fill="#656669" d="M1946.9,1235.8c-0.3,3.5,1.2,5.4,2.2,7.5c7.6,16.4,15.2,32.8,22.8,49.1c1.5,3.2,2.9,6.4,3.7,9.9
	c1.7,7-0.6,12.5-6.2,16.7c-2.2,1.7-4.8,3-7.3,4.1c-13.5,6.1-26.9,12.2-40.4,18.2c-8,3.6-10.7,2.9-16.5-3.8c-3.7-4.3-6.7-9-9-14.2
	c-6.2-13.9-12.5-27.8-18.7-41.7c-4.4-9.8-6.3-10.2-13.7-2.6c-7.6,7.7-14.9,15.7-22.9,22.9c-2.8,2.5-5.8,4.8-9.3,6.2
	c-6.6,2.6-12,1-16-4.8c-2.4-3.4-3.2-7.3-3.6-11.3c-0.3-2.6-0.2-5.2-0.2-7.7c0-71.9,0-143.8,0-215.7c0-4.7,0.2-9.4,2.1-13.8
	c4.3-10,13.4-12.8,22.3-6.6c2.3,1.6,4.4,3.5,6.4,5.5c53,49.6,105.9,99.3,158.9,148.9c4.2,3.9,7.6,8.3,10.4,13.2
	c3.1,5.4,2.5,9.7-2.1,13.9c-4.9,4.5-10.9,6.3-17.5,6.3c-12,0-24,0-35.9,0C1953.3,1235.8,1950.2,1235.8,1946.9,1235.8z
	 M1842.8,1095.8c-0.1,1.8-0.2,2.7-0.2,3.6c0,50.1,0,100.1,0.1,150.2c0,0.9-0.1,1.9,0,2.8c0.4,3.3,2,4.1,4.5,1.9
	c3-2.6,5.8-5.5,8.6-8.3c3.2-3.2,6.1-6.5,9.4-9.5c8.6-7.8,18-6.7,24.6,2.9c2,2.9,3.5,6.1,5,9.3c7.5,16.4,14.9,32.9,22.4,49.4
	c4.3,9.6,6.8,10.5,16.2,5.8c0.4-0.2,0.9-0.4,1.3-0.6c6.3-3.4,7.1-5.8,4.3-12.6c-0.7-1.7-1.5-3.4-2.3-5.1
	c-8.1-17.2-16.2-34.4-24.2-51.6c-1.3-2.8-2.6-5.5-3.4-8.5c-2.6-10,2-17.2,12.1-19.2c3.7-0.7,7.4-1.1,11.2-1.3
	c7.3-0.2,14.6-0.1,21.9-0.2c1.5,0,3.3,0.9,4.5-1.4c-1.8-3.2-4.2-6-7-8.6c-32.9-30.9-65.9-61.7-98.8-92.6
	C1850.1,1099.7,1847.2,1097.5,1842.8,1095.8z"/>
<path fill="#656669" d="M833.5,1695.7c0-56.7,0-113.3,0-170c0-5.2-0.2-10.3,1-15.4c3.9-17.1,17.2-28.1,34.6-28.7c1.4,0,2.8,0,4.2,0
	c116.1-0.1,232.3,0,348.4-0.4c20.9-0.1,40.9,16,40.8,41c-0.2,115-0.2,229.9-0.2,344.9c0,5.4-0.4,10.8-1.7,16.1
	c-4.1,16.2-16.2,25.6-34.6,27c-3,0.2-6.1,0.2-9.2,0.2c-112.6,0-225.2,0-337.8,0c-4.9,0-9.8,0-14.7-1c-18.7-3.6-30.6-17.3-30.6-36.5
	c-0.1-48,0-95.9,0-143.9c0-11,0-22.1,0-33.1C833.7,1695.7,833.6,1695.7,833.5,1695.7z M1047.5,1882.2
	C1047.5,1882.2,1047.5,1882.1,1047.5,1882.2c56,0,111.9,0,167.9,0c3.5,0,7.1,0,10.6-0.2c6.6-0.4,8.2-1.9,8.8-8.4
	c0.3-3.3,0.5-6.6,0.5-9.9c0-112.6,0-225.2,0-337.8c0-3.3-0.1-6.6-0.5-9.8c-0.7-5.2-2.6-6.9-7.7-7.5c-3-0.3-6.1-0.3-9.2-0.3
	c-113.6,0-227.1,0-340.7,0c-2.6,0-5.2-0.1-7.8,0.2c-6.1,0.6-8.3,2.8-8.9,8.8c-0.2,2.3-0.2,4.7-0.2,7c0,113.8,0,227.6,0,341.4
	c0,3.1,0,6.1,0.2,9.2c0.4,4.9,2.2,6.7,7,7.2c3.7,0.3,7.5,0.3,11.3,0.3C935.2,1882.2,991.4,1882.2,1047.5,1882.2z"/>
<path fill="#656669" d="M1128.8,1938.2c0,4,0.2,8-0.1,11.9c-0.5,5.9-3.5,10.6-8.1,14.2c-4.4,3.5-8.4,3.3-12.6-0.6
	c-3.6-3.3-6-7.3-6.4-12.2c-0.8-8.9-1-17.8-0.1-26.6c0.6-5.7,2.2-7.2,7.8-8.1c4-0.7,7.9-0.5,11.9,0.2c5,0.9,7,2.7,7.4,7.8
	c0.3,4.4,0.1,8.9,0.1,13.3C1128.8,1938.2,1128.8,1938.2,1128.8,1938.2z"/>
<path fill="#656669" d="M1168,1937.8c0-4.4-0.3-8.9,0.1-13.3c0.4-4.8,2.3-6.6,7-7.3c4.4-0.6,8.8-1.1,13.3-0.2
	c4.6,0.9,6.1,2.1,6.8,6.7c1.5,10.3,1,20.6-0.7,30.8c-1.2,7.2-7.1,11.6-13.3,11.2c-6-0.4-12.3-6.7-13-13.8c-0.5-4.6-0.1-9.4-0.1-14
	C1168.1,1937.8,1168.1,1937.8,1168,1937.8z"/>
<path fill="#656669" d="M803.3,1777c-2.6-0.2-6.4-0.4-10.1-0.6c-2.4-0.1-4.6-0.7-6.8-1.7c-5.2-2.2-8.4-6.1-8.5-11.8
	c0-5.4,2.9-9.3,7.7-11.7c1-0.5,2.1-1.1,3.3-1.3c10.5-1.5,21-1.3,31.5-0.3c3.3,0.3,5.3,2.8,6.1,6.1c0.2,0.9,0.3,1.9,0.3,2.8
	c0.9,19-3.8,18.3-16.7,18.5C808.2,1777.1,806.3,1777,803.3,1777z"/>
<path fill="#656669" d="M806.8,1843.8c-6.3-0.2-11.5-0.1-16.6-1.1c-7.3-1.5-12-6.3-12.3-12.6c-0.3-5.8,3.7-11,10.5-13.4
	c1.3-0.5,2.7-1,4.1-1c7.3-0.1,14.6-0.5,21.8,0.1c10.4,0.8,15.8,10.1,12.4,19.9c-1.5,4.5-4.5,7.1-9.2,7.6
	C813.7,1843.6,809.7,1843.6,806.8,1843.8z"/>
<path fill="#656669" d="M1101.6,1452.5c0-4.7-0.3-9.4,0.1-14.1c0.5-6.7,5.1-11.4,11.4-12.4c7.2-1.1,13.1,3,14.3,10.2
	c1.6,9.3,1.4,18.7,1.2,28.1c0,2.8-1.3,4.9-3.2,6.8c-3.9,3.9-16.9,4.8-21.3,1.5c-2.5-1.9-3.1-4.6-3.2-7.5c-0.1-4.2,0-8.4,0-12.6
	C1101.1,1452.5,1101.4,1452.5,1101.6,1452.5z"/>
<path fill="#656669" d="M803.9,1709.8c-3.3-0.2-8.2,0.1-13.1-0.9c-3.8-0.8-7.1-2.4-9.7-5.3c-5.3-5.9-4-14.7,2.9-18.7
	c1.6-0.9,3.4-1.6,5.2-2c9.8-1.9,19.6-1.6,29.3,0.4c6.7,1.4,10,7.1,9.1,13.8c-1.2,8.7-4.7,12.4-12.2,12.6
	C812.1,1709.9,808.8,1709.8,803.9,1709.8z"/>
<path fill="#656669" d="M1061.2,1450c0.7,6.5,0.8,11.6,0,16.7c-0.8,5.1-2.6,7.1-7.6,7.6c-3.7,0.3-7.5,0.4-11.2,0
	c-5.5-0.5-8.2-3.1-8.2-8.6c-0.1-9.4-0.5-18.8,1.1-28.1c1.3-7.9,5.6-12,12.4-11.9c6.7,0.1,12.8,5.7,13.5,12.9
	C1061.5,1442.8,1061.2,1447,1061.2,1450z"/>
<path fill="#656669" d="M1290.3,1574.7c-4.7,0-9.4,0.2-14.1-0.1c-4.6-0.3-6.1-2-6.7-6.6c-0.5-4.2-0.5-8.4,0-12.6
	c0.6-4.6,1.9-6,6.7-6.6c9.8-1.3,19.7-0.7,29.5,0.2c7.4,0.7,12.3,5.8,12.2,12.1c-0.1,6.5-5.3,12.7-12.2,13.4
	C1300.6,1575,1295.4,1574.6,1290.3,1574.7C1290.3,1574.6,1290.3,1574.7,1290.3,1574.7z"/>
<path fill="#656669" d="M1290.6,1777.1c-3.7-0.2-8.4-0.3-13.1-0.9c-5.3-0.7-7.2-2.8-8.3-8c-1-4.5-0.2-8.9,0.5-13.3
	c0.5-3.4,2.9-5.3,6.3-5.6c9.6-0.7,19.2-1,28.8,0.1c3.7,0.4,7.2,2,10,4.7c2.6,2.4,3.6,5.4,3,8.9c-0.9,4.6-9.6,12.7-14.4,13.1
	C1299.6,1776.7,1295.6,1776.8,1290.6,1777.1z"/>
<path fill="#656669" d="M1048.6,1916.4c2.3,0.2,4,0.3,5.6,0.6c4.7,0.9,6.8,2.6,7.1,7.3c0.7,9.3,1.7,18.7-0.8,27.9
	c-0.8,2.9-1.7,5.8-3.9,8.1c-6.8,7.2-17.5,5.3-19.9-4.3c-2.6-10.7-2.8-21.9-1.5-32.9c0.4-3.3,3.3-5.1,6.3-5.9
	C1044.1,1916.7,1046.7,1916.6,1048.6,1916.4z"/>
<path fill="#656669" d="M994.7,1450.4c0,3.8,0.2,7.5,0,11.3c-0.7,10.7-8.7,17.6-21.8,11.8c-3.8-1.7-5.4-5-5.3-9.1
	c0.2-8.5,0.1-16.9,0.5-25.4c0.3-7.9,5-12.9,11.9-13.1c7.2-0.3,13.7,5.1,14.6,12.6c0.4,3.9,0.1,8,0.1,12
	C994.6,1450.4,994.7,1450.4,994.7,1450.4z"/>
<path fill="#656669" d="M804.9,1574.9c-4,0-8,0-11.9,0c-3.6,0-6.9-1.1-9.7-3.4c-3.8-3.2-6.2-7-4.9-12.3c1.4-5.6,5-9.3,10.6-9.8
	c10-1,20.1-1.2,30.2-0.4c3.7,0.3,6.4,3.1,7.3,7.4c0.8,3.9,0.7,8,0.1,11.9c-0.7,4.5-3.3,6.7-8.3,7c-4.4,0.3-8.9,0.1-13.3,0.1
	C804.9,1575.2,804.9,1575,804.9,1574.9z"/>
<path fill="#656669" d="M1290.4,1615.7c3.3,0,6.6-0.1,9.9,0c2.3,0.1,4.7,0.3,7,0.8c6.2,1.4,9.8,4.9,10.5,9.9
	c0.7,5.3-2.5,11.3-7.7,13.9c-1.9,0.9-3.9,1.6-6.1,1.7c-8.7,0.4-17.4,0.4-26.1,0.2c-2.5-0.1-4.5-1-6.1-2.8c-3.4-3.9-4.3-16-1.4-20.2
	c1.7-2.5,4.3-3.5,7.3-3.5C1281.9,1615.7,1286.2,1615.7,1290.4,1615.7z"/>
<path fill="#656669" d="M967.6,1936.7c0-2.8,0.3-5.7-0.1-8.4c-1-6.8,5.1-11.2,11.2-11.9c0.2,0,0.5-0.1,0.7-0.1
	c14.1,1,15.2,0.9,15.6,14.5c0.2,7.2,1,14.3-1.4,21.3c-0.3,0.9-0.4,1.8-0.7,2.7c-1.9,5.7-7.6,10.8-11.8,10.8
	c-4.6,0-10.8-6.1-12.3-12.1C967.5,1948,967.7,1942.3,967.6,1936.7z"/>
<path fill="#656669" d="M926.9,1453.3c0,4.5,0.3,9-0.1,13.4c-0.5,5.4-2.7,7.3-8.1,7.8c-2.1,0.2-4.2,0.2-6.3,0.1
	c-9.5-0.4-11.2-1.8-11.7-11.1c-0.4-7.3-0.2-14.6-0.1-21.8c0.1-2.8,0.6-5.6,1.7-8.2c4-9.1,15.1-10.5,21.1-2.6
	c2.3,3.1,3.6,6.6,3.6,10.5c0,4,0,8,0,12C927,1453.3,926.9,1453.3,926.9,1453.3z"/>
<path fill="#656669" d="M1194.9,1458.6c0,2.1,0,4.2,0,6.3c0,5.3-1.3,7.3-6.1,8.8c-2.7,0.8-5.5,1.4-8.3,1.5
	c-5.1,0.2-9.1-1.9-11.1-6.9c-4.9-12.2-2.7-24,2-35.6c1.9-4.6,8.7-7.3,13.1-6.4c5.1,1.1,8.6,5.3,8.9,11.1
	C1193.8,1444.6,1195.3,1451.6,1194.9,1458.6z"/>
<path fill="#656669" d="M807.2,1615.5c2.8,0,5.6,0,8.5,0c0.9,0,1.9,0,2.8,0.1c6,0.9,8.5,5.4,8.3,14.9c-0.2,8.4-2.5,11.8-8.7,12
	c-9.8,0.3-19.5,1.3-29.2-1.8c-7.4-2.4-11.2-5.4-11.2-10.8c-0.1-5.3,5.8-12,12-13.3C795.5,1615.5,801.3,1615.3,807.2,1615.5z"/>
<path fill="#656669" d="M1286.5,1842.5c-2.6,0-5.2,0.1-7.7,0c-5.4-0.1-7.5-1.7-9.2-6.8c-0.5-1.6-0.9-3.2-1.1-4.8
	c-1.3-10,2.4-14.4,12.4-15.4c9.9-1,19.5-0.6,28.8,3.4c9,3.8,10.7,13.4,3.5,19.7c-1.6,1.5-3.5,2.3-5.7,2.5c-3.7,0.3-7.5,0.9-11.2,1.1
	c-3.3,0.2-6.6,0-9.8,0C1286.5,1842.3,1286.5,1842.4,1286.5,1842.5z"/>
<path fill="#656669" d="M927.1,1938.2c0,4.5,0,8.9,0,13.4c0,4-1.6,7.3-4.5,10c-3.7,3.5-8.1,4.9-13,3.3c-4.7-1.5-7.3-5.3-7.8-10
	c-1.1-10-1.3-20.1-0.5-30.2c0.2-2.6,1.9-4.2,3.7-5.7c4.1-3.2,14.5-3.7,18.8-0.8c2.4,1.6,3.2,4,3.2,6.7
	C927,1929.3,927,1933.8,927.1,1938.2C927,1938.2,927,1938.2,927.1,1938.2z"/>
<path fill="#656669" d="M1289.1,1682c3.5,0,7-0.1,10.5,0c5.1,0.2,9.6,1.9,13.5,5.3c2.8,2.6,5.8,5.3,4.4,9.6
	c-1.5,4.5-3.9,8.8-9.1,9.9c-10.9,2.2-21.9,2.4-32.9,1.4c-5.1-0.5-6.9-2.7-6.9-8c0-3.5,0.2-7,0.7-10.5c0.7-4.9,2.9-6.9,7.9-7.4
	c2.1-0.2,4.2-0.1,6.3-0.1c1.9,0,3.8,0,5.6,0C1289.1,1682.1,1289.1,1682,1289.1,1682z"/>
<path fill="#656669" d="M576.5,793.9c0-87,0-174,0-261c0-4.2,0.1-8.5,0.4-12.7c0.4-4.9,2-6.6,6.8-7.5c2.3-0.4,4.7-0.5,7-0.5
	c87.2,0,174.5,0,261.7-0.1c7.5,0,13.7,2.5,19,7.8c9.5,9.5,18.9,19,28.4,28.4c34.5,34.3,68.9,68.7,103.7,102.8
	c11.5,11.2,16.9,24,16.9,40.1c-0.3,121.6-0.3,243.1-0.4,364.7c0,4,0.1,8-0.4,12c-0.8,6.1-3.4,8.6-9.5,9.5c-2.8,0.4-5.6,0.4-8.4,0.4
	c-136.1,0-272.3,0-408.4,0c-14.8,0-16.6-1.7-16.7-16.6c-0.1-84.6,0-169.3,0-253.9C576.5,802.9,576.5,798.4,576.5,793.9z
	 M606.2,793.9c-0.2,0-0.3,0-0.5,0c0,79.7,0,159.4,0,239.1c0,12.6,1.1,13.7,13.7,13.7c118.3,0,236.5,0,354.8,0
	c12.9,0,14.4-1.5,14.4-14.7c0-109.6,0-219.1,0-328.7c0-2.3,0-4.7-0.2-7c-0.5-6.9-1.2-7.7-7.9-7.9c-3.5-0.1-7.1-0.1-10.6-0.1
	c-37.1,0-74.3,0-111.4,0c-13.8,0-16.1-2.3-16.1-15.9c0-39.5,0-79,0-118.5c0-11.9,0-12-12.1-12c-68.4,0-136.8,0-205.2,0
	c-3.3,0-6.6,0-9.9,0.2c-6.4,0.4-8.3,2.3-8.6,8.6c-0.2,4.9-0.3,9.9-0.3,14.8C606.2,641.5,606.2,717.7,606.2,793.9z M967.3,657
	c-2.3-2.4-3.8-4.1-5.4-5.7c-27.1-27.1-54.2-54.2-81.4-81.1c-1.7-1.7-3-5.3-5.8-4.1c-2.7,1.1-1.6,4.6-1.6,7.1
	c0.1,24.2,0.2,48.4,0.4,72.6c0.1,11.4,1.5,12.8,13.2,12.8c21.6,0,43.2,0,64.9,0C956.5,658.6,961.4,658.3,967.3,657z"/>
<path fill="#656669" d="M1842.8,1095.8c4.4,1.6,7.3,3.9,10.1,6.4c32.9,30.9,65.9,61.7,98.8,92.6c2.7,2.6,5.2,5.3,7,8.6
	c-1.1,2.2-3,1.3-4.5,1.4c-7.3,0.1-14.6,0-21.9,0.2c-3.7,0.1-7.5,0.5-11.2,1.3c-10.1,2.1-14.7,9.3-12.1,19.2c0.8,2.9,2.1,5.7,3.4,8.5
	c8,17.2,16.1,34.4,24.2,51.6c0.8,1.7,1.6,3.4,2.3,5.1c2.8,6.8,2,9.2-4.3,12.6c-0.4,0.2-0.9,0.4-1.3,0.6c-9.4,4.7-11.8,3.8-16.2-5.8
	c-7.4-16.5-14.9-32.9-22.4-49.4c-1.5-3.2-3-6.4-5-9.3c-6.6-9.6-16-10.6-24.6-2.9c-3.3,3-6.3,6.4-9.4,9.5c-2.8,2.8-5.6,5.7-8.6,8.3
	c-2.5,2.2-4.1,1.5-4.5-1.9c-0.1-0.9,0-1.9,0-2.8c0-50.1-0.1-100.1-0.1-150.2C1842.6,1098.5,1842.7,1097.6,1842.8,1095.8z"/>
<path fill="#656669" d="M1047.5,1604.2c30.5,0,61.1,0,91.6,0c4.2,0,8.5,0.1,12.6,1.3c4.9,1.4,8.1,4.5,9.6,9.4c1,3.2,1.3,6.4,1.3,9.7
	c0,47,0,94,0,141c0,1.4,0,2.8-0.2,4.2c-1.1,10.7-5.6,15.6-16.2,17.2c-3.2,0.5-6.6,0.4-9.8,0.4c-59.5,0-118.9,0-178.4,0
	c-4.5,0-8.9,0-13.3-1.2c-5-1.4-8.1-4.3-9.5-9.3c-0.9-3.2-1.2-6.5-1.2-9.8c0-47.9,0-95.9,0-143.8c0-0.9,0-1.9,0.1-2.8
	c0.6-10.9,4-14.7,14.8-15.9c3-0.4,6.1-0.3,9.2-0.3C987.8,1604.3,1017.6,1604.3,1047.5,1604.2
	C1047.5,1604.3,1047.5,1604.3,1047.5,1604.2z M1048.2,1631.1c-4.5,0-8.9,0-13.4,0c-20.4,0-40.9,0-61.3,0c-10.9,0-12.5,1.7-12.5,12.8
	c0,1.4,0,2.8,0,4.2c0.1,24.2,0.2,48.4,0.2,72.6c0,9.4-0.2,18.8-0.1,28.2c0.1,10.5,1,11.5,11.2,11.5c49.8,0.1,99.6,0.1,149.5,0
	c11.4,0,12.6-1.3,12.6-12.5c0.1-35,0-70,0-105c0-11.1-0.7-11.8-12.1-11.8C1097.5,1631.1,1072.8,1631.1,1048.2,1631.1z"/>
<path fill="#656669" d="M772.9,955.2c-12.1,0.2-14.6-2.9-11.6-15c13.5-54.2,27-108.3,40.5-162.4c0.8-3.2,1.5-6.4,2.4-9.6
	c2.8-9.9,11.5-15.4,21.6-13.6c6.9,1.2,9.1,4.1,8.3,11.2c-1.3,11.5-4.6,22.5-7.5,33.6c-11.9,46.6-24,93.1-36,139.6
	c-0.2,0.9-0.4,1.8-0.6,2.7C786.8,953.6,784.9,955.1,772.9,955.2z"/>
<path fill="#656669" d="M921.1,854.7c-0.2,3.1-1.2,5.7-2.7,8.2c-10.3,17.4-20.5,34.8-30.8,52.2c-0.7,1.2-1.5,2.4-2.4,3.5
	c-4.7,5.2-6.4,5.5-12.4,1.7c-3.4-2.2-6.5-4.6-9.9-6.7c-3.4-2.1-3.7-5-2.7-8.5c0.7-2.6,2.1-4.7,3.4-6.9c6.9-11.5,13.6-23,20.8-34.4
	c3.8-6.1,3.9-11.6,0-17.7c-7.2-11.3-14-22.8-20.9-34.3c-1.3-2.2-2.6-4.5-3.7-6.8c-1.3-2.8-1-5.8,1.5-7.7c4.4-3.5,8.9-7,14.3-8.8
	c5-1.6,7.2-0.8,10.3,3.4c0.7,0.9,1.3,2,1.8,3c10,17,20,34,30,51C919.4,848.6,920.9,851.5,921.1,854.7z"/>
<path fill="#656669" d="M673.4,855.2c0.2-3.3,1-6.5,2.8-9.3c10.3-17.1,20.5-34.2,30.9-51.3c4.9-8,9-8.8,16.8-3.5
	c2.7,1.8,5.4,3.8,7.9,5.9c2.9,2.4,3.6,5.4,1.9,8.8c-2.1,4-4.2,7.9-6.4,11.7c-5.4,9.3-10.8,18.7-16.4,27.9c-3.8,6.3-3.8,12.2,0,18.5
	c7,11.4,13.7,23,20.5,34.5c6.2,10.6,5.8,12.3-4.9,18.8c-1.2,0.7-2.4,1.4-3.6,2.1c-7.6,4.5-7.9,4.4-13.9-2.2
	c-0.8-0.9-1.5-1.8-2.1-2.8c-10.3-17.1-20.6-34.2-31-51.3C674.3,860.8,673.8,858,673.4,855.2z"/>
</svg>
