<?xml version="1.0" encoding="utf-8"?>
<!DOCTYPE svg PUBLIC "-//W3C//DTD SVG 1.1//EN" "http://www.w3.org/Graphics/SVG/1.1/DTD/svg11.dtd">
<svg version="1.1" id="Warstwa_1" xmlns="http://www.w3.org/2000/svg" xmlns:xlink="http://www.w3.org/1999/xlink" x="0px" y="0px"
	 viewBox="0 0 2769.3 1887.2" enable-background="new 0 0 2769.3 1887.2" xml:space="preserve">
<path fill="#FCFCFC" d="M291.2,553.1c1.3,0.6,1.3,1.3,0,1.9C291.2,554.4,291.2,553.7,291.2,553.1z"/>
<path fill="#FCFCFC" d="M291.2,602.8c1.3,0.6,1.3,1.3,0,1.9C291.2,604.1,291.2,603.5,291.2,602.8z"/>
<path fill="#FCFCFC" d="M291.2,983.5c0.3,0.5,0.5,0.9,0.7,1.4c0,0.1-0.5,0.4-0.7,0.5C291.2,984.8,291.2,984.2,291.2,983.5z"/>
<path fill="#656769" d="M480.5,428.1c10.7,4.4,22.1,6.3,32.9,10.7c30.1,12.5,51.9,33.8,67.6,61.6c13.8,24.5,18.9,51.3,16.7,79.1
	c-2.2,27.2-11.3,52.2-28.5,73.8c-14.7,18.6-29.2,37-37.6,59.8c-10.2,27.8-9.3,54.9,0.2,82.3c5.5,15.9,14.8,29.5,25.6,42.2
	c10.1,11.8,24.1,18.2,37.8,24.4c17.4,7.8,35.8,11.4,55.1,9.9c26.2-2.1,49.9-11,69.9-28.1c21.2-18.1,42.8-34.9,71-41
	c42.1-9,81.7-3.7,116.7,22.2c36.2,26.9,56.5,62.7,57.8,109c0.9,33-7.2,62.6-26.7,88.7c-11.5,15.4-24.5,29.8-32.9,47.4
	c-16.7,35-15.4,69.9,0,105.1c9.4,21.7,26.6,37.8,38.8,57.4c12.4,20.1,19.7,41.6,20.7,65.5c1.1,26.4-2.9,51.5-15.2,74.9
	c-6.2,11.8-13.4,22.9-23.4,32c-13.9,12.7-25.6,27.7-40.9,38.9c-20,14.7-42.2,24.1-67.1,26.1c-1.7,0.1-3.9-0.7-4.5,1.9
	c-8.1,0-16.2,0-24.2,0c-0.3-1.5-1.3-1.8-2.7-1.9c-23.4-1.3-44-10-63.8-22.3c-19-11.8-34.5-28.3-54-39.4c-15-8.5-30.4-16-48-16.5
	c-33.2-0.9-59.8,14.7-83.7,35.3c-18.7,16.1-37.8,30.3-61.7,37.9c-10.3,3.3-21,3.1-31,6.9c-7.5,0-14.9,0-22.4,0c-5.3-4.3-12-2-18-3.4
	c-41.7-9.5-72.9-32.3-93.9-69.5c-8-14.1-12.2-29.3-16.7-44.6c0-16.2,0-32.3,0-48.5c0.6-0.6,1.6-1.1,1.7-1.8
	c2.8-16.8,8.8-32.2,17.7-46.7c12.6-20.6,30.6-37.3,42.3-58.7c9.8-18,17.8-36.9,16.2-57.4c-2.2-28.8-16.8-52.8-34.8-74.7
	c-10.9-13.3-22.3-26.3-30.1-41.9c-6.3-12.6-8.6-26.4-13-39.5c0-15.5,0-31.1,0-46.6c0.5-0.3,1.4-0.5,1.5-0.8
	c2.5-21.1,11.6-39.5,23.5-56.8c11.6-16.9,26-31.7,36.5-49.5c17.1-28.7,23.6-58.3,10.4-90.6c-8.6-21-21.6-38.8-36.8-55.4
	c-10.2-11.1-18-23.8-24.2-37.7c-4.9-10.9-6.5-22.6-10.9-33.6c0-15.5,0-31.1,0-46.6c0.5-0.3,1.4-0.5,1.5-0.8
	c4.6-31,19-56.6,41.2-78.5c3.8-3.8,8.4-6.4,11.9-10.8c13.8-16.8,30.8-29.7,50.9-38.6c11.1-4.9,23.1-7,34.4-11.1
	C449.4,428.1,464.9,428.1,480.5,428.1z M647.1,1241.3c29-4.2,61.8-9.4,80-44.4c14.5-27.9,21.2-55.5,8.3-86.1
	c-10.6-25.3-26.9-45.6-48.8-61.4c-31.1-22.5-64.4-35.6-102.8-18.9c-14,6.1-28.6,11.5-38.1,24.5c-20.4,27.9-26.9,59.1-20.4,92.9
	c4.4,23.4,14.6,44.7,32.1,60.3C581.1,1229.2,609.8,1240.7,647.1,1241.3z"/>
<path fill="#656769" d="M1895.5,1472.1c-12.6-3.5-25.7-4.4-38-9.3c-48.4-19-78.5-53.8-88.5-104.6c-8.4-42.9,0.6-82.9,28.7-116.9
	c13.3-16.1,25.9-32.5,35.6-51c17.8-34.3,13.8-67-6.1-99.3c-14.6-23.6-32.1-42.5-57.2-55.8c-38.2-20.1-72.9-14.3-107.8,7
	c-12.8,7.8-22.1,19.3-33.4,28.5c-19.9,16.3-41.9,26.5-67.2,30.4c-30.4,4.7-59.2,0.8-86.8-13c-38.9-19.5-62.6-50.9-73-92.5
	c-8.4-33.3-4.2-65.7,10.8-96.4c5.5-11.4,12.3-22.3,21.7-30.9c17.8-16.4,32.5-35.9,53.7-48.9c17.9-11,36.9-17.8,57.3-19.9
	c28.6-2.9,56.5,1.3,82.4,14.7c15.1,7.8,27.4,19.6,41,29.5c19.6,14.2,40.8,23.5,65,26.5c32.3,4,61.3-4.1,86.2-24.4
	c13.6-11.1,18.5-28.2,23.5-44.4c8.6-28.1-1.1-53.1-14.4-77.4c-11-20.1-29.3-34.5-41.1-54c-12.6-20.8-20.5-42.6-21.2-67.4
	c-0.7-26,2.7-50.8,15.3-73.9c5.8-10.6,12-21,21-29.3c16.7-15.4,30.6-33.9,50.1-46.3c18-11.4,37.5-18.4,58.9-21.4
	c35.4-4.9,67.6,3.1,96.6,22.7c33.6,22.7,54.1,54.3,60.4,94.9c5.5,35.8-1.8,68.7-20.8,98.9c-7.9,12.5-18.2,23.4-26.8,35.4
	c-19,26.5-26.6,56.5-23,88.6c2.7,24.4,11.8,47.4,29.5,64.4c20.9,20.1,46.2,33.2,76.3,35.5c37.2,2.8,68.1-9.9,95.5-34.4
	c21.4-19,45.7-32.6,74.9-36.9c31.4-4.6,61.7-1.6,89.3,13.6c39,21.4,64.6,53.7,72.6,98.6c0.1,0.7,1.1,1.2,1.7,1.7
	c0,16.2,0,32.3,0,48.5c-4.1,10.4-5.9,21.5-10.1,32c-10.8,26.8-31.5,45.6-51,65.3c-22.2,22.4-48.8,36.5-80.7,41
	c-34.5,4.8-66.3-1-95.8-19.1c-16.8-10.3-30.2-25.2-47-35.6c-26-16.2-52.9-29-84.7-20.1c-17.8,5-36,10.9-48,25.4
	c-13.8,16.8-22.5,37-24.5,59c-3.4,39.1,9.2,72.7,36.8,100.8c22.8,23.3,34.7,52.2,37.4,84.2c2.8,33.5-5.6,64.6-25,92.7
	c-8.6,12.5-20.7,21.5-30.4,32.6c-17.8,20.4-38.9,34.5-64.3,43.5c-10.8,3.8-22.2,3.8-32.9,7.3
	C1910.4,1472.1,1902.9,1472.1,1895.5,1472.1z"/>
<path fill="#656769" d="M1159.1,1472.1c-12.6-3.5-25.7-4.4-38-9.3c-48.4-19-78.2-53.9-88.5-104.6c-8.6-42.1,0.7-81.1,26.9-114.8
	c11-14.1,23.2-27.1,32.5-42.4c21.2-35.1,21.9-69.8,1.1-105.9c-12.5-21.7-30.8-38.6-43.6-59.8c-11.1-18.4-17.3-38.3-19-59.6
	c-2.1-26,1-51,13-74.6c9.1-17.9,20-34.2,36.4-46.6c5.7-4.4,9.5-11.2,14.9-16.1c26.5-24.5,57.3-38.4,93.9-39.4
	c42.2-1.2,78.1,13.2,107.2,43.2c20.3,21,32.5,46.4,36.7,75.9c5.3,36.6-2.3,69.9-22.7,100.4c-7.4,11-16.5,20.8-24.2,31.6
	c-23.4,32.7-33,67.9-21.1,107.8c6.1,20.5,16.5,37.9,31.2,53.1c20.8,21.6,32.4,47.3,36.9,77c4.5,29.7-0.5,57.6-13.6,83.9
	c-8.5,17-20.2,31.7-35.3,44.3c-10.8,9.1-19.5,20.5-31.3,29c-20.3,14.7-42.5,23.3-67.4,25.1c-1.5,0.1-3.2-0.3-3.6,1.9
	C1174,1472.1,1166.5,1472.1,1159.1,1472.1z"/>
<path fill="#656769" d="M1526.3,1472.1c-11-2.5-22.3-4-32.9-7.8c-50.9-17.9-82.4-54.4-93.3-106.5c-8.3-39.5,0.4-77.2,24.2-110.3
	c7-9.7,15.4-18.6,25.1-26.5c8.5-6.9,15.2-16.3,24-23.5c19.1-15.5,40.8-25,64.8-29.1c30.5-5.2,60.1-1,87.4,13.2
	c40.3,21,65.9,54,73.8,99.2c7.1,40.3,1.1,78.7-25.5,110.9c-25.6,30.9-52.2,61.7-93.2,73.4c-10,2.8-20.2,4.7-30.3,7
	C1542.5,1472.1,1534.4,1472.1,1526.3,1472.1z"/>
<path fill="#656769" d="M2438,594.1c-4.5,13.2-6.6,27.2-13.2,39.5c-6.8,12.8-14.3,25.2-25.2,35.2c-13.6,12.5-25.3,27.1-40.2,38.3
	c-20.2,15.2-42.7,23.6-67.8,27c-29.7,3.9-57.4-1.7-83.3-15.4c-39.3-20.9-63.4-54.4-71.8-97.5c-7.5-38.9-0.2-76,23.8-108.7
	c7.4-10,14.8-20,25.4-27.2c4.4-3,7-8.4,10.8-12.2c23.7-23.4,51.5-37.5,85-41.6c28.4-3.5,55.1,1,80,13.7
	c41.1,21,66.5,54.5,74.7,100.5c0.1,0.7,1.1,1.2,1.7,1.7C2438,563,2438,578.5,2438,594.1z"/>
<path fill="#656769" d="M2262.7,1472.1c-10-3.9-20.8-3.8-31-7.2c-52.3-17.4-84.1-54.2-95.1-106.7c-8.9-42.3,0.1-82.7,29.4-116.4
	c20.7-23.8,41.6-47.7,70.8-61.5c48.6-23.1,108.5-16.6,149.7,17.4c27.3,22.5,44.1,50.5,49.9,85.3c0.1,0.4,1,0.6,1.5,0.9
	c0,15.5,0,31.1,0,46.6c-0.6,0.6-1.6,1.1-1.7,1.7c-2.6,18-9.1,34.3-18.5,50c-12.1,20.1-30.6,34.2-46.2,50.9
	c-14.3,15.3-32.3,25-51.9,31.4c-10.6,3.4-21.7,5.1-32.6,7.6C2278.9,1472.1,2270.8,1472.1,2262.7,1472.1z"/>
<path fill="#656769" d="M1397.4,597.3c1.3-36.8,10.1-67.2,32.8-92.4c20.6-22.9,40.4-46.8,69.3-60.1c45.5-21,90.1-19.9,134,5.4
	c38.9,22.4,61.4,56.6,67.3,99.7c6.1,44.5-4.4,86-37.9,118.9c-13.2,13-25.3,27.1-40.1,38.4c-18.5,14.2-39.4,22.7-62.3,26.5
	c-31.2,5.2-61.1-0.1-88.8-15c-39.1-21-62.3-54.6-71.8-97.5C1398.1,612.5,1396.1,603.1,1397.4,597.3z"/>
<path fill="#656769" d="M965.1,570.6c0.7,40-12.8,74.1-42,101.7c-12.3,11.7-23.1,24.8-36.8,35.1c-18.6,14-39.5,22.2-62.3,26.4
	c-23.7,4.3-47,1.5-69.1-6.6c-44.5-16.3-74.6-47.5-87.6-93.3c-13.2-46.6-5.6-89.9,25.6-127.8c15.4-18.7,32.2-36.3,52.1-50.5
	c19.2-13.7,40.5-21,64-24c28.1-3.6,54.3,1.1,79.1,13.5c41.5,20.7,66.6,54.2,75.3,99.9c0.4,2.1,1.6,4,1.7,6.1
	C965.2,557.5,965.1,564,965.1,570.6z"/>
<path fill="#656769" d="M1334.4,572.4c-1.2,32.8-10.3,62.8-32.2,88.1c-18.8,21.8-38.3,43.2-63.6,57.5c-15.6,8.8-33,13.5-51.2,16.1
	c-27.2,3.9-52.9-1.1-77-11.9c-26.3-11.8-46.7-31.2-61.7-56.4c-13.2-22.3-19.8-46.6-19.4-71.6c0.5-36.5,11.8-70,38.9-96.3
	c15.7-15.1,29.3-32.5,48-44.5c18.3-11.7,38-18.8,59.6-21.8c35.4-4.9,67.6,3,96.5,22.8c34,23.2,55.1,55.1,60.4,96.8
	C1333.6,558.3,1334,565.3,1334.4,572.4z"/>
</svg>
