<?xml version="1.0" encoding="utf-8"?>
<!DOCTYPE svg PUBLIC "-//W3C//DTD SVG 1.1//EN" "http://www.w3.org/Graphics/SVG/1.1/DTD/svg11.dtd">
<svg version="1.1" id="Warstwa_1" xmlns="http://www.w3.org/2000/svg" xmlns:xlink="http://www.w3.org/1999/xlink" x="0px" y="0px"
	 viewBox="0 0 1688 944" enable-background="new 0 0 1688 944" xml:space="preserve">
<path fill="#656769" d="M329.6,321c28.1,0,56.2-0.2,84.3,0.1c36.8,0.4,64.1,25.7,65.4,62.5c1.2,31.9,0.8,63.9,0.1,95.8
	c-0.5,26.4-13.5,46.7-36.5,58.5c-11.4,5.9-14,12.7-13.6,24.4c0.9,22,0.3,44.1,0.3,66.1c0,23.2-8.5,42.1-29.2,53.6
	c-12.9,7.2-6.5,18.4-7.1,27.7c-1.2,19.1-4.9,23.8-23.1,23.8c-19.7,0.1-22.9-3.9-23.4-26.6c-0.1-5.4,3.9-14.3-3.4-15.7
	c-9.9-1.9-21.1-1.7-30.8,1.1c-4.8,1.4-1.7,11-1.8,16.9c-0.5,20.1-4,24.2-22.1,24.3c-19.3,0.2-24.8-4.5-23.7-24.3
	c0.9-14.7-2.9-23.4-16.5-31.3c-18.1-10.5-23-29.9-23.2-50.1c-0.2-23.7-0.4-47.4,0.1-71c0.2-9-1.3-14.4-11-18.7
	c-26.3-11.5-38.7-33.3-39.3-61.4c-0.6-29.2-0.5-58.4-0.1-87.6c0.6-41.4,27.6-68,68.7-68.3c14.3-0.1,28.6,0.1,43,0.1
	C301,320.9,315.3,320.9,329.6,321C329.6,320.9,329.6,321,329.6,321z M328.3,369.9c-25.9,0-51.8-0.3-77.7,0.1
	c-19.4,0.3-28.9,8.9-29.4,27.9c-0.7,23.7-0.7,47.4,0.1,71c0.5,17.7,9.3,26.3,27,26.4c52.9,0.4,105.7,0.5,158.6,0
	c17.4-0.2,25.4-7.6,26.3-25.2c1.3-23.6,1.6-47.3,0.6-71c-0.9-21.9-9.4-29-31.3-29.2C377.9,369.8,353.1,369.9,328.3,369.9z
	 M335.6,600.2c-11.2,9.3-21,17.1-30.4,25.5c-3.7,3.3-12,6.1-3.6,13.3c5.9,5.1,9.6,13.5,19.6,4c13.5-12.8,28.1-24.5,42.9-35.8
	c7.9-6,5.9-9.5-0.4-14.6c-12-9.5-23.7-19.4-35.5-29.3c-16.6-13.9-16.6-13.9-31.2,4.2C309.4,578.1,321.9,588.6,335.6,600.2z"/>
<path fill="#656769" d="M1392,633.4c0,15.4-0.5,30.8,0.1,46.2c0.6,15-10.3,9.9-17.2,9.9c-6.8,0-17.3,5.2-17.1-9.8
	c0.6-39.1,0.6-78.1-0.1-117.2c-0.2-9.2,4.3-11.4,11.1-12.4c21-3,42.2-9.5,63,1.3c5.9,3.1,10.6-0.7,15.6-2.3
	c37.9-11.9,61,3.4,62.5,42.7c1.1,29.1,0.1,58.3,0.4,87.5c0.2,17.7-12.9,8.4-20.1,10c-8.1,1.8-14.8,0.9-14.4-11.1
	c0.8-23.6,0.5-47.3,0.1-71c-0.1-7.6-1.1-15.4-3.2-22.7c-2.2-7.6-9-8.6-16.2-7.8c-8.7,1-6.2,7.2-6.1,12.4c0.2,9.3-0.7,18.9,0.7,28
	c2.4,15.9-4.6,18.6-18.8,18.4c-12-0.2-16.8-2.6-15.5-15.4c1.1-11.4,1.3-23.1-2.3-34.4c-2.4-7.7-7.9-9.8-15.4-9.1
	c-8.1,0.8-7.3,6.7-7.3,12.2C1392,603.7,1392,618.5,1392,633.4z"/>
<path fill="#656769" d="M1148,630.6c-11.6,0-23.1,0.3-34.7-0.1c-10.7-0.4-10.9,4.6-7,12.1c4,7.7,10.4,12.5,18.7,15
	c11.9,3.6,23.7,3.3,35.8,0.9c22.5-4.5,22.1-4.1,23.9,19.2c0.5,6.8-1.9,8.6-7.5,10c-21.1,5.4-42.4,7.3-63.5,1.3
	c-37.7-10.8-56.7-51-44.9-93.5c10.9-39.3,43.1-58.9,81.9-49.8c23,5.4,39.3,26.5,42.2,55.1c0.5,4.9-0.1,10,0.5,14.8
	c1.5,11.1-2.2,16.2-14.2,15.2C1168.9,629.9,1158.4,630.6,1148,630.6z M1131.5,604.9c2.7,0,5.6,0.6,8.2-0.1
	c6.2-1.7,16.5,5.3,18.2-4.3c1.6-9.1-3.5-18.7-13.2-22.6c-12.5-5.1-24.8-5.2-34,6.8c-4,5.2-8.7,11.7-5.7,17.9c2.6,5.4,9.9,1.7,15,2.3
	C1123.8,605.2,1127.7,604.9,1131.5,604.9z"/>
<path fill="#656769" d="M1332.2,633.1c0,14.9-0.3,29.7,0.1,44.6c0.2,6.8-2,9-9,10.2c-22.4,3.9-44.7,6-67.3,3.3
	c-24.6-3-38.8-17.4-40-40.4c-1.3-25.5,9.8-40.1,34.6-46.4c12.5-3.2,25.1-3.7,37.7-1.8c9.7,1.5,10.4-2.8,8.4-10
	c-2.8-10.1-9.4-16.3-19.8-17.1c-8.7-0.6-18.5-2.2-26.2,0.7c-18.9,7.1-18.8-5.6-20.9-17.2c-1.2-6.5,0.3-10,7.5-11.4
	c19.6-3.8,39.3-6,58.9-1.5c21.3,4.9,33.9,20.7,35.4,44.1c0.9,14.3,0.2,28.6,0.2,42.9C1332,633.1,1332.1,633.1,1332.2,633.1z
	 M1284.5,627.5c-8.6,0.6-13,0.5-17.3,1.3c-8.8,1.6-15.3,5.5-15.4,16c-0.1,10.1,5.1,15.1,14.5,16.7c4.3,0.7,8.7,1.7,13.1,1.7
	c9.4-0.2,20.5,2.8,19.2-13.9C1297.6,636.8,1300.8,622.9,1284.5,627.5z"/>
<path fill="#656769" d="M992,612.5c0,5.5,0,11,0,16.5c0.2,29.2,8.8,35.6,37.9,30.2c5.8-1.1,13.3-8.8,17.5-2.1c4,6.5,3.5,15.8,4.4,24
	c0.6,5.1-3.9,5.6-7.7,6.7c-19.4,5.5-39.2,6.5-58.7,2.3c-16.1-3.5-24.5-15.4-27.2-31.6c-3.7-21.9-2.6-43.9-2.1-65.8
	c0.2-11-1.7-15.6-14-14.7c-15.2,1.1-23.5-13.4-16.7-27.5c3.4-7,9.9-3.5,14.6-3.1c11.5,0.9,16.9-1.4,16.2-14.9
	c-1.1-20.1,11.1-29.3,31-26.4c3.6,0.5,4.5,2,4.7,5c0.1,1.6,0,3.3,0.1,4.9c1.5,31,1.5,31,32.6,31c3.3,0,6.7,0.5,9.9-0.1
	c12.8-2.2,16.5,2.6,16.7,15.8c0.2,13.8-4.6,17.5-17,15.6c-2.7-0.4-5.5-0.1-8.2-0.1C991.9,578.2,991.9,578.2,992,612.5z"/>
<path fill="#656769" d="M654.3,599.8c0,12.1-0.2,24.2,0,36.3c0.4,20.4,9.2,26.5,29.5,24.2c5.8-0.7,16.3-15,19.8,3.1
	c2.5,13.2,2.7,23-15,26.9c-45.2,10-69.4-7.6-70.5-53.6c-0.1-3.3-0.1-6.6-0.1-9.9c0-7.1,0-14.3,0-21.4c0-26.2,0-27-25.9-26.7
	c-12.1,0.1-13.5-5.1-12.6-14.9c0.7-8.3-3-18.1,12-17.1c17.5,1.1,35.2,0.8,52.7,0.2c8.2-0.3,10.5,2.3,10.2,10.1
	C653.9,571.2,654.3,585.5,654.3,599.8z"/>
<path fill="#656769" d="M327.8,264.5c19.2,0,38.4-0.3,57.7,0.1c16.1,0.3,24.3,8.1,24.5,22.4c0.2,14.5-7.8,23.3-23.5,23.5
	c-39.5,0.4-79.1,0.4-118.6,0c-14.2-0.1-22.4-8.1-23.1-22.5c-0.7-14,8.3-23,23.8-23.3C288.3,264.2,308,264.5,327.8,264.5z"/>
<path fill="#656769" d="M479.8,599.8c0,5.5,0,11,0,16.5c-0.1,21.9-6.1,27.2-27.7,25.4c-11.4-0.9-17.1-6.9-17.3-17.9
	c-0.3-16.5-0.5-33-0.1-49.4c0.4-15.2,10.4-18.9,23.7-18.5c12.8,0.4,21.4,4.8,21.4,19.1C479.8,583.3,479.8,591.5,479.8,599.8z"/>
<path fill="#656769" d="M220.8,600.3c0,5.5,0.1,11,0,16.5c-0.3,19.7-5.5,25.1-24.1,24.8c-17.9-0.2-21.7-4.5-21.8-24.9
	c-0.1-13.2-0.2-26.4,0-39.6c0.3-15.8,6.3-21,22.6-21.2c14.6-0.2,23.1,5.8,23.2,21.2C220.9,584.9,220.8,592.6,220.8,600.3z"/>
<path fill="#656769" d="M885.2,656.7c-0.1,14.6-11.4,26.6-25.6,27c-15,0.5-26.9-11.5-26.9-27c0-16.2,11-27.1,26.9-26.8
	C874.2,630.2,885.3,641.9,885.2,656.7z"/>
<path fill="#656769" d="M765.8,630.3c15.9-0.3,27.1,10.7,27.1,26.6c0,14.7-11.4,26.6-25.6,26.9c-15.3,0.3-27-11.4-27-27
	C740.3,641.2,750.6,630.6,765.8,630.3z"/>
<path fill="#656769" d="M766.3,591.7c-15.4-0.3-26.5-12.1-26-27.8c0.4-15.2,11.1-25.5,26.4-25.4c15.9,0,26.7,11.4,26,27.4
	C792.1,581,780.9,592,766.3,591.7z"/>
<path fill="#656769" d="M858.7,591.7c-15.5-0.2-26.2-11.8-25.9-27.9c0.3-15.4,10.7-25.5,26.2-25.4c15.8,0.1,26.8,11.6,26.3,27.4
	C884.7,580.4,872.8,592,858.7,591.7z"/>
<path fill="#656769" d="M607.6,506.8c-0.3-14.7,7.5-23.7,20.8-24.3c14.3-0.6,23.6,8.6,23.6,23.4c0.1,14.3-8.1,22.9-22,23.3
	C615.9,529.7,607.9,521.7,607.6,506.8z"/>
<path fill="#656769" d="M273.1,403.2c16-0.3,29.6,12.7,30.1,28.5c0.4,15.4-13,29.2-29,29.8c-15.7,0.6-29.4-12.6-29.7-28.6
	C244.2,416.9,257.1,403.5,273.1,403.2z"/>
<path fill="#656769" d="M381.9,461.8c-16,0.3-29.4-12.9-29.5-29.2c-0.1-15.9,11.8-28.6,27.4-29.2c16.5-0.7,29.7,11.6,30.2,28.1
	C410.5,447.7,397.7,461.5,381.9,461.8z"/>
</svg>
