<?xml version="1.0" encoding="utf-8"?>
<!DOCTYPE svg PUBLIC "-//W3C//DTD SVG 1.1//EN" "http://www.w3.org/Graphics/SVG/1.1/DTD/svg11.dtd">
<svg version="1.1" id="Warstwa_1" xmlns="http://www.w3.org/2000/svg" xmlns:xlink="http://www.w3.org/1999/xlink" x="0px" y="0px"
	 viewBox="0 0 2500 2500" enable-background="new 0 0 2500 2500" xml:space="preserve">
<path fill="#656769" d="M1298,205.4c0.7,2.6,2.8,1.7,4.5,1.8c92.1,2.9,182.2,18.3,269.7,47.1c280.7,92.4,487.1,271.6,619.7,535.4
	c43.3,86.2,72,177.6,88.5,272.8c7.8,45.4,13.3,91,14.6,137.1c0,1.6-0.8,3.8,1.8,4.5c0,3.7,0,7.3,0,11c-2.9,1.9-1.9,4.9-1.9,7.5
	c-0.1,13.3-0.1,26.7,0,40c0,2.6-0.9,5.6,1.9,7.5c0,4.3,0,8.6,0,12.8c-4.1,11.6-2.5,23.8-3.3,35.6c-7.1,99.9-28.3,196.6-63.6,290.2
	c-52.8,140-132.1,263-238.1,368.4c-141.8,141-310.6,233.9-505.7,278.2c-70,15.9-141,23.8-212.9,24.5c-225.3,2.3-430.4-60.9-614-191
	c-163.4-115.8-283.1-267.2-359.9-452.3c-31.2-75.3-52.7-153.3-65.2-233.7c-11.5-74.3-14.5-149.1-10-224.3
	c8.6-143.1,45.1-278.8,110.6-406.1c101.2-196.6,250.1-346.5,445.7-449.7c89.3-47.1,183.8-79.5,282.8-98.5
	c49.4-9.5,99.3-15.7,149.6-17.1c2.2-0.1,5,1.3,6.4-1.8c3.1,0,6.1,0,9.2,0c1.3,2.3,3.6,2,5.6,2c16.4,0,32.8,0,49.2,0
	c2.1,0,4.3,0.3,5.7-2C1291.9,205.4,1294.9,205.4,1298,205.4z M2262.3,1243.8c1.3-551.3-443.6-994.9-984.7-1004.3
	C715,229.7,258.1,681.8,255.2,1237.2c-2.9,557.8,447.7,1009.3,1003.1,1009.5C1817.7,2246.8,2263.3,1792.1,2262.3,1243.8z"/>
<path fill="#656769" d="M1166.5,1030.8c-9.7-7.4-17.5-15.8-25.7-23.7c-27.6-26.7-46.4-58.7-51.1-96.9c-4.2-33.8,1.4-66.9,16.4-98
	c11.7-24.3,26.1-46.9,44.5-66.7c5.7-6.1-0.6-6.2-3.4-7c-22.5-5.9-43.9-14.4-62.4-28.6c-32.7-25.3-43.8-58.2-38.3-97.4
	c6.2-44,36.4-62.7,75.2-72.3c15.2-3.8,30.8-5.4,46.5-5.7c4.2-0.1,6.4,1,5.7,5.6c-0.1,0.6,0,1.2,0,1.8c0.3,19.7,0.2,19.2-19.1,24.4
	c-18.6,5-36.1,12.5-46.8,30c-13.2,21.7-10.7,53.2,5.6,72.9c18,21.6,43.5,28.7,69.1,35.4c4.2,1.1,5.8-2.8,8-5
	c28.2-29.4,59.5-54.8,93.6-77c29.4-19,60-35.5,94-44.9c17.5-4.8,35.3-5.9,53.1-4.4c16.5,1.4,26.2,16.5,25.2,35.2
	c-0.9,18.8-8.9,34.1-21.7,47.2c-39.2,40.5-87.8,63.9-141.8,77c-29.3,7.1-59.1,11.2-89.4,11.1c-2.7,0-5.4-0.3-7.5,2.2
	c-18.5,21.2-36.2,42.9-47.1,69.2c-6.7,16.1-10.5,32.9-12.3,50.4c-3.8,35.6,5.9,66.9,26.8,95.1c11.2,15.2,25.8,27.2,41.3,38.1
	c4.2,2.9,7.4,1.9,11.4-0.2c29.3-15.5,59.7-28.3,91.6-37.5c27.1-7.8,54.6-13.8,82.8-16.3c18.4-1.6,36.9-4.6,55.3-3.2
	c22.1,1.6,44.5,1.7,64.7,14.4c12,7.5,17.3,28.5,10.8,41.7c-8.7,17.5-24.7,26.3-41.3,33.4c-24.7,10.6-51,14.7-77.8,17.2
	c-32.3,3-64.6,2.1-96.8,1.1c-27.2-0.9-54.7-2.8-81.6-8.5c-4-0.8-7.2,0.8-10.2,2.7c-41.7,27.3-80.9,57.6-114.5,94.5
	c-30.5,33.5-54.7,70.9-69,114.3c-10,30.5-14.6,61.8-12.2,93.6c4.7,62,42.6,116.6,107.5,137.4c23.6,7.6,47.8,11.7,72.7,13.5
	c17.1,1.3,34.1,1.9,51,1.1c30.8-1.4,61.5-5,92.3-6.5c42.6-2.1,85.4-6.9,127.2,6.8c36.6,12,62.7,36,80.5,69.6
	c16,30.3,24.7,62.6,27.7,96.9c4.2,47.9,0.5,94.7-15,140.2c-17.6,51.7-52.4,89.4-98.8,117c-23,13.7-47.8,22.9-74.1,26.7
	c-39.4,5.7-77.7,3.6-112.7-19.2c-25.5-16.7-32.7-55.1-15.4-77c8.8-11.1,20.3-17.4,34.5-18.9c18.4-1.9,35.3,4.2,52.3,9.4
	c25.6,7.8,51.2,14.3,78.3,12.7c34.3-2.1,61.1-16.9,79.8-45.9c13.5-20.9,19.4-43.9,21.5-68.8c2.7-31.9-6.2-59.4-26-83.2
	c-12.1-14.5-29.9-20.4-48.5-23.4c-16.3-2.6-32.7-2.5-49.1-1.6c-26.9,1.4-53.9,2.4-80.8,3.8c-29.7,1.5-59.4,4.5-89.1,3.1
	c-60.1-2.7-117.5-15.3-167.7-50.9c-44.3-31.4-77.3-71.7-96.4-123c-8.6-23.2-13.7-46.9-16.6-71.4c-2.5-21-2.5-42.1-1.1-62.8
	c2.4-36.7,11.6-71.9,26.7-105.8c22.5-50.5,56.8-92,97.1-128.8C1103.4,1072.1,1133.8,1050.6,1166.5,1030.8z"/>
<path fill="#656769" d="M831.2,2025.3c-2.2,8.4,0.5,14.7,8.6,18.1c4.3,1.8,8.9,3.4,12.9-0.2c4.1-3.8,5.5-8.7,3.2-14.1
	c-2.6-6.4-5.7-12.7-8-19.3c-3.9-11.3-0.8-20.2,7.9-24.3c7.8-3.7,22.2,0.6,27.1,8.1c3.2,5.1-2.8,7.1-3.5,11.3
	c-1.9-4.8-1.5-10.2-6.8-12.9c-4.8-2.4-9.4-5-14.2-0.6c-4.2,3.9-3.4,8.7-1.5,13.3c2.2,5.4,4.7,10.6,7.1,15.8
	c4.5,9.7,3.6,18.7-2.3,24.5c-6.4,6.3-15.1,7.8-24.4,2.6c-9-4.9-17.3-11.1-25.9-16.7c-4.6-3-4.9-8.3-5.8-12.9
	c-1.3-6.6-2-13.3-2.5-19.9c-0.4-5.7-4.9-7.8-8.8-9.4c-4.5-1.9-5.4,3.4-6.4,6c-2.4,6-12.1,10.9-2.3,19.1c-7-1.3-13.6-5.3-20-11.7
	c11.6-2.5,38.1-45.7,32.7-57.4c11.4,7.8,22.3,12.3,30.4,21c8.1,8.7,2.9,23.6-10,27.5c-6.2,1.9-7.5,4.6-6.3,10.2
	c1.7,7.7,2.6,15.5,4.5,23.2c0.7,2.8,2.2,6.4,5.3,6.9c3.3,0.5,3.3-3.7,5.1-5.6C828.2,2027,828.5,2025.2,831.2,2025.3z M822.8,1972
	c-0.8-5.7-4.4-10.2-10.1-12.2c-5.7-2-5.3,4.4-7.5,7c-2.9,3.4-4.7,7.8-7.4,11.3c-2.7,3.6-1.9,5.9,1.4,8.3c4.3,3.1,8.9,6.3,14.1,3.1
	C819.3,1985.7,822.1,1979.6,822.8,1972z"/>
<path fill="#656769" d="M1306.4,335.7c-2.8,2.5-5.6,3.7-4.7,8.1c3.6,17.2,6.8,34.5,12.1,52.2c9.3-19,18.6-37.9,27.9-56.9
	c0.8,0,1.6,0.1,2.4,0.1c5.6,20.2,11.2,40.5,16.9,60.7c4-0.1,3.4-3.9,4.3-6c5.7-13.4,11.2-26.9,16.4-40.5c1.5-4,5-9.3-3.1-11.7
	c6.7,0.5,13.4,0.9,22.5,1.6c-9.8,3.1-12.2,10.2-15.1,16.9c-7.8,18.1-15.7,36.2-23.6,54.2c-0.8,1.9-1.4,4.7-3.7,4.7
	c-2.9-0.1-3.1-3.2-3.7-5.4c-5.1-18.1-10.2-36.2-15.7-55.8c-11.4,19.4-18.6,40-30.9,60c-9.4-28.1-11.2-56.1-20.9-82.1
	C1292.8,335.7,1299.6,335.7,1306.4,335.7z"/>
<path fill="#656769" d="M1824.6,562.7c-12,11.3-25.2,21.5-35.6,35.5c-2.7-2.3-6.3-5.3-9.8-8.3c5.4-0.1,8.6-3.1,11.9-6.1
	c14.7-13.3,29.5-26.5,44.3-39.6c2-1.7,3.4-4.4,8-4.1c-6,23.3-12,46.4-18.3,70.7c23-9.5,44.8-18.5,66.6-27.4c0.5,0.7,0.9,1.3,1.4,2
	c-8.4,12.2-16.8,24.3-25.2,36.5c-3.6,5.3-7.3,10.5-11.1,15.7c-3.5,4.9-7,9.9-4.4,16.5c-3.7-4.2-7.5-8.5-11.1-12.5
	c9.8-13.4,20.3-27.9,32.4-44.6c-15.8,6.5-29.4,12-42.9,17.5c-3.7,1.5-7.2,3.3-10.9,4.6c-1.8,0.6-3.8,2.6-5.8,0.8
	c-2.2-1.9-0.3-3.9,0.2-5.9c4.1-16.2,8.2-32.3,12.3-48.5c0.2-1.4,1-3.2,0.4-4C1826.3,560.3,1825.2,561.6,1824.6,562.7z"/>
<path fill="#656769" d="M963,2100c-7-2.5-13.9-5.1-20.9-7.6c4.5-1.4,6.3-4.4,7.7-8.2c5.3-14.6,10.8-29.1,16.2-43.6
	c0.7-1.8,2.5-4.3-0.7-5.2c-6.6-2-12.9-8.5-20.1-1.5c-2.7-3.1,1.6-5,1-7.6c-0.5-0.3-1.1-0.9-1.4-0.8c-19.8,8.4-37,19.3-43.4,41.9
	c-1.4,5.1,3.1,6,4.7,11c-7.9-3.5-14.5-6.4-22.3-9.9c10.7-2.6,10.9-12,14.4-18.9c4.2-8.2,0.8-16.9-0.3-25.2c-1.1-8.2-0.3-17.1-7-25
	c6.1-0.1,9.8,3.5,14.1,5c1.7,0.6,2.4,1.3,1.6,3.9c-3.1,10.9,1.3,21.3,2.1,34.8c8.2-10.6,21.2-12.1,24.7-24.4
	c0.7-2.4,2.9-0.4,4.5,0.2c12.1,4.6,24.2,9.3,36.4,13.8c5.4,2,10.9,4,16.5,5.5c11,3.1,11,2.9,4.4,14.6c-1.8-3.6-2.5-7.2-6.3-9.1
	c-10.8-5.5-11.7-5.5-15.9,5.7c-4.4,11.7-8.5,23.5-12.6,35.3C957.6,2092.9,957.7,2092.9,963,2100z"/>
<path fill="#656769" d="M450.7,904.4c-4.9-12.1-9.7-24.2-14.9-36.1c-1.3-3-1.6-7.2-6.9-7.2c-3.3,0-1.3-2.6-0.7-3.9
	c2.3-5.5,4.8-10.9,8.3-18.7c-1.1,21.8,10.1,37.6,15.5,55.2c1.5,4.8,3.9,4.8,8.2,3c14-5.8,28.2-11.1,42.3-16.6
	c8.7-3.4,16.5-7.8,21.5-16.1c-2.7,13-8.5,23.5-21.9,28.2c-14.8,5.2-29.5,10.7-46.3,16.8c12.9,5.8,24.1,11.7,36.5,14.8
	c4.5,1.1,5.2-3.9,9.8-6.5c-4.3,9.9-7.8,18.1-11.3,26.2c0.5-6.2-3.4-8.9-8-10.9c-21.1-9.2-42.3-18.2-63.4-27.6
	c-4.7-2.1-8-1.3-12.3,1.5c3.2-7.5,6.4-15,9.6-22.5c-0.8,7.2,3.4,10,8.8,12.2c7.9,3.1,15.7,6.5,23.5,9.7c0.7,0.3,1.3,0.5,2,0.8
	C450.9,905.9,450.8,905.2,450.7,904.4z"/>
<path fill="#656769" d="M699.9,1931.3c10.6-7.2,21-14.5,31.7-21.6c3.6-2.4,5.9-4.9,2.8-9.6c1.6,0.2,2.4,0.1,2.8,0.4
	c3.2,2.7,8.7,4.5,8.9,8.5c0.2,4.4-6,3.3-9.1,5.4c-14.7,9.9-29.7,19.3-44.6,28.7c-2.4,1.5-5.3,4.5-8.2,2.2c-3.2-2.5-0.1-5.7,0.8-8.3
	c3.9-11.2,8-22.4,12-33.6c0.8-2.2,3.1-4.8,1.1-6.7c-2.3-2.2-5.1,0.4-7.3,1.5c-10.6,5.4-21.1,11-31.7,16.3c-2.6,1.3-5.5,4.5-8.3,2.1
	c-3.1-2.6,0.3-5.6,1.4-8.1c7.3-15.4,14.8-30.7,22.3-46c2.3-4.7,4.9-9.4-0.6-15.3c7,1.6,9,6.5,12.6,9.3c2.9,2.3,0.3,4.3-1,6.8
	c-7.2,13.2-14,26.7-19.5,41.2c12-6.3,23.8-12.7,35.9-18.7c3.6-1.8,7.4-7,11-4.2c3.2,2.5-1,7.2-2.2,10.8
	c-4.1,12.1-8.5,24.1-12.8,36.1c-0.9,1.3-1.9,2.9-0.6,4C698.2,1933.7,699.2,1932.3,699.9,1931.3z"/>
<path fill="#656769" d="M881.5,505.9c3.3-3.8,3-7.4,1.1-11.4c-8.1-17.3-16.2-34.6-24-52c-2.3-5.3-6-5.9-11.2-5
	c15.6-7.6,30.1-17.2,46.9-21c19.3-4.4,35.1,4.3,42.9,22.3c7.9,18.2,2.4,37.4-14.5,48.9C910.3,496.2,895.4,499.5,881.5,505.9z
	 M899.2,423.3c-12.9-0.2-20.9,3.4-28.9,7.3c-3.5,1.7-4,4.1-2.4,7.5c7.8,16.4,15.6,32.9,23.4,49.4c1.9,3.9,4.4,6.6,9.2,5.4
	c17.4-4.3,33.1-16.7,31.3-34.6C930,438.6,914.7,423.3,899.2,423.3z"/>
<path fill="#656769" d="M1025.8,389.5c5.6,17.9,7.4,37.2,17.3,53.7c-4.8,1.2-10.8,2.7-16.8,4.1c6.5-4.4,4.7-10.3,3.3-16
	c-4.5-18-9.1-35.9-13.4-53.9c-0.6-2.7-3.3-6.4-0.6-8.5c2.8-2.2,5.5,1.4,7.9,2.9c22.1,13.9,44.2,28,67.1,42.5
	c-0.4-8.8-3.8-16.2-5.5-23.9c-1.7-7.7-4.2-15.2-6.1-22.9c-1.5-6.1-3.1-11.8-11.6-10.9c7.1-1.8,14.1-3.5,21.2-5.3
	c-5.8,3.9-3.9,9.1-2.8,13.8c4.3,18.3,8.9,36.6,13.4,54.9c0.7,2.9,1.8,5.8,0.5,9.9c-25.3-12.4-47.8-29.1-71.8-43.1
	c-0.7-0.5-1.8-1.6-2-1.4C1024.3,386.8,1025.1,388.2,1025.8,389.5z"/>
<path fill="#656769" d="M1558.6,467.4c-15-25.1-26.1-52-40-79.4c-4.9,20.8-13.9,38.8-15.6,59.4c-4.7-1.5-10.3-3.2-15.9-4.9
	c7.1,0,8.8-4.7,10.5-9.9c5.9-18.2,12.1-36.3,18.1-54.4c0.9-2.8,0.8-7.2,3.8-7.5c4-0.4,4.2,4.5,5.5,7.3
	c11.4,23.5,22.5,47.1,34.5,72.2c5.2-20.3,13.7-38.4,16.4-60.1c3.6-1.2,8.6,3.5,14.6,4.7c-5.4,0.7-7.7,3.8-9.2,8.7
	c-5.8,18.2-11.9,36.3-18.1,54.4C1562.4,460.9,1562.1,464.4,1558.6,467.4z"/>
<path fill="#656769" d="M604,639.6c20.7,0.1,39.4,19.7,39.5,41.3c0,22.8-20.7,44.1-42.7,43.8c-22.2-0.3-41-19.2-40.8-40.9
	C560.1,661.3,581.9,639.4,604,639.6z M612.2,714.8c7.3-0.2,16.9-6.1,22.6-17.8c5.6-11.5,2.3-21.7-5.5-31c-6.9-8.1-15.3-14-25.7-16.4
	c-11.7-2.7-21.8,1-29.5,9.9c-7.5,8.6-10,18.7-5.6,29.7C574,703.1,591.5,714.8,612.2,714.8z"/>
<path fill="#656769" d="M1687.9,442.9c23.1,0.6,44.6,20.8,44.2,41.6c-0.4,21.6-21.1,41.6-42.3,40.9c-24.2-0.8-44.4-20.6-43.6-42.8
	C1646.9,460.3,1665.9,442.3,1687.9,442.9z M1657.1,485.2c-0.1,17,8.4,29.2,21.4,33.5c12.4,4.1,23.3-0.1,32.5-12.1
	c4.7-6.1,7.8-13,9.6-20.4c3.1-12.8-2.6-26.4-13.6-33.2c-11.8-7.3-24.9-6.8-34.6,2.1C1662.8,463.8,1657.8,475,1657.1,485.2z"/>
<path fill="#656769" d="M469.7,814.3c0-23,19.6-44.5,40.8-44.7c21.9-0.2,41.7,19.3,41.7,41.2c0,23-19.7,44.4-41,44.7
	C488.6,855.7,469.7,837,469.7,814.3z M474.9,809.6c-0.7,14.6,8.2,23,19.7,29.2c13.1,6.9,26.5,8.9,39.5-0.5
	c14-10.2,17.1-28.2,6.6-40.7c-9.1-10.9-21-17.4-35.7-17.2C488.7,780.6,475.5,793.5,474.9,809.6z"/>
<path fill="#656769" d="M1270.6,373.4c0,24.2-18.3,42.2-43.1,42.3c-23.9,0.1-41.4-16.9-41.3-40.3c0-23.5,18.7-41.4,43.1-41.4
	C1253.3,334,1270.6,350.5,1270.6,373.4z M1259.4,377c-0.1-23.3-13.8-38.7-33.8-38c-18.6,0.7-29.7,14.8-28.3,36
	c1.4,21.5,16,36.3,35,35.6C1248.9,410,1259.5,396.9,1259.4,377z"/>
<path fill="#656769" d="M1764.2,484.2c7.7,5.4,15.6,10.6,23.2,16.2c7,5.1,12,11.8,10.2,20.9c-1.9,9.8-9.3,15.4-18.3,16.9
	c-7.9,1.3-9.3,4.5-8,11.4c2.3,12.7-0.1,26.2,8,37.9c-9.5-2.5-14.8-8.6-15.7-18.1c-0.8-8.8-1.2-17.6-1.8-26.4
	c-0.2-2.3,0.4-4.5-1.7-6.7c-7.2-7.6-10.5-7.8-16,1c-3.6,5.8-10.6,10.3-8.3,18.8c-0.6,0.4-1.2,0.9-1.8,1.3
	c-5.4-3.6-10.8-7.2-16.3-10.8c5.1,0.7,8.2-1.3,10.8-5c11.1-15.9,22.3-31.7,33.5-47.5c1.9-2.6,2.9-5.3,1.4-8.4
	C1763.6,485.3,1763.9,484.8,1764.2,484.2z M1787.7,515c-0.1-1.8-0.1-2.7-0.2-3.6c-0.9-7.7-6.4-12.1-12.6-14.1c-4.9-1.6-5.9,5-8.3,8
	c-3.8,4.7-6.9,10-10.6,14.8c-2.5,3.3-2.6,5.7,0.8,8.5c5.3,4.2,10.4,9.5,17.8,5.9C1782.6,530.5,1787,523.4,1787.7,515z"/>
<path fill="#656769" d="M602.6,1840.8c10.6-9.5,21.1-19.1,30.6-29.7c7.3-8,8.4,2.5,12.5,5.2c-5.9-1.1-9.3,2.3-12.9,5.7
	c-13.3,12.3-26.7,24.4-42,38.4c-1.7-27,3.4-51,5.6-77.5c-12,10.4-22.5,19.7-33.1,28.8c-3.8,3.3,0.9,6.1-0.5,11
	c-5-6.1-9.2-11.3-14.3-17.4c13.5,3.5,18.5-7.7,26.4-12.9c9.3-6.2,17.5-14,26.3-21c1.6-1.2,4.2-2.8,5.5-2.3c2.8,1.1,1.4,4.2,1.1,6.4
	c-3.2,21-6.5,42.1-7.5,63.4c0.1,1,0.1,2,0.2,3C601.3,1841.5,601.9,1841.2,602.6,1840.8z"/>
<path fill="#656769" d="M1731.6,1994.7c-9.2-12.9-13.6-30-29.3-38.4c2.7-1.8,7.3-4.9,14-9.5c-3.9,6.9-1.2,10.4,1.6,14.4
	c9.2,13.3,18.1,26.7,27,40.2c1.2,1.9,3.9,4,2.5,6.3c-1.7,2.8-5,1.6-7.6,1.2c-16.5-2.8-32.3-8.6-48.4-12.9c-3.8-1-7.6-2.1-11.4-3.2
	c-1.3-0.8-2.8-1.7-4-0.6c-1,1,0.4,1.9,1.4,2.6c6.3,12.1,12.3,24.5,21.1,35.1c2.5,3,3.3,4.8-0.9,6.5c-3.8,1.5-6.7,5.2-11.8,4.9
	c6.6-10.4-2.2-17.4-5.4-25.3c-5.3-13-12.1-25.3-19.3-40c24.4,8.1,46.1,15.5,68.4,20.7c0.9,0.6,2,1.3,2.8,0.1
	C1732.6,1996.4,1731.9,1995.4,1731.6,1994.7z"/>
<path fill="#656769" d="M561.3,1692.8c6.9,4.4,11,11.2,16.6,21c-6.7-5-10.6-3.3-14.6-0.5c-10.5,7.3-21.5,14-31.8,21.5
	c-15.1,11-15.6,27.3-1.9,37.3c7.1,5.1,14.5,4.9,21.5,1.1c14.3-7.6,26.5-18.4,39.5-27.9c4.2-3.1,1.6-6.4-1.1-11.7
	c8.8,5.1,11,12.2,15.3,18.2c-7.3-3.3-11.7,1.3-16.5,4.8c-9.6,7-18.4,15.1-28.8,20.9c-15.8,8.9-31.1,5.3-41.5-9.7
	c-10-14.5-7.6-29.9,7-40.9c11.2-8.5,22.7-16.4,34.3-24.4c3.9-2.7,5-5.6,2.1-9.5L561.3,1692.8z"/>
<path fill="#656769" d="M2065.5,817.6c-2.6-1.8-5-2.7-8.3-0.9c-7.4,4.1-15,7.7-24.3,12.4c14.3,4.4,26.9,11.7,39.2,11.2
	c13.2-0.6,8.3,8.5,12.1,12.5c-13.4-7.7-28.2-10.6-42.3-15.6c-2.6-0.9-4-0.6-4.7,1.9c-4.7,16.6-11.5,32.6-13.9,49.9
	c-0.6,4,0,8.1,0.9,12.1c-8.1-9-11-19-7-30.8c4.2-12.3,8.1-24.8,12.7-39.1c-10.9,5-20.4,9.7-29.1,15.8c-2.9,2.1-0.1,5.6-1.3,9.1
	c-3.4-6.4-6.7-12.8-10.1-19.2c0.5-0.4,0.9-0.8,1.4-1.2c5.2,2.2,9.4-0.7,13.5-2.8c15-7.7,30-15.6,45-23.4c5.1-2.6,9.8-5.3,7-12.7
	c3.5,6.6,6.9,13.2,10.4,19.8C2066.3,816.8,2065.9,817.2,2065.5,817.6z"/>
<path fill="#656769" d="M1634.3,1995.5c18.3,0.2,33.9,16.8,33.8,36c-0.1,19.8-17.6,36.9-37.8,36.9c-19.1,0-34.7-16.2-34.7-36.1
	C1595.6,2012.2,1613.4,1995.2,1634.3,1995.5z M1659.8,2035.5c-1.3-12.4-7.7-24.3-21.6-31c-14.7-7.1-33.3,3.3-33.9,19.1
	c-0.5,13.6,4.8,25.1,16,33.1c8.3,5.9,17.5,6.6,26.7,1.8C1655.1,2054,1660.2,2047.6,1659.8,2035.5z"/>
<path fill="#656769" d="M1859.5,1920c-7,11.9-16.8,12.3-27,11.5c-9.6-0.8-19.2-1.8-29.4-1.8c8,5.7,8.2,20.4,25.3,18.1
	c-7.1,5.8-12.7,10.2-18.5,14.9c-0.1-13.1-31.5-52.2-41.7-52c4.8-5.5,10.5-9.1,16.9-13.2c-3.3,12.7,8.5,16.2,12.5,24.5
	c1-11.6,5.5-22.3,2.2-34.3c-1.4-5.2,6.3-8.4,11.2-11.1c-6.1,12.7-3.8,26.4-6.2,39.4c-0.9,4.9,3.1,4.3,6,4.4
	C1826.6,1921,1842.4,1924.9,1859.5,1920z"/>
<path fill="#656769" d="M826.3,450.2c-2.6,4.9,1.4,8,3.3,11.5c6.8,12.2,15.6,23.2,20.6,36.4c4.8,12.8,1.5,24-8.7,32.8
	c-11.8,10-25.1,12.3-36.1,6.2c-6-3.4-10.2-8.6-13.7-14.4c-5.9-9.5-11.9-19.1-17.6-28.7c-2.2-3.8-4.6-7-10.1-8.3
	c5.5-3.4,10.9-6.8,16.4-10.1c0.3,0.4,0.6,0.8,1,1.1c-2.3,2.7-2,5.3-0.2,8.2c7.9,12.6,15.1,25.7,23.6,37.8c7.3,10.4,16.7,12.9,26.1,9
	c13.3-5.6,18.4-17.2,12.4-30.4c-6.4-14.1-15.5-26.7-23.5-40c-0.5-0.8-1-1.8-1.7-2.1c-1.9-0.7-4-1-5.9-1.7c-1.1-0.4-1.3-0.1-0.9-0.2
	c1.5-0.4,1.4-2.5,3.5-3.2c3.7-1.1,6.9-3.5,10.4-5.3C825.5,449.4,825.9,449.8,826.3,450.2z"/>
<path fill="#656769" d="M1384.3,2089.1c-10-10.5-23.2-12.7-36.2-5.9c-11.6,6.1-15.5,17.2-11.5,33.2c3.3,13.4,15.6,23.6,29,23.2
	c5.7-0.2,13.3,1.3,15.8-6c2.4-7.1-3.7-20.6-9.7-24c0.5-0.4,0.9-1.1,1.3-1.2c6.6-0.9,13.1-1.6,20.7-2.5c-7.8,7-4.3,14.8-3,21.7
	c1.7,8.8-0.9,12.7-9.5,14.9c-17.4,4.5-33.8,5.4-47.4-8.7c-16.3-16.9-7.9-48.7,14.3-56.3c10.1-3.4,20.4-4.2,30.6-3
	C1389.1,2075.7,1382.1,2084.3,1384.3,2089.1z"/>
<path fill="#656769" d="M1941.1,1738c0-1.8-0.5-3.9,0.1-5.4c1.5-3.6,1.6-10.5,5.8-9.7c3.8,0.8,0.5,7.4-0.8,9.6
	c-3.1,5.1,0.6,8.2,2,11.5c8.6,20,33.2,28.1,49.1,16.5c12.1-8.8,13.4-24.9,2.8-35.6c-14-14.1-27.3-16.5-43.4-8.5
	c-1.8,0.9-3.9,4.6-6.1,1.8c-2.4-3.1,1.5-4.8,3.1-6.4c12.6-12.2,30.7-12.9,44.9-2c14.4,11.1,18.4,29.9,9.8,45.7
	c-8.8,16.2-23.8,23.3-40.2,19.1C1951.9,1770.3,1941.1,1755.8,1941.1,1738z"/>
<path fill="#656769" d="M1935.6,1793.8c4.3-5.3,8.6-10.6,14.3-17.6c-1,11.5,7.2,14.4,13.1,18.6c6.6,4.8,7.1,9.6,3.4,16.2
	c-7.3,13-17.4,23-32,26.6c-13,3.2-24.1-2.3-32.5-12.1c-9.5-11.1-11.6-24-5.5-37.5c4.6-10.2,13.3-17.1,21.1-24.7
	c1.8-1.8,3.6-1.5,5.5,0.3c2.7,2.7,5.8,5,8.7,8.4c-9.6-2.5-16.9,0-23.3,7.3c-7.6,8.6-12.1,17.5-7.4,29c4.6,11.2,18.9,20.4,31.3,20.4
	c10.9,0,23.5-8.1,27.7-17.9c0.5-1.1,1.2-2.3,1.1-3.4C1960.2,1801.6,1942.1,1792.3,1935.6,1793.8z"/>
<path fill="#656769" d="M1162.7,2077.6c5.9,0.4,11.8,0.7,20,1.2c-9.6,5.7-8.2,13.8-8.9,20.9c-1,9.4-1.3,18.9-4.5,27.9
	c-4.5,12.9-15.1,18.6-29.9,16.3c-14.5-2.2-23.7-11.2-23.2-24.7c0.5-12.1,2.7-24.2,4.6-36.2c0.7-4.6,0.8-8.4-6-11.4
	c9.1-1.2,15.4,1.6,22.6,3c-5,1.7-6.3,5.3-6.8,9.7c-1.4,11.2-3.5,22.3-4.5,33.5c-1.1,11.8,4.6,19.4,14.4,20.8
	c12.4,1.8,19.4-3.3,22.3-15.8c2.8-11.9,2.8-24.2,4.4-36.2C1167.7,2082.5,1165.5,2080.7,1162.7,2077.6z"/>
<path fill="#656769" d="M687.9,623.4c8.9,5.1,16.6,3.9,23.8-2.5c5.3-4.7,7.4-10.4,5.4-17.2c-2-6.7-6.9-10.3-13.6-12
	c-10.8-2.8-21.7,0.8-32.7-1c-11.3-1.9-19.7-7.1-22.8-18.1c-3-10.7,2.5-19.3,10.8-25.2c15.7-11.2,10.8-10.5,23.2,5.6
	c-7.1-4.3-12.8-7-18.7-2.7c-5.8,4.1-11.7,8.6-9.6,16.9c2,8.1,8.1,11.8,16.3,12c9.7,0.2,19.5-0.5,29.2,0.1
	c14,0.8,24.8,12.1,25.2,25.4c0.3,11.1-13.7,28.4-24.6,29.8C692.3,635.3,691.4,627.8,687.9,623.4z"/>
<path fill="#656769" d="M1907.2,715.9c-3.6-4.1-8.7-7.6-10.5-12.4c-1.8-4.7,4-8.6,6-13.1c6.2-14.5,4.3-22.6-8.5-31.5
	c-1.4-1-2.7-1.5-4.2-0.9c-6.2,2.5-12.3,5.1-18.5,7.6c-3.5,1.4-2.1,4.3-2.1,6.6c-3.9-3.9-7.8-7.9-11.3-11.5
	c27.8-5.6,53.3-19.7,81.2-28.3c1.6,4.5-1.5,7.6-3,10.8c-8.4,17.8-17.1,35.5-25.6,53.3c-2.8,5.8-5.2,11.7-2.5,18.2
	C1907.9,715,1907.6,715.5,1907.2,715.9z M1924.9,645.3c-10.1,0.3-18,6.5-27.7,9.7c4.3,4.8,7.7,8.7,11.1,12.6
	c2.2,2.5,3.8,3.8,5.7-0.4c3.3-7.4,7.1-14.7,10.6-22c0.3-0.4,0.6-0.8,0.9-1.3c-0.3,0-0.6,0-0.9,0
	C1924.7,644.3,1924.8,644.8,1924.9,645.3z"/>
<path fill="#656769" d="M941.4,394.8c12.8-4.6,25.6-9.1,38.3-14c3.2-1.2,4.3-1.3,4.8,2.2c0.4,2.9,1.1,5.8,1.8,9.1
	c-6.3-4.7-18.2-4.3-24.4,0.2c-2.1,1.5-1.5,3.1-1,4.7c0.8,2.6,1.7,5.2,2.6,7.8c6.3,17.5,10.3,18.7,26.1,8c0.9-0.6,1.4-2,3.4-1.5
	c0.9,4.1,1.9,8.5,3,13.4c-5.3-4.5-19.1-3.8-23.2,0.5c-1.6,1.7-0.8,3.4-0.3,5c2.4,6.9,4.7,13.8,7.4,20.5c1.8,4.5,4.6,6.3,10,4.6
	c12.7-3.9,14.2-4.7,17.7-14.9c3.6,12.8,3.6,12.8-8.5,16.8c-10,3.4-20,6.7-32.4,11c4.5-4.2,5.5-7,4-11.1
	c-6.7-18.5-12.9-37.2-19.4-55.8C949.7,396.7,946.6,394.2,941.4,394.8z"/>
<path fill="#656769" d="M1273.8,2149.5c-6.5,0-12.7,0-19,0c7.3-2.9,9.6-9.1,11.8-15.6c5.5-15.8,11.2-31.5,17-47.2
	c0.8-2.1,0.7-5.5,3.9-5.5c2.9,0.1,3.2,3.3,4.2,5.4c6.9,14.9,13.6,29.8,20.6,44.6c3,6.5,5.9,13.3,14,16c-1.3,0.2-2.7,0.2-4,0.5
	c-9.4,1.8-15.9,1.2-18.6-10.9c-2.4-10.9-15.2-15-25.2-10.6C1273.8,2128.3,1270.5,2143.9,1273.8,2149.5z M1279.3,2120
	c5.6,1.4,10.7,0.4,16.2,0.1c-2.8-7.8-5.1-15.4-9.6-22.4C1283.6,2105.3,1281.5,2112.5,1279.3,2120z"/>
<path fill="#656769" d="M1490.1,2107c3.8,8.1,3,13.1-6.3,14.8c-9.7,1.8-19.2,5.4-31.2,5.9c4.9-4.2,4.6-8.1,3.6-12.2
	c-3.3-14.4-6.7-28.9-9.6-43.4c-1-5-4.8-6.1-10-8.2c12.7-4.1,24.3-6.3,35.5-9.4c5.9-1.6,1.5,7.1,4.7,9.9c-3.6,2.3-3.8-0.7-5.1-1.4
	c-5.5-2.9-11-0.3-15.6,1.7c-3,1.3-0.2,6,0.5,9.1c4.1,16.2,4.6,16.4,20,9.3c1.1-0.5,2.1-1,3.8-1.9c0.8,4.3,1.4,8,2,11.4
	c-3.1,2.9-3.2-0.7-4.5-1.2c-5.3-1.9-10.6-0.5-14.8,2c-2.9,1.8,0,5.9,0.4,9c0.2,1.5,0.6,3,1.2,4.4c1.7,4.5,0.4,12.1,7.5,11.6
	C1479.3,2118,1488.8,2118.8,1490.1,2107z"/>
<path fill="#656769" d="M1173.3,354.2c-8.4-13.9-18.9-4-28.6-6.3c3,21.4,5.9,41.6,8.6,61.7c0.8,6,3.9,9.3,10.3,9.8
	c-8.5,1.3-17,2.6-25.5,3.8c4.6-3.4,5.3-7.5,4.5-12.6c-2.7-18.7-5.1-37.4-7.7-56.1c-0.2-1.6,0.6-3.6-2-4.3
	c-5.9-1.6-21.8,4.7-25.4,10.3c-2.7-9.8-1.2-12.1,8-13.2c16-2,32.2-3.2,47.9-6.8c8.8-2,10,1,9.9,7.9
	C1173.3,349.6,1173.3,350.8,1173.3,354.2z"/>
<path fill="#656769" d="M1890.9,1836.1c2.7,3.5,5.1,6.5,7.7,9.8c-5.8,0-17,7-17.2,10.5c-0.1,1.9,16.7,17.6,18.8,17.6
	c6.5-0.3,13.3-11.8,12.3-20.7c8.4,6.3,8.8,8.5,2.5,15.2c-7,7.5-13.5,15.5-22.4,21.4c-1.4-13.1-37.4-48.1-47.7-45.7
	c7.7-9.8,16.9-17.1,24.3-26.2c3.5-4.2,5.9,4,9.3,6c-2,3-4.2,0.4-6.1,1.1c-5.2,1.8-9,5.9-11.3,10.1c-1.8,3.3,3.6,5.7,5.9,8.1
	c10.8,10.9,11.3,10.7,20.8-2.2C1888.8,1839.6,1889.7,1838.1,1890.9,1836.1z"/>
<path fill="#656769" d="M1008.6,2044.9c12.9,2,23.3,7.7,34.8,8.6c3,0.2,2.4,2,1.8,3.7c-1,2.7-2.1,5.4-4,10.1
	c-2-11.2-11.3-13.5-16.3-11.7c-6.7,2.4-7.7,13.3-6.7,19.1c1.3,7.9,11.8,5,18.7,7.4c0,3.7-1.9,7-3.5,10.5c-3.8,0.2-2-3.7-3.8-5.2
	c-8-6.9-14.9-4.9-17.6,5.4c-0.2,0.6-0.3,1.2-0.3,1.8c-0.7,5.3-6.5,11.7,0.7,15.4c6.3,3.2,14.2,7,20.8-2c-1,11.9-2.9,13.3-12.4,10.5
	c-9.8-3-19.6-5.9-30.4-9.1C1002.4,2102.7,1016.3,2053.7,1008.6,2044.9z"/>
<path fill="#656769" d="M754.2,1915.3c11.6,5.8,20.7,14.6,32.4,20.4c-2.5,3.2-4.8,6.1-8.7,11.1c1.5-11.5-6.4-13.9-12-18.1
	c-0.7-0.5-14,16.4-13.5,17.6c3,7,9.6,9.2,16.2,11.7c-1.3,4.1-4.2,6.9-8.5,11.3c2.1-10-5-11.8-9.6-15.6c-0.5-0.4-1.2-1.1-1.5-0.9
	c-7,4.3-10.4,11.7-14.6,18.2c-2.7,4.2,1.7,6.4,4.5,8.4c5,3.6,9.9,8.9,18.6,1c-6.8,12.3-8.5,12.8-16.4,7.1
	c-8-5.8-16.6-10.9-24.9-19.2c7.3,1,10.1-3.4,13-7.3c8.2-11,16-22.2,24.2-33.1C756.4,1923.9,758,1920.2,754.2,1915.3z"/>
<path fill="#656769" d="M1972.2,806.5c-4.4-6.4-8.8-12.8-13.6-20c8.5,2.5,27.8-6,32.9-15.4c6.5-11.9,11.9-24.5,17.2-37.1
	c1.4-3.3,0.7-7.4,1-12.5c3.9,5.9,7.2,10.9,10.3,15.9c0.5,0.7,2.4,2.3,0.4,2.8c-8.9,2.3-8.2,11.1-11.7,16.9
	c-3.6,5.9-6.3,12.4-9.2,18.1c11.5,0,22.9,0,34.2,0c0.3,0,0.6,0,0.9-0.1c9.6-2.1,10.4-1.5,14.7,10.3c-12.4-6.6-25.7-3.5-38.6-4.3
	c-14.9-0.9-24.8,8.2-35.8,15.5c-3.8,2.5-2.8,5.6-1.5,8.8C1972.9,805.8,1972.5,806.1,1972.2,806.5z"/>
<path fill="#656769" d="M778.5,571.2c-5.3,4-10.6,8-17.3,13c1.3-7.2-2.1-11.5-5.3-15.9c-11.2-15.2-22.5-30.3-34.2-46
	c-6,8-19.6,9.1-17.8,23.2c-8.9-9.8-8.6-10.1,0.7-16.7c15.1-10.7,29.9-22,45.2-33.4c2.3,3.2,4.9,6.9,7.9,11.1
	c-7.7-3-21.5,2.1-25.8,8.6c-1.7,2.6,0.3,3.9,1.4,5.5c11.1,14.9,22.3,29.7,33.4,44.6c2.8,3.7,6,6,10.8,4.6
	C777.8,570.3,778.2,570.8,778.5,571.2z"/>
<path fill="#656769" d="M523.9,723c-1.7,2.9-0.9,5.2,1.7,7.1c6.6,4.7,13.2,9.5,20.7,14.9c0.9-5.3,1.7-9.4,2.3-13.5
	c0.3-1.9,0.7-3.8,3.2-3.5c2.5,0.3,2.2,2.4,2.2,4.2c0,0.6-0.1,1.2-0.2,1.8c-0.9,5-4.5,11.4-0.9,14.8c6.7,6.4,14.6,12.2,23.5,15.4
	c5.5,2,8.1-3.4,10.6-6.9c3.9-5.3,10.1-10.4,3.9-18.3c8.8,1.7,11.2,5.2,7.2,11c-7.9,11.5-16.2,22.6-24.4,33.9
	c-2.2-14.3-16.2-15.8-24.1-24.7c-0.7,2.2-1,3-1.2,3.8c-0.7,2.4,0.4,6.7-3.4,6.3c-4-0.4-2.3-4.7-1.7-6.8c1.3-5-0.6-8-4.6-10.5
	c-5.1-3.3-10.3-6.6-15.1-10.3c-3.9-3.1-8.1-3.8-13.7-2.7c4.7-6.1,8.8-11.5,12.9-16.8C523.1,722.4,523.5,722.7,523.9,723z"/>
<path fill="#656769" d="M1602.6,484.7c-7.3-3.3-14.7-6.5-22-9.8c4.7-0.4,7.4-2.5,9.2-6.6c7.9-18,15.8-36.1,24.1-53.9
	c2.6-5.5-0.7-7.7-3.6-11.5c11.2,5,22.3,10,33.5,14.9c10.6,4.6,10.6,4.6,3.7,14.3c-1.6-6.6-14.7-18.2-20.4-15.8
	c-8.5,3.6-7.7,14.6-12.2,21.7c-1.3,2-1.5,4.1,1.2,5c7.3,2.3,13.6,7.8,22.8,6.7c-2.6,4.7-4.9,8.7-7.7,13.5
	c-0.9-7.6-10.9-16-17.9-16.2c-1.5,0-2.5,0.5-2.9,1.5c-4,9.5-8.1,18.9-11.7,28.5C1597.5,480.5,1602.3,481.2,1602.6,484.7z"/>
<path fill="#656769" d="M1919.3,729.2c2.9,0.7,5.4-0.3,7.7-2c3.2-2.3,6.4-4.6,9.6-7c13.7-10.5,27.4-21.1,41.5-32
	c-8.1-6.1-9.8-19.1-23.1-17.5c8.3-8.3,9.8-8,16.5,1.2c8.8,12,17.9,23.8,27.2,35.5c7.5,9.5,7.6,9.3-4.1,15.6
	c5.3-12.2-5.9-17.6-10.4-26.6c-17,13.3-33.5,26.2-50,39.1c-3.2,2.5-4.8,5.8-3.3,11.8c-5.3-7-9.2-12.1-13-17.1
	C1918.4,730,1918.9,729.6,1919.3,729.2z"/>
<path fill="#656769" d="M1761,1930.1c-6-2.7-11.1-3.4-16.4,0.8c-3.6,2.9-6.5,5.8-5.3,10.7c1.1,4.6,4.6,7.1,9.1,7.8
	c3.9,0.6,7.9,0.4,11.9,0.7c4.8,0.4,9.8,0.6,14.5,1.8c14.5,3.8,18.9,19.5,8.9,30.9c-2.7,3-5.8,5.4-9.2,7.4c-10.6,6.4-15,4.4-18.6-9.7
	c7.3,7.9,14.1,7.3,21.2,1.6c4-3.2,5.8-6.9,4.8-11.9c-1-5.2-4.8-7.7-9.6-8.4c-7.2-1-14.6-1.2-21.8-2.4c-12-1.9-18.8-8.8-18.2-17.8
	c0.6-8.5,12-20.2,20.6-20.7C1758.9,1920.7,1758.3,1926.7,1761,1930.1z"/>
<path fill="#656769" d="M1487.1,348.6c-5.9,0.8-8.5,3.9-9.7,9c-4.9,21.9-9.7,43.8-15,65.6c-1.7,7-1.2,12.1,6.6,15.1
	c-9.3-2.1-18.6-4.2-27.9-6.3c5.9-0.7,8.3-4.4,9.5-9.5c5.2-22.1,10.6-44.2,15.7-66.4c1.1-4.9,2.1-10.5-4.6-13.5
	C1470.3,344.6,1478.7,346.6,1487.1,348.6z"/>
<path fill="#656769" d="M1216.1,2171.7c14.7-10.3,14.5-24.7,15.3-38.3c1-17,0.9-34,1.7-51c0.2-5.3-1.5-8.4-6.7-10.5
	c7.4,0,14.7,0,22.1,0c-6.1,3.6-5.4,9.1-5.5,14.5c-0.4,18-1,35.9-1.4,53.9c-0.3,14.1-6.3,24.4-19.1,30.6
	C1221.2,2171.4,1219.6,2171.2,1216.1,2171.7z"/>
<path fill="#656769" d="M1053.6,2070.3c2.1-10.4,4.3-14,13.6-10.6c11.6,4.2,24.1,7,36.4,7.8c8.4,0.5,8.3,3.1,6.3,9
	c-0.5,1.4-1,2.8-1.6,4.4c-4-0.4-1.3-5.7-5-6.4c-4.4-0.9-8.9-3.6-13.1-3.2c-5.4,0.5-3.7,6.6-4.6,10.2c-3.1,12.4-5.4,25-8.5,37.4
	c-1.5,6-0.9,10.2,6.2,11.9c-8.1,1.7-15.1-2.3-23.1-2.1c11.5-12.5,9.6-28.6,14.1-42.6c0.4-1.1,0.6-2.4,0.6-3.6c0.1-4.9,5.9-11.6,1-14
	C1070,2065.5,1061.9,2061.9,1053.6,2070.3z"/>
<path fill="#656769" d="M1600.8,2067.7c5.7,11.3,5.3,12.6-4.3,16.5c-10.1,4-20.3,8-31.1,12.2c4.7-13.1-3-23.1-7-33.3
	c-4-10-3.4-23.7-17.7-29c6.8-2.7,13.6-5.4,20.3-8.1c-3.9,4.7-2.8,9-0.6,14c4.4,10.6,7.8,21.7,12.3,32.3c2,4.7,2.1,12.2,10.5,11.3
	C1593.6,2082.5,1599.4,2077.6,1600.8,2067.7z"/>
<path fill="#656769" d="M1490.3,2051c7-4.1,14-4.8,21.3-6.7c-4.5,4.5-3.4,9-1.7,13.9c3.7,10.9,6.7,22,10.4,32.9
	c1.5,4.5,1.4,11.9,8.5,10.9c7.2-1.1,16.7-0.1,18.2-11.2c0.1-0.7,1-1.3,1.6-2c4.8,10.3,4.1,11.6-5.5,15.1
	c-10.4,3.9-20.8,7.3-32.3,9.3C1516.4,2102.8,1500.3,2053,1490.3,2051z"/>
<path fill="#656769" d="M2033.4,927.8c-3.3-7.6-6.7-15.2-10-22.8c4.6,3.7,9,2.4,13.6,0.4c16.9-7.3,33.9-14.7,50.9-21.7
	c4.7-2,7.1-4.6,5.3-10.3c5.1,5.8,6.5,12.6,10.2,19.9c-6.6-2.6-11.4-0.2-16.4,2c-14.9,6.6-29.9,13.1-44.9,19.4
	C2036.5,917.2,2032.1,920.2,2033.4,927.8z"/>
<path fill="#656769" d="M1863.2,1918.7c0.4-12.6-32.7-49.1-44.7-50.3c5.1-4.7,9.7-8.8,16.7-15.1c-3.1,7.2-0.3,10.6,2.5,13.6
	c9.4,10.3,19.1,20.3,28.4,30.7c4,4.4,7.8,8.3,14.7,4.7C1875.4,1907.3,1870,1912.3,1863.2,1918.7z"/>
<path fill="#656769" d="M1402.8,2070.3c6.4-1.1,12.5-2.2,18.9-3.3c-6.4,12.2,0,23.3,2.2,34.2c2.1,10.2-0.9,23.8,13.3,30.7
	c-7.1,1.5-14.4,3-21.8,4.6c4.7-11.8,0.7-23-1.9-34C1411.1,2092,1413.8,2079.5,1402.8,2070.3z"/>
<path fill="#656769" d="M607.8,1872.4c11.2,1.1,49-35,47.5-46.1c5,5.6,9.2,10.2,13.9,15.4c-4.7-1.3-8,0.5-11.1,3.7
	c-9.7,10-19.5,19.9-29.5,29.6c-4.1,4-7.6,7.8-3,14.3C618.3,1884.6,613.1,1878.8,607.8,1872.4z"/>
<path fill="#656769" d="M2172.1,1217.2c-2.2,2.9-4.5,5.7-6.5,8.7c-1.2,1.7-2.4,3-4.3,1.7c-1.4-1-2.8-2.4-3.5-4c-1-2.3,1.1-3.2,2.7-4
	c3.2-1.6,6.5-3.1,10.8-5.2c-4-1.7-6.9-3.1-9.8-4.1c-2.6-0.8-4.5-1.8-3.9-4.9c0.3-1.7-0.2-4,2-4.7c2.5-0.7,3.7,1.6,5.2,3
	c2.6,2.5,4.9,5.2,8,8.4c2-3.7,1.2-7,1.3-10.2c0.1-2.1,0.4-3.6,2.9-3.6c1.8,0,4-0.6,5.2,0.2c1.9,1.2,0.5,3.2-0.3,4.8
	c-1.6,2.9-3.2,5.9-4.8,8.9c4.9,3.5,15.2-9.1,16,5.7c-5.4,2.2-10.6-0.9-16.2-1.3c-0.1,4,2.5,6.1,4.1,8.8c0.8,1.4,3.4,2.6,1.6,4.5
	c-1.4,1.4-3.8,2.6-5.6,2.5c-2.6-0.1-2.7-2.8-2.7-5c0-3.3,0-6.5,0-9.8C2173.3,1217.6,2172.7,1217.4,2172.1,1217.2z"/>
<path fill="#656769" d="M356.4,1235.1c4.8-0.1,6.2-4.3,8.7-7.1c1.1-1.2,1.5-3.8,3.8-2.5c1.7,1,3.5,2.7,4.3,4.5
	c1.2,2.9-1.8,3.3-3.5,4.1c-2.9,1.4-5.8,2.6-8.9,4c2.1,3.6,5.6,4.1,8.6,5.3c2.8,1.2,3.8,2.9,3.1,5.6c-0.3,1.4-0.8,3.4-1.8,3.9
	c-2.5,1.1-3.5-1.6-4.9-3c-2.7-2.6-5.2-5.5-7.8-8.3c-4.1,4.2,1.6,11.1-5,13c-4.2,1.2-7.9,0.5-4.7-5.4c1.4-2.6,2.8-5.2,4.4-8
	c-3.4-2.1-6.3-0.5-9,0.4c-2.1,0.7-3.4,0.5-4.5-1.5c-1.1-1.9-2.2-4.2-0.9-5.9c0.8-1,3.4-0.8,5.1-0.6c3.8,0.3,7.2,3.1,11.3,1.7
	l0.9-0.2L356.4,1235.1z M353.3,1239c-0.2,0.2-0.6,0.4-0.5,0.5c0.1,0.4,0.3,0.7,0.5,1.1c0.2-0.2,0.6-0.4,0.5-0.5
	C353.8,1239.8,353.5,1239.4,353.3,1239z"/>
<path fill="#656769" d="M1246,320.1c-9.5,1.6-17.1,3.9-24.8,6.7c4.2-5.9,10.5-9.2,16.3-12.6C1242.6,311.1,1242.5,317.2,1246,320.1z"
	/>
<path fill="#656769" d="M1675,1964c0.5-8,4.7-13.1,7.7-18.5c1.6-2.9,4.2-0.9,6.2,0.3c3.5,2.1,0.5,3.1-0.8,4.5
	C1684,1954.5,1680,1958.7,1675,1964z"/>
<path fill="#656769" d="M356.4,1235.1l-0.9,0c0,0-0.9,0.2-0.9,0.2c-1.6-2.9-3.1-5.8-4.8-8.7c-0.9-1.5-2.4-2.9-0.1-4.5
	c1.5-1.1,3.2-1.8,5.1-1.5c2,0.4,1.8,2.2,1.8,3.6C356.6,1227.8,356.5,1231.4,356.4,1235.1z"/>
<path fill="#656769" d="M1989.4,836.8c-0.8-0.8-1.5-2.1-0.5-2.8c1.4-1,1.7,0.5,1.9,1.5C1990.3,835.9,1989.9,836.4,1989.4,836.8z"/>
<path fill="#656769" d="M777.5,569.9c0.8-1.5,1.7-2.5,3.4-1.1c-0.8,0.8-1.6,1.6-2.4,2.4C778.2,570.8,777.8,570.3,777.5,569.9z"/>
<path fill="#656769" d="M825.1,448.9c0.8-1.5,1.7-2.4,3.4-1.2c-0.7,0.8-1.5,1.7-2.2,2.5C825.9,449.8,825.5,449.4,825.1,448.9z"/>
<path fill="#656769" d="M1736.8,560c-1-0.8-2-1.7-3-2.5c0.6-0.4,1.2-0.9,1.8-1.3c0.8,0.9,1.5,1.8,2.3,2.7
	C1737.5,559.2,1737.2,559.6,1736.8,560z"/>
<path fill="#656769" d="M1793.9,599.9c-0.2,0.6-0.4,1.1-0.6,1.6c-0.7-0.4-1.5-0.7-2.1-1.3c-0.2-0.1,0.3-1,0.5-1.5
	C1792.4,599.1,1793.1,599.5,1793.9,599.9z"/>
<path fill="#656769" d="M561.6,1693l-0.4,0.2c0,0,0.2-0.3,0.2-0.3C561.3,1692.8,561.6,1693,561.6,1693z"/>
<path fill="#656769" d="M1973.3,805.5c0.1,0.8,0.5,2.2,0.2,2.3c-1.2,0.6-1.2-0.5-1.4-1.3C1972.5,806.1,1972.9,805.8,1973.3,805.5z"
	/>
<path fill="#656769" d="M1917.9,726.2c0.5,1,1,2,1.5,3c-0.5,0.4-0.9,0.8-1.5,1C1916.6,728.9,1916.9,727.6,1917.9,726.2L1917.9,726.2
	z"/>
<path fill="#656769" d="M1737.9,558.9c0.9,0.2,1.7,0.5,1.1,1.5c-0.1,0.2-1.4-0.2-2.1-0.4C1737.2,559.6,1737.5,559.2,1737.9,558.9z"
	/>
<path fill="#656769" d="M1917.9,726.2c-0.2,0.4-0.5,0.9-0.7,1.3c0,0-0.3-0.1-0.5-0.1C1917.1,727.1,1917.5,726.7,1917.9,726.2
	C1917.9,726.2,1917.9,726.2,1917.9,726.2z"/>
<path fill="#656769" d="M1908.3,714.6c0.5,0.5,1.4,1.3,1.3,1.5c-0.8,1.6-1.6,0.2-2.4-0.2C1907.6,715.5,1907.9,715,1908.3,714.6z"/>
<path fill="#656769" d="M1763.2,485.9c-0.6-0.6-1.2-1.3-1.8-1.9c0.4-0.4,0.7-0.7,1-1.1c0.6,0.5,1.2,0.9,1.7,1.4
	C1763.9,484.8,1763.6,485.3,1763.2,485.9z"/>
<path fill="#656769" d="M1761.5,484c-0.8-0.2-1.8-0.4-1.1-1.4c0.1-0.2,1.4,0.2,2.1,0.3C1762.2,483.3,1761.8,483.6,1761.5,484z"/>
<path fill="#656769" d="M522.8,722c0.4-0.6,0.8-1.1,1.2-1.7c1.3,1,0.5,1.8-0.2,2.7C523.5,722.7,523.1,722.4,522.8,722z"/>
<path fill="#656769" d="M780.4,475.5c0.8-0.1,2.1-0.5,2.2-0.3c0.6,1.1-0.4,1.2-1.2,1.4C781,476.3,780.7,475.9,780.4,475.5z"/>
<path fill="#656769" d="M2103.8,895c-0.1,0.2-0.2,0.4-0.3,0.6c-0.3-0.2-0.6-0.4-0.9-0.6c0.2-0.2,0.4-0.4,0.6-0.6
	C2103.4,894.6,2103.6,894.8,2103.8,895z"/>
<path fill="#656769" d="M2066.8,816.5c0.1,0.8,0.5,2,0.2,2.2c-1,0.7-1.3-0.3-1.5-1.1C2065.9,817.2,2066.3,816.8,2066.8,816.5z"/>
<path fill="#656769" d="M1824.6,562.7c0.5-1.1,1.7-2.3,2.5-1.3c0.6,0.8-0.2,2.6-0.4,4C1826,564.5,1825.3,563.6,1824.6,562.7z"/>
<path fill="#656769" d="M450.7,904.4c0.1,0.7,0.2,1.5,0.2,2.2c-0.7-0.3-1.3-0.5-2-0.8C449.6,905.4,450.2,904.9,450.7,904.4z"/>
<path fill="#656769" d="M699.9,1931.3c-0.6,1-1.7,2.4-2.7,1.5c-1.3-1.2-0.3-2.8,0.6-4C698.5,1929.6,699.2,1930.5,699.9,1931.3z"/>
<path fill="#656769" d="M1025.8,389.5c-0.7-1.3-1.5-2.7,0-3.8c0.2-0.1,1.3,0.9,2,1.4C1027.2,387.9,1026.5,388.7,1025.8,389.5z"/>
<path fill="#656769" d="M602.6,1840.8c-0.6,0.4-1.3,0.7-1.9,1.1c-0.1-1-0.1-2-0.2-3C601.1,1839.6,601.8,1840.2,602.6,1840.8z"/>
<path fill="#656769" d="M1677.4,1994.8c-0.9-0.6-2.3-1.6-1.4-2.6c1.1-1.2,2.7-0.2,4,0.6C1679.1,1993.5,1678.2,1994.2,1677.4,1994.8z
	"/>
<path fill="#656769" d="M1731.6,1994.7c0.3,0.7,0.9,1.8,0.7,2.2c-0.8,1.2-1.9,0.5-2.8-0.1
	C1730.2,1996.1,1730.9,1995.4,1731.6,1994.7z"/>
<path fill="#656769" d="M1924.9,645.3c-0.1-0.5-0.2-0.9-0.3-1.4c0.3,0,0.6,0,0.9,0c-0.3,0.4-0.6,0.8-0.9,1.3
	C1924.6,645.1,1924.9,645.3,1924.9,645.3z"/>
<path fill="#656769" d="M353.3,1239c0.2,0.4,0.4,0.7,0.5,1.1c0,0.1-0.3,0.4-0.5,0.5c-0.2-0.4-0.4-0.7-0.5-1.1
	C352.8,1239.4,353.1,1239.2,353.3,1239z"/>
</svg>
