<?xml version="1.0" encoding="UTF-8" standalone="no"?>
<svg
   xmlns:dc="http://purl.org/dc/elements/1.1/"
   xmlns:cc="http://creativecommons.org/ns#"
   xmlns:rdf="http://www.w3.org/1999/02/22-rdf-syntax-ns#"
   xmlns:svg="http://www.w3.org/2000/svg"
   xmlns="http://www.w3.org/2000/svg"
   viewBox="0 0 689.33331 701.33331"
   height="701.33331"
   width="689.33331"
   xml:space="preserve"
   id="svg2"
   version="1.1"><metadata
     id="metadata8"><rdf:RDF><cc:Work
         rdf:about=""><dc:format>image/svg+xml</dc:format><dc:type
           rdf:resource="http://purl.org/dc/dcmitype/StillImage" /></cc:Work></rdf:RDF></metadata><defs
     id="defs6"><clipPath
       id="clipPath18"
       clipPathUnits="userSpaceOnUse"><path
         style="clip-rule:evenodd"
         id="path16"
         d="m 0,0.6529 h 516.933 v 525.347 H 0 Z" /></clipPath></defs><g
     transform="matrix(1.3333333,0,0,-1.3333333,0,701.33333)"
     id="g10"><g
       id="g12"><g
         clip-path="url(#clipPath18)"
         id="g14"><path
           id="path20"
           style="fill:#97df07;fill-opacity:0;fill-rule:nonzero;stroke:#656769;stroke-width:18.33740044;stroke-linecap:butt;stroke-linejoin:miter;stroke-miterlimit:10;stroke-dasharray:none;stroke-opacity:1"
           d="m 75.666,322.869 c 1.8369,5.906 3.9562,11.687 6.3423,17.328 9.5442,22.565 23.3547,42.886 40.4207,59.952 34.131,34.131 81.284,55.242 133.367,55.242 52.083,0 99.235,-21.111 133.367,-55.242 4.266,-4.267 8.329,-8.737 12.173,-13.394" /><path
           id="path22"
           style="fill:#97df07;fill-opacity:0;fill-rule:nonzero;stroke:#656769;stroke-width:18.33740044;stroke-linecap:butt;stroke-linejoin:miter;stroke-miterlimit:10;stroke-dasharray:none;stroke-opacity:1"
           d="m 110.256,146.81 c 3.843,-4.658 7.906,-9.128 12.173,-13.394 18.762,-18.762 41.458,-33.5896 66.745,-43.139 20.715,-7.8227 43.169,-12.1035 66.622,-12.1035 52.083,0 99.235,21.1107 133.367,55.2425 17.066,17.065 30.876,37.386 40.42,59.951 2.387,5.641 4.506,11.423 6.343,17.329" /><path
           id="path24"
           style="fill:#97df07;fill-opacity:0;fill-rule:nonzero;stroke:#656769;stroke-width:22.20100021;stroke-linecap:butt;stroke-linejoin:miter;stroke-miterlimit:10;stroke-dasharray:none;stroke-opacity:1"
           d="m 141.144,333.361 c 1.112,1.83 3.081,6.073 4.277,7.843 4.784,7.082 10.231,13.678 16.253,19.7 12.044,12.044 26.385,21.79 42.31,28.526 15.925,6.735 33.433,10.46 51.811,10.46 18.379,0 35.887,-3.725 51.812,-10.46 7.962,-3.368 15.529,-7.489 22.61,-12.273 1.77,-1.196 3.51,-2.433 5.219,-3.711" /><path
           id="path26"
           style="fill:none;stroke:#656769;stroke-width:14.43739986;stroke-linecap:butt;stroke-linejoin:miter;stroke-miterlimit:10;stroke-dasharray:none;stroke-opacity:1"
           d="m 18.2416,313.282 c 3.2427,15.847 8.0253,31.133 14.1846,45.695 12.3185,29.124 30.1437,55.352 52.1705,77.379 44.0533,44.053 104.9123,71.301 172.1353,71.301 67.223,0 128.083,-27.248 172.136,-71.301 11.013,-11.013 20.976,-23.077 29.726,-36.028 M 495.223,215.16 C 491.981,199.313 487.198,184.027 481.038,169.465 468.72,140.341 450.895,114.113 428.868,92.0859 384.815,48.0328 323.956,20.7852 256.733,20.7852 189.51,20.7852 128.65,48.0328 84.5971,92.0859 73.5838,103.099 63.6207,115.163 54.8713,128.114" /><path
           id="path28"
           style="fill:#656769;fill-opacity:1;fill-rule:nonzero;stroke:none"
           d="m 190.219,150.205 -9.791,5.722 -3.56,-6.092 -3.015,1.762 8.937,15.292 3.015,-1.762 -3.578,-6.123 9.79,-5.722 1.78,3.046 c 2.162,3.699 1.167,7.491 -2.532,9.653 l -10.692,6.248 c -3.698,2.161 -7.521,1.185 -9.683,-2.514 l -5.34,-9.138 c -2.18,-3.73 -1.154,-7.54 2.545,-9.701 l 10.692,-6.249 c 3.699,-2.161 7.491,-1.166 9.67,2.563 z" /><path
           id="path30"
           style="fill:#656769;fill-opacity:1;fill-rule:nonzero;stroke:none"
           d="m 220.714,136.916 -10.212,2.916 -0.978,-3.428 -3.393,0.969 1.967,6.889 10.212,-2.915 0.978,3.427 -10.212,2.915 1.917,6.716 3.393,-0.969 -0.979,-3.427 10.074,-2.876 1.937,6.785 -23.678,6.759 -6.789,-23.782 23.817,-6.798 z" /><path
           id="path32"
           style="fill:#656769;fill-opacity:1;fill-rule:nonzero;stroke:none"
           d="m 255.91,145.513 c 0.089,4.283 -2.625,7.112 -6.908,7.201 l -19.472,0.404 -0.513,-24.727 11.302,-0.234 0.44,21.235 3.563,-0.074 -0.44,-21.235 11.662,-0.242 z" /><path
           id="path34"
           style="fill:#656769;fill-opacity:1;fill-rule:nonzero;stroke:none"
           d="m 279.921,157.827 -20.751,-4.529 0.745,-3.412 5.17,1.129 4.529,-20.752 10.376,2.265 -4.529,20.751 5.205,1.137 z" /><path
           id="path36"
           style="fill:#656769;fill-opacity:1;fill-rule:nonzero;stroke:none"
           d="m 313.423,154.542 c 1.163,1.25 1.823,3.928 0.413,7.396 -2.034,5.002 -5.811,6.07 -10.913,3.996 l -17.675,-7.187 9.316,-22.911 9.837,4.001 -8,19.675 3.268,1.329 4.502,-11.072 7.534,-6.963 10.238,4.163 z" /><path
           id="path38"
           style="fill:#656769;fill-opacity:1;fill-rule:nonzero;stroke:none"
           d="m 334.342,187.512 -8.74,-7.225 13.51,-16.343 -2.719,-2.248 -13.51,16.343 -9.018,-7.455 11.239,-13.596 c 2.753,-3.329 6.711,-3.654 9.985,-0.947 l 9.573,7.913 c 3.274,2.707 3.672,6.632 0.919,9.962 z" /><path
           id="path40"
           style="fill:#656769;fill-opacity:1;fill-rule:nonzero;stroke:none"
           d="m 357.365,175.932 5.857,8.815 -17.69,11.756 1.973,2.968 17.69,-11.755 5.858,8.815 -17.69,11.755 1.972,2.969 10.314,-6.855 9.747,-1.333 7.392,11.124 -27.432,3.404 -18.59,-27.975 z" /><path
           id="path42"
           style="fill:#656769;fill-opacity:1;fill-rule:nonzero;stroke:none"
           d="m 210.396,237.493 -48.043,-9.788 -1.358,-13.839 -15.96,-3.251 2.729,27.816 48.044,9.788 1.357,13.839 -48.043,-9.788 2.66,27.117 15.96,3.252 -1.357,-13.838 47.392,9.655 2.688,27.397 -111.396,-22.695 -9.4213,-96.03 112.0473,22.828 z" /><path
           id="path44"
           style="fill:#656769;fill-opacity:1;fill-rule:nonzero;stroke:none"
           d="m 348.185,302.14 c 1.838,18.731 -6.224,29.281 -27.07,25.034 l -88.107,-17.951 -9.422,-96.03 48.044,9.788 8.091,82.472 15.96,3.251 -4.786,-48.784 24.103,4.911 c 20.032,4.081 31.322,18.299 33.187,37.309 z" /><path
           id="path46"
           style="fill:#656769;fill-opacity:1;fill-rule:nonzero;stroke:none"
           d="m 413.224,345.939 -48.043,-9.788 -9.422,-96.03 48.044,9.788 z" /></g></g></g></svg>